<?xml version="1.0" standalone="no"?>
<!DOCTYPE svg PUBLIC "-//W3C//DTD SVG 1.1//EN" "http://www.w3.org/Graphics/SVG/1.1/DTD/svg11.dtd" >
<svg xmlns="http://www.w3.org/2000/svg" xmlns:xlink="http://www.w3.org/1999/xlink" version="1.1">
<metadata>
Created by FontForge 20160405 at Wed Jan 18 17:23:15 2017
 By www-data
(c) 2008 The Monotype Corporation. All Rights Reserved.
</metadata>
<defs>
<font id="SegoePrint" horiz-adv-x="1451" >
  <font-face 
    font-family="Segoe Print"
    font-weight="400"
    font-stretch="normal"
    units-per-em="2048"
    panose-1="2 0 6 0 0 0 0 0 0 0"
    ascent="1638"
    descent="-410"
    x-height="1034"
    cap-height="1500"
    bbox="-365 -1014 2825 2555.53"
    underline-thickness="143"
    underline-position="-346"
    unicode-range="U+0020-FB02"
  />
<missing-glyph horiz-adv-x="1024" 
d="M51 0v1536h922v-1536h-922zM179 128h666v1280h-666v-1280z" />
    <glyph glyph-name=".notdef" horiz-adv-x="1024" 
d="M51 0v1536h922v-1536h-922zM179 128h666v1280h-666v-1280z" />
    <glyph glyph-name=".null" horiz-adv-x="0" 
 />
    <glyph glyph-name="nonmarkingreturn" horiz-adv-x="819" 
 />
    <glyph glyph-name="space" unicode=" " horiz-adv-x="819" 
 />
    <glyph glyph-name="exclam" unicode="!" horiz-adv-x="664" 
d="M352 498q-25 0 -69 8t-60 20q-13 107 50 402q51 238 51 333q0 134 49 181t82 47q25 0 51 -21t26 -47q0 -22 -110 -507q-46 -203 -48 -311q-2 -70 -22 -105zM352 201q0 -99 -49.5 -140t-85.5 -41q-74 0 -74 97q0 38 36 90.5t74 52.5q25 0 62.5 -22t36.5 -37z" />
    <glyph glyph-name="quotedbl" unicode="&#x22;" horiz-adv-x="827" 
d="M592 788q-72 0 -72 103q0 60 35 188q39 135 51 222q23 139 39 165.5t49 26.5q25 0 49.5 -20t24.5 -48q0 -25 -25 -129q-29 -121 -44 -226q-29 -209 -47.5 -245.5t-59.5 -36.5zM199 805q-68 0 -68 104q0 28 25 117l38 209q22 119 31 180q10 78 64 78q23 0 45 -26.5
t22 -53.5q0 -20 -4 -50l-4 -33q-2 -18 -6 -38l-8 -57q-3 -29 -22 -83q-20 -56 -21 -83q-15 -186 -34.5 -225t-57.5 -39z" />
    <glyph glyph-name="numbersign" unicode="#" horiz-adv-x="1632" 
d="M1092 881q-9 -50 -36 -136q-27 -89 -38 -133q10 -28 41 -28q17 0 133 26q116 27 137 27q87 0 110 -24t23 -81q0 -25 -25 -41t-51 -16q-18 0 -44 14q-25 15 -54 15q-79 0 -143 -19q-53 -14 -164 -14q-1 -7 -21 -55q-40 -107 -40 -144l4 -55q0 -31 -19 -65.5t-53 -34.5
q-19 0 -38 35t-19 59q0 64 25 149q12 40 18 74q-53 -3 -163 -21l-143 -20q-88 -303 -145 -303q-43 0 -43 45q0 125 70 258q-27 3 -167 0t-172 5.5t-32 47.5q0 32 49.5 59t85.5 27q63 0 136 -7q74 -7 128 -7q20 41 34 97q43 179 61 190q-35 8 -188 -16q-119 -19 -159 -19
q-122 0 -122 51q0 31 27.5 43.5t178.5 36.5q31 5 64 11q132 24 186 26q61 40 122 208q30 82 56.5 113t67.5 31q27 0 27 -45q0 -44 -47 -150q-49 -105 -56 -145l322 41q21 28 54 200q39 203 63 253q26 37 63 37q51 0 51 -62q0 -45 -29 -118q-35 -87 -64 -189
q-14 -55 -30 -106q99 11 177 23q79 11 163 11q68 0 84.5 -16.5t16.5 -50.5q0 -13 -9 -33t-20 -20q-328 0 -444 -39zM975 870q-234 -20 -330 -49q-49 -115 -84 -289q145 11 176 11q80 0 154 41q3 7 27 82q10 32 27 80q25 72 30 124z" />
    <glyph glyph-name="dollar" unicode="$" horiz-adv-x="1124" 
d="M723 1106q-4 -48 -14 -128q-19 -150 -19 -204q0 -3 8 -8t9 -10q50 -30 77 -47q13 -9 49 -27q58 -24 81.5 -59t23.5 -117q0 -157 -299 -242q0 -26 -14 -166q-13 -130 -13 -155t10 -72q11 -55 11 -74q0 -15 -22.5 -27t-45.5 -12q-86 0 -86 104v32q0 34 10 136
q11 112 11 163q-23 -8 -67 -13q-63 -8 -165 -35q-106 -26 -133 -26q-36 0 -72 14t-36 37q0 48 45 88t198 49l118 11q38 4 124 38q35 247 35 353q-21 16 -125 57q-107 32 -174.5 93.5t-67.5 144.5q0 69 157 136t257 72q6 38 6 76v221q0 30 35.5 47t62.5 17q66 0 66 -111
q0 -37 -16 -113q-15 -78 -15 -108q30 5 113 5q30 0 68 9q29 7 55 7q67 0 67 -78q0 -57 -35.5 -67t-190.5 -10h-58q-21 0 -29 -1zM584 1081q-204 -42 -236 -104q13 -48 215 -131zM678 657q-25 -174 -25 -264q162 88 162 119q0 30 -52 78.5t-85 66.5z" />
    <glyph glyph-name="percent" unicode="%" horiz-adv-x="1495" 
d="M1100 1196q-61 -115 -196 -315q-150 -230 -203 -321t-130 -262q-64 -147 -85.5 -187.5t-46.5 -57t-27 -16.5q-52 0 -52 69q0 54 83 252t202 361q86 121 259 408q25 41 42 67q-145 41 -315 31q20 -46 20 -97q0 -84 -53.5 -180t-148.5 -146t-162 -50q-137 0 -137 213
q0 44 44.5 166.5t135.5 197t202 74.5q42 0 93 -53q29 -8 518 -45q14 -17 14 -37q0 -42 -57 -72zM500 1253q-12 0 -34 -4t-34 -4q-48 -1 -104 -107.5t-56 -166.5q0 -46 3 -59t31 -27.5t65 -14.5q62 0 111.5 75t49.5 142q0 47 -32 166zM1010 59q-111 0 -145 68t-34 123
q0 105 82.5 225.5t166.5 120.5q125 0 217 -63.5t92 -159.5q0 -57 -15.5 -103t-64 -90.5t-125 -82.5t-174.5 -38zM995 182q26 6 52 6l43 -4q14 0 94 41.5t80 134.5q0 25 -20.5 47.5t-45.5 28.5q-15 4 -47 23q-35 20 -47 20q-48 0 -89.5 -65.5t-41.5 -153.5q0 -57 22 -78z" />
    <glyph glyph-name="ampersand" unicode="&#x26;" horiz-adv-x="1892" 
d="M1243 43q-20 20 -80 49t-64 27l-12 -8q-1 -1 -38 -23q-48 -28 -122 -75q-44 -29 -137 -58t-139 -29q-234 0 -355 114.5t-121 245.5q0 88 75 229t291 269q22 15 22 35q0 35 -11 154q-13 129 -13 153q0 178 75.5 278.5t221.5 100.5q100 0 161.5 -84t61.5 -198
q0 -70 -29.5 -136.5t-77 -117t-191.5 -177.5q-16 -15 -16 -24q0 -72 118 -232.5t250 -243.5q39 0 81 87l25 49q30 57 88 204q-184 14 -217 31t-33 91q0 26 41.5 43.5t70.5 17.5q23 0 42 -7q100 -38 164 -38q52 0 194 17q141 16 175 16q84 0 84 -43q0 -38 -49 -60t-240 -55
q-32 -5 -54.5 -28.5t-72.5 -131.5q-46 -97 -66 -125q-82 -116 -82 -127q0 -25 78 -56.5t161 -31.5q16 0 92 12q75 11 91 11q82 0 82 -57q0 -21 -74.5 -71t-175.5 -50q-174 0 -275 53zM706 907q201 161 201 338q0 39 -39.5 79t-71.5 40q-46 0 -78 -57t-32 -166
q0 -226 20 -234zM971 192q-19 29 -106 109q-80 73 -95 92.5t-45 70.5q-110 179 -123 193q-102 -50 -173 -160t-71 -202q0 -88 93 -149.5t192 -61.5t328 108z" />
    <glyph glyph-name="quotesingle" unicode="'" horiz-adv-x="473" 
d="M209 764q-32 0 -54 43t-22 80q0 49 23.5 196t72.5 271.5t99 124.5q29 0 46 -22.5t17 -53.5q0 -25 -23 -77q-22 -50 -26 -66q-3 -13 -28 -101q-34 -112 -34 -214q0 -92 -13.5 -136.5t-57.5 -44.5z" />
    <glyph glyph-name="parenleft" unicode="(" horiz-adv-x="823" 
d="M70 425v33q0 147 27.5 252.5t106.5 278.5q107 231 158 293q23 29 172 164q91 83 136 102.5t73 19.5q43 0 43 -52q0 -34 -144 -172q-195 -183 -315 -429t-120 -428q0 -87 49 -336q6 -31 8 -47q33 -162 78 -243t143 -166q107 -92 107 -144q0 -58 -98 -58q-60 0 -140.5 91
t-145 187.5t-101.5 318t-37 335.5z" />
    <glyph glyph-name="parenright" unicode=")" horiz-adv-x="745" 
d="M215 -508q-33 0 -61.5 21.5t-28.5 44.5q0 20 16.5 50t112.5 151q68 82 150.5 295t82.5 263q0 320 -90 570t-159 361.5t-201 231.5q-12 12 -12 41q0 15 29 40t59 25q44 0 95.5 -56.5t156.5 -217t131 -249.5q26 -85 54 -166q81 -236 81 -504q0 -364 -247 -682
q-42 -56 -60 -90q-31 -60 -55 -94.5t-54 -34.5z" />
    <glyph glyph-name="asterisk" unicode="*" horiz-adv-x="1053" 
d="M612 1067q7 -13 81 -101q136 -155 136 -188q0 -28 -18 -48.5t-41 -20.5q-26 0 -65 49q-17 22 -21 26q-14 16 -59 73q-108 141 -131 159q-23 -13 -78 -129q-111 -228 -152 -228q-4 0 -39 20t-35 60q0 19 139 206q51 71 60 87q-18 3 -82 2t-78 -5t-112 -31q-40 -11 -58 -11
q-7 0 -14.5 21t-7.5 30q0 13 12.5 32.5t75 34.5t84.5 15q159 0 205 21q-9 20 -73 95q-10 11 -11 13q-76 100 -76 137q0 12 11 26.5t22 14.5q58 0 209 -213q43 43 163 187q61 92 97 92q24 0 43.5 -14t19.5 -37q5 -16 -39 -50q-11 -8 -18 -18q-59 -101 -116 -150
q-26 -24 -40 -38q15 -6 33 -6q71 0 201 26q89 17 129 17q19 0 33 -29t14 -47q0 -24 -26.5 -34.5t-153.5 -17.5q-201 -7 -224 -28z" />
    <glyph glyph-name="plus" unicode="+" horiz-adv-x="1169" 
d="M1081 506q-21 -27 -92 -27q-26 0 -86 7q-68 8 -98 8h-66q-29 0 -52 -1h-48q-24 0 -51 -1q-22 -43 -22 -136q0 -114 -5 -143q-5 -28 -2 -79.5t-55 -51.5q-43 0 -56.5 16.5t-13.5 59.5q0 23 17 157q8 65 16 177q-64 6 -193 6q-22 0 -59 -10q-39 -9 -51 -9q-27 0 -48.5 20.5
t-21.5 47.5q0 20 14.5 42.5t32.5 22.5q35 0 73 -7q39 -7 58 -7l201 10q12 38 12 78q0 54 -8 184q-4 54 -4 93q0 34 20.5 68t51.5 34q16 0 35.5 -33t19.5 -51q0 -52 -9 -139t-9 -119q0 -51 6 -102q20 -7 117 -7l229 4q93 0 120 -20t27 -92z" />
    <glyph glyph-name="comma" unicode="," horiz-adv-x="700" 
d="M152 -190q186 46 239 130.5t53 120.5q0 102 -28 144q-13 19 -13 37q0 15 13.5 43t27.5 28q21 0 66 -15.5t53 -27t26.5 -74.5t18.5 -108q0 -17 -37.5 -105.5t-102.5 -138t-122 -60.5q-23 -4 -43 -11q-79 -35 -129 -35q-29 0 -29 47q0 18 7 25z" />
    <glyph glyph-name="hyphen" unicode="-" horiz-adv-x="1313" 
d="M645 651h73q186 0 277 13q44 6 88 6q19 0 77.5 -23t69.5 -38.5t11 -41.5q0 -37 -15 -52t-65 -15q-22 0 -62 13t-67 13q-11 0 -73 -5q-33 -3 -120 5q-67 6 -100 6q-46 0 -139 -6t-141 -6t-77.5 10.5t-29.5 47.5q0 16 13.5 37.5t91.5 34t112 12.5z" />
    <glyph glyph-name="period" unicode="." horiz-adv-x="514" 
d="M277 276h22q18 0 43 -17.5t25 -47.5q0 -60 -21 -88t-67.5 -62t-65.5 -34q-42 0 -62 19t-20 104q0 79 9 94t43.5 23.5t93.5 8.5z" />
    <glyph glyph-name="slash" unicode="/" horiz-adv-x="1178" 
d="M61 -131q-25 0 -51 26t-26 52q0 18 49.5 122t157 268.5t195.5 281.5q9 12 15 22q64 104 188 284q134 191 237 362q48 79 128 184.5t115 105.5q20 0 50 -36t30 -58q0 -39 -136 -226q-294 -401 -564 -804q-33 -49 -93 -135q-100 -148 -122 -200t-89.5 -150.5t-83.5 -98.5z
" />
    <glyph glyph-name="zero" unicode="0" horiz-adv-x="1496" 
d="M354 -25q-160 0 -247 109t-87 272q0 199 122 439t355.5 394t411.5 154q130 0 280 -86t210 -193t60 -284q0 -265 -345.5 -535t-759.5 -270zM1058 1149q-23 -29 -72 -29q-7 0 -38 22q-32 23 -58 23q-123 0 -195 -38.5t-197.5 -159.5t-204.5 -265.5t-79 -293.5
q0 -177 83 -222t181 -45q124 0 310 99t344 254.5t158 253.5q0 56 -18 130.5t-39.5 102.5t-80 90t-94.5 78z" />
    <glyph glyph-name="one" unicode="1" horiz-adv-x="1496" 
d="M842 127l4 -59q0 -52 -131 -52q-14 0 -40 34q-24 32 -36 28q-11 0 -109.5 -27t-117.5 -35q-121 -39 -170 -39q-46 0 -73.5 31t-27.5 60q0 53 90.5 77.5t157.5 36.5q215 44 252 66q11 191 45 438l57 422q-58 0 -161 -70q-183 -120 -322 -120q-45 0 -45 63q0 40 15.5 53
t139.5 66.5t312 165.5t205 112q32 0 55 -44t23 -77q0 -28 -29 -57q-98 -428 -114 -655.5t-5 -265.5q76 3 219 43q197 53 318 53q24 -46 24 -78q0 -34 -10 -44t-66 -29t-193 -37q-201 -28 -267 -60z" />
    <glyph glyph-name="two" unicode="2" horiz-adv-x="1496" 
d="M543 254q52 4 158 4q131 0 435 -19q83 -4 106.5 -3t61.5 16q41 16 62 16q17 0 39.5 -25.5t22.5 -43.5q0 -65 -68 -101.5t-121 -36.5h-37q-96 0 -141 13q-139 37 -346 37q-177 0 -311 -43t-174 -91q-45 -54 -67.5 -67.5t-61.5 -13.5q-78 0 -78 69q0 105 86 185.5
t289 183.5q119 59 145 81t143.5 129t178.5 184t87.5 137.5t26.5 111.5q0 70 -83 142.5t-154 72.5q-61 0 -184 -76.5t-183 -147.5q-39 -46 -119 -46q-19 0 -41 43t-22 69q0 19 5 26t100.5 75t172 117.5t153.5 75.5t198 26q103 0 193.5 -85.5t134.5 -168t44 -94.5
q0 -137 -204.5 -379t-446.5 -373z" />
    <glyph glyph-name="three" unicode="3" horiz-adv-x="1496" 
d="M474 612q-73 0 -73 43q0 24 14 53.5t81 87.5l178 152q110 94 241 187q-55 9 -294 -20q-185 -23 -259 -23q-172 0 -172 157q0 31 20.5 54.5t50.5 23.5q22 0 54 -23q40 -28 62.5 -36t66.5 -8q71 0 260 18q249 29 397 29q123 0 123 -80q0 -57 -50.5 -97t-146.5 -97
q-127 -76 -177.5 -113.5t-100.5 -98.5q110 8 166 8q121 0 208 -30.5t130.5 -79.5t66.5 -79t23 -108q0 -67 -98 -216.5t-324 -237.5t-441 -88q-62 0 -178.5 15.5t-143 56.5t-26.5 83q0 105 99 105q4 0 15 -5l69 -29q114 -52 208 -52q82 0 250 32.5t282 139t114 170.5
q0 109 -114.5 144.5t-254.5 35.5q-195 0 -326 -74z" />
    <glyph glyph-name="four" unicode="4" horiz-adv-x="1496" 
d="M1312 479q-138 50 -332 39q-33 -114 -33 -213l1 -45v-41l1 -45q1 -39 0 -52.5t26 -46.5q26 -32 26 -44q0 -30 -32.5 -66.5t-62.5 -36.5q-79 0 -105 36.5t-26 109.5q0 39 8 123q7 81 9 122q4 97 24 187q-24 4 -71 4q-213 0 -345 -35q-144 -39 -260 -39q-48 0 -108 68
q45 124 489 475q142 111 230 191q92 85 205 169t133 84q81 0 81 -41q-7 -29 -57 -208q-87 -341 -110 -498q65 -25 236 -25h69q57 0 83.5 -23.5t26.5 -99.5q0 -23 -18 -41t-41 -18q-28 0 -47 10zM949 1149q-37 -37 -170 -142q-111 -88 -157 -137q-107 -113 -293 -247
q0 -15 18 -15q39 16 293 33q143 10 209 29q8 64 29 144q71 270 71 335z" />
    <glyph glyph-name="five" unicode="5" horiz-adv-x="1496" 
d="M702 1102q-57 -54 -135 -170q-21 -31 -34 -49q-14 -19 -19 -27q56 -34 217 -57q206 -30 306.5 -68t145 -110.5t44.5 -197.5q0 -78 -72 -175t-240 -184t-372 -87q-167 0 -286.5 66t-119.5 111q0 96 121 96q27 0 58 -25q111 -78 255 -78q153 0 314.5 91t161.5 174
q0 106 -78.5 162.5t-244.5 74.5l-226 25q-95 12 -147 49.5t-52 69.5q0 34 37 77q8 11 87 126q163 243 205.5 256.5t539.5 29.5q88 2 182 29q74 20 92 20q62 0 108 -37q33 -17 33 -37q0 -29 -37 -73t-106.5 -54t-173.5 -10l-334 10q-147 0 -230 -28z" />
    <glyph glyph-name="six" unicode="6" horiz-adv-x="1496" 
d="M955 1178q-35 0 -49 -9q-131 -37 -281 -225q-27 -36 -93 -100q-72 -69 -108.5 -122.5t-69 -149.5t-32.5 -179q0 -51 21 -94t129 -111q-20 157 55 294.5t189 198t353 60.5q115 0 207.5 -79.5t92.5 -190.5q0 -73 -60 -153t-197 -167t-217.5 -118t-293.5 -31
q-111 0 -197.5 38t-166 132t-79.5 171q0 172 46 277.5t129.5 222t160.5 187.5q26 24 84 87q109 120 182.5 170t141.5 50q34 0 64 -23.5t30 -58.5q0 -69 -41 -77zM1232 512q-113 82 -263 82q-356 0 -379 -420q33 -10 89 -10l98 4q98 0 276.5 123t178.5 221z" />
    <glyph glyph-name="seven" unicode="7" horiz-adv-x="1496" 
d="M1203 1146l-19 14q-459 -27 -863 -27q-23 0 -40.5 23.5t-17.5 53.5q0 31 26 61t55 30q36 0 169 -8q132 -9 256 -9q227 0 418 21q125 13 190 13q61 0 61 -60q0 -29 -8 -40.5t-54.5 -68t-81.5 -96.5q-37 -42 -116 -162l-88 -131q-94 -144 -183 -328.5t-107.5 -239
t-18.5 -116.5q0 -46 -26 -75.5t-66 -29.5q-43 0 -70 43.5t-27 89.5q0 48 118.5 286t246.5 430t167 233q44 47 79 93z" />
    <glyph glyph-name="eight" unicode="8" horiz-adv-x="1496" 
d="M871 635q106 -43 207.5 -146.5t101.5 -189.5q0 -90 -31.5 -159.5t-206.5 -116t-278 -46.5q-78 0 -193 27.5t-153.5 76t-38.5 132.5q0 70 62 152.5t152 141.5q112 77 140 99l-53 30q-151 80 -213.5 156.5t-62.5 142.5q0 71 50.5 132.5t210.5 148.5q40 21 78 44
q88 55 218 55q42 0 124 -34.5t107.5 -62t37.5 -108.5q11 -79 13 -80q12 15 26 37q17 28 23 35q21 -5 42.5 -31t21.5 -49q0 -25 -61 -110t-159 -153q-136 -96 -165 -124zM768 698q240 194 240 287q0 80 -50 130t-130 50q-90 0 -220 -83t-130 -134q0 -88 217 -208
q47 -26 73 -42zM1022 291q0 60 -84 139.5t-180 118.5q-305 -214 -305 -338q0 -42 56.5 -66t103.5 -24q224 0 316.5 46t92.5 103v21z" />
    <glyph glyph-name="nine" unicode="9" horiz-adv-x="1496" 
d="M1298 1102q0 -30 -24 -86q-91 -222 -165.5 -495.5t-74.5 -364.5q0 -150 -68 -150q-61 0 -83.5 56.5t-22.5 99.5q0 56 107 418l20 69l-18 13q-171 -101 -258.5 -129.5t-219.5 -28.5q-61 0 -143 91.5t-82 152.5q0 63 19 119t65 118.5t153 149.5t160.5 113t159.5 53.5
t164 27.5q54 0 97.5 -18.5t106.5 -77t77.5 -64.5t29.5 -67zM1124 1081q-29 86 -172 86q-207 0 -362.5 -148t-155.5 -239q0 -66 42.5 -101.5t109.5 -35.5q70 0 167.5 44t175.5 93.5t99 73.5t40 80q38 117 56 147z" />
    <glyph glyph-name="colon" unicode=":" horiz-adv-x="610" 
d="M289 762q-25 0 -53.5 47t-28.5 78q0 14 31.5 69.5t99.5 55.5q7 0 51 -25.5t52 -41t8 -56.5q0 -36 -41 -81.5t-119 -45.5zM285 20q-58 0 -77.5 29.5t-19.5 89.5q0 49 4 73t40 50.5t61 26.5q47 0 89 -20.5t42 -59.5q0 -83 -62.5 -136t-76.5 -53z" />
    <glyph glyph-name="semicolon" unicode=";" horiz-adv-x="676" 
d="M317 778q-25 0 -46 37.5t-21 63.5q0 15 23.5 75t66.5 60q3 0 59 -24t68 -41t12 -60q0 -47 -56 -79t-106 -32zM12 -176q182 44 236.5 128.5t54.5 123.5q0 108 -26 147q-13 19 -13 37q0 21 15 46.5t36 25.5q38 0 68 -13.5t38 -33.5t22 -81t14 -102q0 -26 -32 -99
t-58.5 -101t-147.5 -89t-188 -61q-27 0 -27 41q0 20 8 31z" />
    <glyph glyph-name="less" unicode="&#x3c;" horiz-adv-x="1098" 
d="M309 649q12 -16 71 -45t62 -29q17 -8 47 -32q29 -24 56 -35q344 -148 390 -173.5t46 -78.5q0 -26 -28 -57t-58 -31q-5 0 -64 33q-213 118 -335 168q-75 29 -229 119t-154 130q0 26 20 64.5t134 121.5q14 10 18 15q92 118 323 289q134 99 168 137q31 36 45.5 43.5
t38.5 7.5q28 0 49 -17t21 -44q0 -82 -385 -365q-38 -28 -92 -84q-44 -44 -144 -137z" />
    <glyph glyph-name="equal" unicode="=" horiz-adv-x="1282" 
d="M1026 825q-22 0 -61 17q-43 15 -63 15q-15 0 -44 -5q-30 -6 -46 -6q-31 0 -90 6q-60 6 -99 6q-74 0 -195 -14q-122 -15 -199 -15q-43 0 -63 13.5t-20 61.5q0 29 17.5 53.5t104.5 39t141 14.5q22 0 63 -5q55 -4 188 -0.5t205 19.5q6 2 76.5 1t116 -34.5t45.5 -80.5
q0 -86 -77 -86zM675 357h-122l-314 -5q-16 0 -45 42t-29 63q0 30 68 45.5t121 15.5l251 -6q31 0 73 7q50 9 117 9q123 0 223 -24t100 -83q0 -28 -16 -55.5t-32 -27.5q-26 0 -94 12q-83 12 -127 9.5t-174 -2.5z" />
    <glyph glyph-name="greater" unicode="&#x3e;" horiz-adv-x="1174" 
d="M829 684q-57 75 -122 107q-37 19 -145 78q-115 64 -180 97q-90 44 -153 109t-63 133q0 49 49 49q24 0 114 -69q68 -52 245.5 -164t299.5 -178q162 -83 175.5 -106t13.5 -50q0 -29 -199 -168q-17 -11 -60 -46t-110 -108l-165 -179q-50 -55 -82 -81t-62 -26q-28 0 -56 24
t-28 54q0 33 58 77q18 13 36 31q143 169 278 281q109 84 156 135z" />
    <glyph glyph-name="question" unicode="?" horiz-adv-x="1055" 
d="M508 662q-35 -91 -55 -191q-11 -49 -43.5 -65.5t-92.5 -16.5q-9 0 -15.5 41t-6.5 59q0 70 79 224q9 17 11 24q70 66 275 141q63 23 122 46.5t89 83.5t30 116q0 33 -19 114t-79.5 104.5t-116.5 23.5q-120 0 -175 -34t-62 -74q-8 -46 -64 -62q-30 -6 -57 -6q-56 0 -56 61
q0 81 121.5 174t200.5 93q15 0 138 5q96 4 157 -34.5t113.5 -97.5t52.5 -230q0 -150 -54 -236t-139 -130.5t-354 -132.5zM446 80q0 -51 -60.5 -89t-106.5 -38q-47 0 -81 29.5t-34 76.5q0 38 65 80q14 10 22 17q21 18 56 18q23 0 68 -35q71 0 71 -59z" />
    <glyph glyph-name="at" unicode="@" horiz-adv-x="1686" 
d="M1032 516q-69 -53 -172 -97t-158 -44q-74 0 -138 56.5t-64 119.5q0 150 145 334t252 184q132 0 190 -57q13 -9 13 -31q0 -15 -1.5 -34t17.5 -19q9 0 24 8t25 8q56 0 56 -53q0 -13 -32 -92q-31 -73 -38.5 -98.5t-7.5 -71.5q0 -45 67 -45q91 0 168.5 95t77.5 187
q0 91 -76 242t-186 211.5t-174 60.5q-116 0 -305.5 -155.5t-333 -403.5t-143.5 -354q0 -143 173.5 -263t405.5 -120q120 0 316.5 56.5t308.5 145.5q41 33 49 33q15 0 35 -14t20 -26q0 -76 -38.5 -117t-137.5 -81.5t-286 -79t-336 -38.5q-242 0 -445 140t-203 362
q0 157 166.5 438t378.5 438.5t365 157.5q246 0 404.5 -206.5t158.5 -418.5q0 -133 -70 -254t-180.5 -158.5t-130.5 -37.5q-91 0 -160 92zM969 936q-121 -6 -217.5 -149t-96.5 -203q0 -40 20.5 -56t88.5 -16q46 0 136.5 53.5t90.5 93.5q0 11 -5 79q-3 45 21 93q23 44 23 46
q0 12 -61 59z" />
    <glyph glyph-name="A" unicode="A" horiz-adv-x="1592" 
d="M968 1431q9 -7 9 -49q0 -43 -9 -65l13 -42q33 -118 65 -194q40 -102 79 -219q89 -269 185.5 -460.5t176.5 -269.5q50 -49 62.5 -67.5t12.5 -43.5q0 -44 -29.5 -74.5t-70.5 -30.5q-128 0 -310 403q-73 159 -88 159q-48 0 -206.5 -29t-289.5 -68q-75 -23 -95 -23
q-25 0 -52 25q-5 4 -12 4q-22 0 -95 -130q-120 -215 -151.5 -256.5t-69.5 -41.5q-27 0 -65 31.5t-38 64.5q0 32 36 86.5t147 219.5q198 293 334 550q215 409 273 482.5t89 73.5q66 0 99 -36zM1029 636q-35 80 -103 293q-74 227 -94 276q-55 -116 -170 -329l-181 -343
q21 16 111 26q69 7 120 18q273 55 317 59z" />
    <glyph glyph-name="B" unicode="B" horiz-adv-x="1504" 
d="M1091 818q0 -16 20 -21q108 -31 191 -120.5t83 -212.5q0 -189 -242 -389t-509 -200q-75 0 -117.5 19.5t-42.5 45.5q0 126 178 126q25 0 77.5 -2t121 25.5t133.5 71t111.5 90t75 98.5t28.5 105q0 86 -74.5 153t-198.5 67q-20 0 -95 -32q-75 -33 -98 -33q-78 0 -97.5 20
t-19.5 71q0 31 169 100q141 56 273.5 183t132.5 215q0 61 -50 97t-140 36q-149 0 -296 -36.5t-161.5 -68.5t-81.5 -484.5t-67 -523.5q0 -70 3 -130.5t-21.5 -104t-83.5 -43.5q-54 0 -83.5 42.5t-29.5 107.5q0 17 9 52q52 215 98 550t46 387q0 42 -11.5 62t-52.5 20
q-16 0 -31.5 -1t-31 19t-15.5 48q0 88 283 173t575 85q150 0 245.5 -80.5t95.5 -188.5q0 -80 -81.5 -188.5t-217.5 -209.5z" />
    <glyph glyph-name="C" unicode="C" horiz-adv-x="1432" 
d="M1178 302q39 0 39 -48q0 -50 -111 -143t-256.5 -148t-266.5 -55q-177 0 -322.5 117t-145.5 339q0 405 348.5 788.5t671.5 383.5q121 0 193.5 -74.5t72.5 -173.5q0 -92 -10.5 -145t-63.5 -89.5t-85 -36.5q-23 0 -40 20t-17 54q0 23 17 96q17 72 17 107q0 102 -89 102
q-138 0 -341.5 -158.5t-345.5 -402t-142 -448.5q0 -137 81.5 -227.5t232.5 -90.5q87 0 211.5 43.5t228.5 116.5t123 73z" />
    <glyph glyph-name="D" unicode="D" horiz-adv-x="1627" 
d="M330 1207q0 39 -45 51q-82 20 -82 69q0 37 32.5 72.5t69.5 35.5l140 -4q98 0 258 13q159 13 238 13q276 0 443.5 -155.5t167.5 -409.5q0 -279 -239.5 -508.5t-682.5 -335.5q-175 -42 -237 -85q-82 -56 -136 -56q-38 0 -67.5 40.5t-29.5 64.5q0 10 20 52q21 45 29.5 91
t14.5 165q5 118 36.5 381.5t51.5 373.5q18 96 18 132zM511 1274q-119 -715 -119 -1009q0 -65 13 -98q8 -7 31 -7q64 0 335 84t440 259t169 398q0 185 -130.5 295.5t-344.5 110.5q-130 0 -313 -24q-41 -6 -81 -9z" />
    <glyph glyph-name="E" unicode="E" horiz-adv-x="1401" 
d="M1293 1290q-3 -1 -54.5 1t-105.5 -10q-54 -13 -96 -16q-29 -2 -63 -8q-43 -8 -170 -9q-191 -3 -240.5 -26t-55.5 -95q-5 -55 -21 -121q-49 -197 -49 -262l15 -1q47 -3 190 13t214 32q146 35 223 35q125 0 125 -67q0 -82 -83.5 -100.5t-348.5 -47.5q-324 -36 -345.5 -64.5
t-45.5 -183.5t-24 -198v-11q5 -50 64 -57l18 -1q55 -3 131 9l192 28q107 15 217 35q137 29 174 29q28 0 62.5 -23.5t34.5 -74.5q0 -37 -18 -51q-102 -45 -263 -50q-139 -5 -434 -47q-149 -22 -196 -22q-117 0 -146.5 18.5t-35.5 90.5l-4 34v4q0 16 18 65q25 71 58.5 270
t43.5 315q5 40 16 97q44 239 44 378q0 7 -20 37q-5 6 -7 10q-7 23 -13 38q-7 14 -7 33v10q0 22 27 39t52 17h3q42 0 96 -6h4q23 0 222 19t475 66q29 5 35 5l15 1q78 5 107.5 -15.5t36.5 -79.5q0 -28 -26 -54t-41 -28z" />
    <glyph glyph-name="F" unicode="F" horiz-adv-x="1214" 
d="M511 1219q-19 -34 -55 -218.5t-36 -309.5q69 11 142 19l210 24q50 7 140 31q91 24 124 24q118 0 118 -96q0 -19 -33.5 -48t-89 -41t-267.5 -35q-260 -30 -308.5 -45.5t-57.5 -31t-19 -145t-10 -210.5l4 -124q0 -102 -74 -102q-46 0 -85 35t-39 94q0 232 114 978
q27 174 27 187q0 19 -12 58q-16 49 -16 68q0 27 30 58.5t57 31.5l132 -15q61 0 227 20q282 34 387 34q92 0 132 -28t40 -55q0 -48 -32.5 -82.5t-69.5 -34.5q-17 0 -37 4q-109 18 -166 18q-107 0 -277.5 -19.5t-199.5 -43.5z" />
    <glyph glyph-name="G" unicode="G" horiz-adv-x="1589" 
d="M1150 294q-368 -289 -665 -289q-168 0 -267 99.5t-99 275.5q0 423 361 789.5t748 366.5q114 0 182.5 -41t68.5 -104q0 -55 -41.5 -121.5t-80.5 -66.5q-26 0 -43 41q-28 65 -61 90t-101 25q-174 0 -391 -166t-342.5 -380.5t-125.5 -415.5q0 -234 215 -234q99 0 228.5 49.5
t277 150t179 176.5t49.5 207q10 71 104 71q101 0 101 -62q0 -28 -30 -100q-49 -116 -73 -211t-43.5 -220t-19.5 -178q0 -47 18 -139q3 -19 3 -32q0 -35 -26.5 -68t-65.5 -33q-43 0 -84.5 33.5t-41.5 74.5q0 32 46 287q14 80 20 125z" />
    <glyph glyph-name="H" unicode="H" horiz-adv-x="1650" 
d="M1464 1529q38 0 67 -27.5t29 -69.5q0 -71 -44 -311q-54 -294 -76 -626.5t-22 -416.5q0 -46 -41.5 -91t-72.5 -45q-33 0 -62 26.5t-29 66.5q0 36 31 255q26 185 26 267q0 48 -14 66t-47 18q-50 0 -196 -11q-158 -13 -197 -13q-41 0 -208.5 -13t-185 -22.5t-36 -132
t-22.5 -203.5q-5 -139 -31.5 -229.5t-68.5 -90.5q-29 0 -71.5 45.5t-42.5 91.5q0 40 24 137q33 133 79.5 475t80.5 711q2 24 27 49t53 25q98 0 98 -141q0 -83 -36 -267q-32 -166 -32 -240q0 -31 20 -45t95 -14q164 0 441.5 26.5t299 76t44 225t22.5 366.5q0 22 31 52t67 30z
" />
    <glyph glyph-name="I" unicode="I" horiz-adv-x="649" 
d="M538 1325q-6 -39 -67 -279q-29 -113 -38 -190q-6 -52 -15 -113q-40 -256 -40 -350q0 -141 17 -277q10 -79 -28 -114t-76 -35q-54 0 -75 60.5t-21 195.5q0 141 40 390q14 94 16 113q2 34 8 70q5 35 8 70q6 93 36 243q22 113 32 199q7 60 16 81t46.5 46t56.5 25
q42 0 63 -40.5t21 -94.5z" />
    <glyph glyph-name="J" unicode="J" horiz-adv-x="1220" 
d="M1017 1510q31 0 55.5 -22t24.5 -49q0 -245 -57.5 -652.5t-184.5 -603.5t-343 -196q-165 0 -343.5 121t-178.5 205q0 88 99 88q31 0 87 -55q184 -185 339 -185q135 0 218.5 144.5t134.5 484t51 637.5q0 31 33 57t65 26z" />
    <glyph glyph-name="K" unicode="K" horiz-adv-x="1524" 
d="M622 642q55 -39 240 -184q195 -153 297 -221.5t145.5 -80.5t158.5 -20q4 -14 4 -31q0 -64 -33.5 -99.5t-90.5 -35.5q-58 0 -139 42.5t-295 203.5l-228 173q-117 93 -219 137q-25 4 -61 -26q-31 -63 -44 -159t-13 -149q-14 -275 -114 -275q-39 0 -62 25.5t-23 64.5
q0 29 13 82q30 124 83 720q18 183 45 368t41 219t37 50t44 16q93 0 91 -113q-69 -284 -86 -528q-6 -77 -16 -153q0 -4 0.5 -7.5t10.5 1t63.5 44t116 92t99.5 93.5q23 27 61 61q124 111 184 175.5t112 153.5q73 128 105 128q35 0 73 -37.5t38 -74.5q0 -96 -304 -362
q-67 -58 -86 -77q-34 -32 -248 -216z" />
    <glyph glyph-name="L" unicode="L" horiz-adv-x="1289" 
d="M190 282q0 20 30 244.5t57 522t34.5 332.5t32 57t76.5 22q33 0 59 -28t26 -61q0 -43 -18 -140q-26 -133 -75.5 -540t-49.5 -461q0 -35 10.5 -47.5t39.5 -12.5q47 0 222 29q108 17 408 33q54 2 133 23q15 4 22 4q38 0 60 -25t22 -60q0 -57 -44 -90.5t-98 -33.5
q-21 0 -83 6q-63 5 -94 5q-326 0 -629 -102q-51 -17 -92 -17q-45 0 -69.5 39t-24.5 76q0 22 19 96q21 87 26 129z" />
    <glyph glyph-name="M" unicode="M" horiz-adv-x="1938" 
d="M1595 1179q-99 -110 -306 -393q-207 -282 -291 -363t-138 -81q-41 0 -80 61.5t-101 248.5q-128 381 -161 439q-12 -34 -27 -111q-32 -162 -85 -395q-103 -447 -117 -592q-2 -18 -32.5 -39t-49.5 -21q-36 0 -66.5 36t-30.5 70q0 88 58 307l87 328q80 310 99 456t19 230
q0 87 137 87q29 0 61 -50.5t42 -88.5q13 -38 31 -85l134 -375q79 -230 97.5 -259.5t30.5 -29.5q51 11 361 439q345 475 394 475q40 0 88.5 -31.5t48.5 -54.5q0 -10 -58 -439q-21 -159 -39 -381.5t-18 -250.5q0 -51 18 -114q16 -56 16 -90q0 -27 -10 -78.5t-43.5 -60.5
t-53.5 -9q-105 0 -105 175q0 160 69 783q5 50 5 62q0 8 12 67q9 50 9 84q0 33 -5 44z" />
    <glyph glyph-name="N" unicode="N" horiz-adv-x="1655" 
d="M1179 255q61 238 119.5 585.5t58.5 485.5q0 73 11.5 99t48 45t79.5 19q28 0 48 -40t20 -95q0 -43 -32 -152q-63 -248 -124 -588.5t-61 -393.5q0 -107 3 -135q4 -52 -33.5 -82t-98.5 -30q-36 0 -48.5 9.5t-52 53.5t-49.5 85q-8 38 -61 100q-288 368 -518 804
q-65 -231 -121 -641l-25 -167q-4 -25 -3.5 -100.5t-8 -101.5t-40 -59.5t-60.5 -33.5q-67 0 -79 57.5t-12 88.5q0 73 44 238q44 164 108.5 505t64.5 433l-1 55q1 29 11.5 51.5t40 38.5t58.5 16q27 0 50 -11.5t33 -35t24 -87.5q40 -194 247.5 -518.5t358.5 -497.5z" />
    <glyph glyph-name="O" unicode="O" horiz-adv-x="1646" 
d="M521 -72q-160 0 -284.5 159t-124.5 330q0 202 123 461t321 422.5t412 163.5q164 0 273 -40.5t196 -116.5t116 -156t29 -224q0 -136 -82 -318t-255.5 -355t-328.5 -249.5t-395 -76.5zM295 426q0 -139 88 -234t204 -95q302 0 555 278t253 590q0 119 -46.5 187.5t-149.5 117
t-231 48.5q-224 0 -448.5 -304t-224.5 -588z" />
    <glyph glyph-name="P" unicode="P" horiz-adv-x="1447" 
d="M294 1187q-57 20 -57 103q0 65 264.5 126.5t461.5 61.5q218 0 346 -90t128 -239q0 -221 -243.5 -396t-656.5 -257q-109 -22 -122.5 -36.5t-21 -178t-7.5 -227.5q0 -45 -28.5 -81t-66.5 -36q-88 0 -88 119q0 65 36 362l71 593q3 15 1.5 86t-17.5 90zM502 1244
q-7 -29 -14 -107q-14 -139 -35 -307q-11 -88 -21 -191q329 45 584 184t255 305q0 204 -316 204q-207 0 -453 -88z" />
    <glyph glyph-name="Q" unicode="Q" horiz-adv-x="1657" 
d="M1248 1326q130 -118 209.5 -273.5t79.5 -293.5q0 -171 -112.5 -346t-288.5 -285q8 -11 166 -198q116 -138 116 -170q0 -31 -47 -66t-67 -35q-35 0 -66 34q-52 102 -154 226t-107 124q-10 0 -42 -9q-171 -48 -334 -48q-203 0 -350 113t-147 307q0 228 164 492t403 438
t428 174q52 0 104 -59t45 -125zM858 172q-5 30 -74 105q-65 70 -65 82q0 33 43 63.5t55 30.5t27 4q60 14 73 -43t57.5 -105.5t70.5 -48.5q93 0 213.5 162t120.5 312q0 213 -146.5 397.5t-225.5 184.5q-141 0 -314 -146t-290 -359.5t-117 -388.5q0 -135 87.5 -210.5
t218.5 -75.5q145 0 266 36z" />
    <glyph glyph-name="R" unicode="R" horiz-adv-x="1493" 
d="M440 1413q294 48 429 48q211 0 337 -100t126 -251t-133.5 -284.5t-335.5 -209.5q-25 -10 -25 -21q0 -17 206.5 -176.5t379.5 -266.5q49 -30 49 -79q0 -32 -33.5 -63.5t-62.5 -31.5q-59 0 -188.5 98t-268.5 216q-301 253 -336 255q-68 2 -96 19t-28 61q0 38 36 66.5
t85 28.5q17 0 54 -5q37 -6 55 -6q80 0 273.5 119t193.5 280q0 85 -86.5 146t-220.5 61q-100 0 -200 -14t-127.5 -24t-44.5 -51.5t-57 -264.5t-62.5 -421t-22.5 -291q0 -72 10 -125q9 -53 9 -85q0 -30 -31.5 -62t-68.5 -32q-105 0 -105 170q0 401 141 1067q7 35 7 41t-7 18
q-40 63 -40 84q0 38 37 66t67 28z" />
    <glyph glyph-name="S" unicode="S" horiz-adv-x="1308" 
d="M1118 1116q0 133 -69 162.5t-172 29.5q-212 0 -384.5 -83.5t-172.5 -200.5q0 -84 76.5 -146.5t333.5 -137.5q249 -72 354.5 -148.5t105.5 -184.5q0 -109 -147 -235.5t-354.5 -192.5t-352.5 -66q-121 0 -183.5 28.5t-62.5 71.5q0 30 18.5 73.5t37.5 43.5q20 0 41 -7
q107 -40 212 -40q189 0 401 110.5t212 206.5q0 41 -64.5 78.5t-326.5 120.5q-325 103 -399.5 200.5t-74.5 205.5q0 208 239 335.5t500 127.5q173 0 266 -58.5t93 -129.5q0 -34 -21 -99t-106 -65z" />
    <glyph glyph-name="T" unicode="T" horiz-adv-x="1376" 
d="M40 1216q-11 20 -11 50q0 45 32.5 61t194.5 18q199 1 357.5 14.5t488.5 58.5q125 17 238 17q57 0 108.5 -7t73 -13.5t34.5 -36t13 -45.5q0 -71 -50 -71q-33 0 -90 6q-58 5 -157 5q-102 0 -247.5 -14.5t-161.5 -47.5t-52.5 -390t-36.5 -532q0 -81 25 -187q4 -20 4 -24
q0 -44 -24 -79.5t-58 -35.5q-52 0 -86.5 50t-34.5 280q0 218 83 851q4 34 4 35q0 34 -37 34q-60 0 -229 -15q-169 -16 -241 -16q-108 0 -140 34z" />
    <glyph glyph-name="U" unicode="U" horiz-adv-x="1587" 
d="M712 -70q-98 0 -240.5 66t-217.5 224t-75 348q0 114 50 383q9 49 26 156q32 213 44.5 256t39.5 68.5t63 25.5q25 0 51.5 -47.5t26.5 -73.5q0 -20 -46 -181q-24 -81 -52 -286.5t-28 -289.5q0 -281 131.5 -381t220.5 -100q172 0 292.5 52.5t182.5 190.5t88 513
q26 383 63.5 477.5t106.5 94.5q68 0 68 -111q0 -94 -39 -308q-25 -132 -37 -309q-11 -140 -29 -246.5t-59 -177.5t-103.5 -133t-130.5 -109t-187.5 -74.5t-209.5 -27.5z" />
    <glyph glyph-name="V" unicode="V" horiz-adv-x="1469" 
d="M110 1294q9 57 39 98t70 41q83 0 114 -198q29 -193 381 -993q38 65 82 133q199 311 285 477q347 649 458 649q76 0 76 -86q0 -15 -7.5 -26.5t-66.5 -96.5q-196 -283 -376 -590q-142 -241 -235 -386q-104 -161 -123 -233q-12 -40 -58 -65t-110 -25q-27 0 -121 257
q-42 112 -281 717q-127 321 -127 327z" />
    <glyph glyph-name="W" unicode="W" horiz-adv-x="2074" 
d="M1093 791q-34 -46 -125 -207q-379 -682 -424 -682q-68 0 -110 79.5t-115.5 421.5t-124.5 654q-19 88 -37 144q-25 75 -25 112q0 39 29.5 70.5t65.5 31.5q44 0 76.5 -67.5t72.5 -327.5q86 -565 176 -854q250 399 311 507.5t172 350.5q29 53 80 53q22 0 50 -43.5t98 -239.5
q174 -485 237 -582q352 582 409 1207q0 14 26.5 38.5t50.5 24.5q80 0 80 -102q0 -106 -53.5 -317.5t-128 -390t-250.5 -543.5q-29 -59 -49 -105q-10 -19 -38.5 -32t-45.5 -13q-43 0 -87 47t-134 275.5t-130 343.5q-28 79 -57 146z" />
    <glyph glyph-name="X" unicode="X" horiz-adv-x="1502" 
d="M751 872q351 391 466.5 505t145.5 114q29 0 64 -31.5t35 -63.5q0 -23 -97 -109q-124 -112 -321 -317.5t-197 -234.5q0 -5 27.5 -47.5t132 -166.5t154.5 -170t120 -86q47 -29 85.5 -80t38.5 -67q0 -26 -22 -51.5t-55 -25.5q-88 0 -189 93.5t-328 384.5q-46 59 -86 108
q-28 -30 -72 -75q-377 -386 -415 -496q-37 -112 -71 -148t-107 -36q-75 0 -75 78q0 145 560 712q80 80 80 91q0 13 -67 103q-349 460 -349 509q0 44 25 85.5t51 41.5q64 0 122 -117q109 -222 344 -503z" />
    <glyph glyph-name="Y" unicode="Y" horiz-adv-x="1374" 
d="M627 697q-80 83 -218 268q-97 130 -137 172.5t-110 98.5q-93 72 -114.5 103t-21.5 65q0 16 31 42.5t57 26.5q61 0 161 -92t181 -194q247 -313 306 -350q59 65 124 133q330 342 402 444q79 110 157 110q30 0 47 -28.5t17 -57.5q0 -27 -75.5 -116t-399.5 -426
q-156 -162 -183 -209t-52 -273t-35 -354q-6 -78 -16 -88t-42 -20.5t-51 -10.5q-75 0 -75 126q0 78 32 277q30 191 30 256q0 57 -15 97z" />
    <glyph glyph-name="Z" unicode="Z" horiz-adv-x="1568" 
d="M1494 1315q-3 -9 -43 -33q-31 -18 -77 -75q-35 -43 -80 -91l-122 -138q-217 -249 -347 -375q-42 -41 -91 -92l-299 -303q-2 -19 25 -19q88 0 401 31q60 6 102 6q75 0 124 4t85 4q262 0 262 -117q0 -97 -73 -97q-35 0 -59 6q-128 32 -266 32q-70 0 -421 -22l-64 -4
q-205 -13 -350 -52q-84 -23 -98 -23q-64 0 -64 73q0 71 40 101q206 150 596 541t521 571l-24 1q-84 3 -325 -20q-52 -5 -108 -9q-54 -4 -91 -8q-129 -14 -210 -14q-118 0 -167.5 34t-49.5 77q0 26 28 60t45 34q12 0 44 -11q34 -13 57 -13q92 0 168 -2.5t202 7.5
q124 10 240 14q159 4 326 35q86 16 131 16q46 0 46 -62q0 -46 -14 -67z" />
    <glyph glyph-name="bracketleft" unicode="[" horiz-adv-x="831" 
d="M682 1376l-59 1h-53l-54 1q-72 1 -88 -8t-16 -33l10 -73q0 -171 -47 -893q-28 -430 -28 -509q0 -8 2 -50l5 -80q2 -37 4 -46t22 -15.5t49 -6.5q70 0 135 17q65 15 67 15q82 0 82 -78q0 -59 -39 -80t-168 -34q-81 -8 -136 -24q-80 -24 -109 -24q-32 0 -54 28t-22 60
q0 28 8 86t8 84q0 27 -4 83t-4 81q0 51 51 782q21 231 21 406q0 180 -39 285q-21 63 -21 87q0 58 37 83t137 25h29q18 0 41 1l93 3l41 1h30l26 1q197 8 197 -100q0 -27 -39 -51.5t-115 -24.5z" />
    <glyph glyph-name="backslash" unicode="\" horiz-adv-x="1124" 
d="M946 -197l-362 735q-176 359 -282.5 528.5t-149.5 229.5q-125 196 -125 252q0 28 37.5 49t68.5 21q32 0 58 -34t62 -107q35 -71 46 -84q97 -130 182 -293l24 -45q92 -167 151 -291q70 -148 165 -327q217 -394 246 -461t29 -109q0 -53 -54 -64.5t-63 -11.5q-25 0 -33 12z
" />
    <glyph glyph-name="bracketright" unicode="]" horiz-adv-x="858" 
d="M355 -290q46 6 56 -4q8 2 20 20v369q0 32 6 208t13 237l38 302q31 240 47 341l19 111q3 10 21 51q17 39 17 52q0 28 -25 28q-134 0 -256 -33q-58 -16 -94 -16q-29 0 -68.5 20t-39.5 42q0 34 36 82.5t68 48.5q15 0 45 -4t43 -4q37 0 193 24q155 23 190 23q33 0 64.5 -31.5
t31.5 -63.5q0 -56 -32 -112q-18 -30 -27.5 -70.5t-50.5 -290.5l-56 -336q-16 -88 -22 -383q-4 -190 -7 -218q-15 -200 -15 -328q0 -33 8 -85q9 -53 9 -85q0 -84 -88 -84q-27 0 -80 9q-52 8 -86 8t-142 -11q-96 -12 -133 -12q-20 0 -48.5 15t-28.5 34q0 136 80 136
q29 0 75 -3q45 -4 60 -4q21 0 76 9q56 8 83 8z" />
    <glyph glyph-name="asciicircum" unicode="^" horiz-adv-x="1178" 
d="M602 1139l-14 -2q-19 -7 -119.5 -139.5t-130.5 -190.5q-94 -166 -121.5 -202t-60.5 -36t-55.5 30t-22.5 63q0 25 109 162q31 39 55 77q76 118 151 215q8 11 22 33q92 141 118.5 175t72.5 34q40 0 72 -70q40 -79 140 -198l34 -44q38 -48 74 -90q58 -63 126 -161.5
t68 -151.5q0 -21 -21.5 -53.5t-43.5 -32.5q-42 0 -94 98q-15 26 -142 201.5t-217 282.5z" />
    <glyph glyph-name="underscore" unicode="_" horiz-adv-x="854" 
d="M854 -205q-24 0 -104 9q-80 8 -105 8q-56 0 -239 -12q-183 -13 -240 -13q-17 0 -83 4t-83 4q-61 0 -61 66q0 24 17.5 41.5t43.5 17.5l154 10q37 0 101 -4t122 -4q46 0 134 9q90 8 138 8q16 0 101 -9q86 -10 104 -10q61 0 61 -74q0 -30 -12.5 -40.5t-48.5 -10.5z" />
    <glyph glyph-name="grave" unicode="`" horiz-adv-x="643" 
d="M280 1252q-8 5 -30 22l-63 46q-163 121 -163 177q0 20 33.5 44.5t55.5 24.5q14 0 58.5 -38t107.5 -97.5t172.5 -145.5t127 -111.5t17.5 -50.5q0 -35 -25 -62t-57 -27q-11 0 -49 38z" />
    <glyph glyph-name="a" unicode="a" horiz-adv-x="1202" 
d="M807 364q-140 -188 -277 -282t-251 -94q-77 0 -133 65t-56 167q0 263 235 566.5t467 303.5q84 0 125 -96q13 -32 41 -32q80 0 80 -62q0 -31 -10 -85q-54 -295 -54 -416q0 -242 92 -290q44 -24 44 -59q0 -31 -43 -62.5t-83 -31.5q-77 0 -127 106t-50 302zM746 927
q-132 0 -307 -247.5t-175 -410.5q0 -115 76 -115q110 0 305 222t195 408q0 143 -94 143z" />
    <glyph glyph-name="b" unicode="b" horiz-adv-x="1192" 
d="M316 569q128 233 306 377.5t321 144.5q79 0 134 -73t55 -178q0 -311 -234.5 -583.5t-495.5 -272.5q-71 0 -130.5 38.5t-66.5 96.5q-4 47 -27 70q-43 43 -43 92q0 91 50 389l103 598q53 301 77.5 372t54.5 95t74 24q70 0 70 -121q0 -115 -77 -322q-74 -199 -171 -747z
M292 236q52 -97 126 -97q114 0 241 94.5t219.5 266t92.5 289.5q0 53 -19 91t-48 38q-139 0 -339.5 -227.5t-272.5 -454.5z" />
    <glyph glyph-name="c" unicode="c" horiz-adv-x="1038" 
d="M406 -57q-150 0 -230.5 86t-80.5 241q0 261 207 550.5t385 289.5q81 0 139.5 -87.5t58.5 -185.5q0 -59 -25.5 -101.5t-51.5 -42.5q-58 0 -82 117q-27 126 -78 126q-104 0 -246 -247t-142 -417t193 -170q147 0 346 138q70 49 103 49q34 0 34 -39q0 -76 -179 -191.5
t-351 -115.5z" />
    <glyph glyph-name="d" unicode="d" horiz-adv-x="1354" 
d="M850 414q-134 -215 -284 -331.5t-276 -116.5q-97 0 -153.5 74.5t-56.5 198.5q0 253 205.5 519t443.5 266q104 0 193 -89l140 654q15 67 55.5 90t63.5 23q70 0 70 -124q0 -22 -46 -164q-73 -220 -138.5 -540.5t-65.5 -514.5q0 -200 87 -200q56 0 116 37q25 18 47 18
q32 0 32 -42q0 -51 -89.5 -118t-183.5 -67q-165 0 -165 318q0 54 5 109zM719 882q-162 0 -321 -219.5t-159 -405.5q0 -125 83 -125q78 0 189.5 82t229.5 261.5t118 269.5q0 44 -40.5 90.5t-99.5 46.5z" />
    <glyph glyph-name="e" unicode="e" horiz-adv-x="1065" 
d="M989 339q0 -102 -180.5 -246t-372.5 -144q-161 0 -248.5 95t-87.5 265q0 286 193 544t422 258q75 0 122.5 -49t47.5 -118q0 -154 -151 -295t-404 -277q-52 -27 -52 -70q0 -83 48 -133t142 -50q215 0 439 238q33 33 50 33q32 0 32 -51zM294 495q424 252 424 405
q0 60 -54 60q-92 0 -207.5 -135t-162.5 -330z" />
    <glyph glyph-name="f" unicode="f" horiz-adv-x="763" 
d="M332 -46q-7 -25 -38 -42t-62 -17q-102 0 -102 149q0 71 47 402q29 203 29 308q0 18 -42 47q-43 28 -43 55q0 43 65 93q50 39 61.5 87t26.5 133q51 310 159.5 447t276.5 137q89 0 151 -60.5t62 -150.5q0 -73 -34.5 -165.5t-78.5 -92.5q-33 0 -33 33l7 97q0 193 -108 193
q-117 0 -194 -229.5t-77 -373.5q0 -46 60 -46q261 0 307.5 2t46.5 -39t-50.5 -62.5t-220.5 -38.5q-145 -15 -164 -25q-67 -372 -67 -663q0 -87 8 -129q7 -39 7 -49z" />
    <glyph glyph-name="g" unicode="g" horiz-adv-x="1176" 
d="M840 362q-12 9 -67 -56q-91 -107 -232.5 -190t-262.5 -83q-90 0 -141 56.5t-51 156.5q0 155 117 345.5t327.5 332.5t368.5 142q83 0 146 -48q15 -12 26 -20q18 -13 34 -52.5t16 -63.5q0 -15 -11 -46q-61 -166 -83 -275t-48 -367q-24 -232 -52 -357t-101 -242t-175 -175.5
t-210 -58.5q-187 0 -369 129t-182 207q0 49 37 49q18 0 107 -59q235 -157 423 -157q164 0 249.5 175t116.5 523q7 79 17 134zM838 911q-85 0 -212.5 -88t-247.5 -258t-120 -285q0 -39 24.5 -61.5t54.5 -22.5q89 0 232.5 92t247 255.5t103.5 256.5q0 111 -82 111z" />
    <glyph glyph-name="h" unicode="h" horiz-adv-x="1282" 
d="M297 300q372 687 613 687q64 0 104 -73t65 -324q25 -267 113 -386q45 -61 45 -90q0 -26 -30 -48t-64 -22q-78 0 -138 87.5t-77 307.5q-17 208 -36 272t-63 64q-105 0 -423 -549q-95 -164 -140 -214.5t-82 -50.5q-44 0 -74 26t-30 64q0 28 16 108q123 635 194 1256
q16 145 51.5 193t59.5 48q43 0 78 -35t35 -97q0 -184 -90 -505q-44 -159 -93 -404t-49 -303q0 -12 11 -12h4z" />
    <glyph glyph-name="i" unicode="i" horiz-adv-x="592" 
d="M455 1339q-21 0 -32 45q-4 14 -11 31q-27 65 -27 113q0 40 47.5 81.5t105.5 41.5q29 0 65 -22.5t36 -43.5q0 -33 -24.5 -112t-78 -106.5t-81.5 -27.5zM324 222q0 -76 21 -171q4 -18 4 -30q0 -18 -33 -46.5t-70 -28.5q-97 0 -97 178q0 184 76 582q26 139 26 171
q0 63 23 107.5t65 44.5q51 0 80.5 -24.5t29.5 -54.5t-14 -79q-75 -264 -93 -378t-18 -271z" />
    <glyph glyph-name="j" unicode="j" horiz-adv-x="660" 
d="M412 1617h3q28 0 84 -20t73.5 -33.5t17.5 -45.5q0 -62 -57 -108.5t-85 -46.5q-48 0 -84 42t-36 84q0 108 84 128zM7 -635q-119 0 -230.5 99.5t-111.5 171.5q0 20 14 39.5t21 19.5t31 -20q157 -138 253 -138q79 0 136 75.5t82 280t47 635.5q15 311 26.5 395t47.5 117.5
t92 33.5q29 0 54.5 -22.5t25.5 -54.5q0 -18 -7 -49q-73 -316 -95 -823q-14 -306 -57 -453t-132.5 -227t-196.5 -80z" />
    <glyph glyph-name="k" unicode="k" horiz-adv-x="1211" 
d="M327 467q13 17 179 161q157 137 219 199q231 231 332 231q78 0 78 -75q0 -85 -77 -125q-100 -51 -267 -169.5t-167 -167.5q0 -20 118 -149.5t204 -191t167 -61.5l33 1q35 2 35 -31q0 -44 -55 -89.5t-145 -45.5q-58 0 -117.5 40.5t-211.5 218.5q-121 147 -151 175.5
t-50 28.5q-11 0 -70 -52t-64.5 -79t-5.5 -206v-47q0 -37 -35 -66t-76 -29q-42 0 -66 24.5t-24 50.5q0 36 27 170q38 193 70 517q74 765 114 865.5t114 100.5q26 0 43.5 -28t17.5 -72q0 -80 -69 -425q-69 -346 -100 -674z" />
    <glyph glyph-name="l" unicode="l" horiz-adv-x="586" 
d="M483 1693q72 0 72 -92q0 -82 -87 -390q-55 -194 -85 -428t-30 -367q0 -165 21 -328q4 -31 4 -45q0 -50 -34 -86t-72 -36q-53 0 -73.5 66t-20.5 213q0 335 80.5 830t128 579t96.5 84z" />
    <glyph glyph-name="m" unicode="m" horiz-adv-x="2105" 
d="M888 791q-93 -2 -398 -551q-103 -185 -120 -201.5t-62.5 -29.5t-75.5 -13q-67 0 -67 261q0 147 63 532q26 156 26 223q0 66 59 66q111 0 111 -160q0 -75 -37 -294q-43 -250 -44 -304q62 60 182 263q170 278 250.5 352.5t166.5 74.5q65 0 103.5 -87t46.5 -415
q2 -82 15 -122t19 -40q47 0 204 320q84 169 163.5 257t176.5 88q81 0 118 -83.5t53 -247.5q15 -166 46.5 -304t115.5 -177q57 -27 57 -63q0 -35 -48 -72t-88 -37q-80 0 -143 98t-95 424q-14 131 -27 186t-41 55q-42 0 -99.5 -80t-185.5 -325q-100 -191 -151.5 -254.5
t-99.5 -63.5q-43 0 -77 34.5t-43 83t-19 238.5q-15 316 -55 368z" />
    <glyph glyph-name="n" unicode="n" horiz-adv-x="1358" 
d="M814 769q-52 0 -113.5 -68t-187.5 -305q-166 -318 -214.5 -362t-80.5 -44q-118 0 -118 114q0 48 16 136q55 302 55 637q0 38 32.5 84.5t61.5 46.5q52 0 74 -32t22 -129q0 -101 -60 -416q-20 -104 -20 -132q0 -16 8 -16q15 0 139 239q125 243 219 342t207 99
q90 0 146.5 -82t82.5 -299q28 -247 50.5 -307.5t71.5 -60.5q31 0 78 22q8 4 12 4q43 0 43 -50q0 -44 -59 -93.5t-142 -49.5q-85 0 -131.5 67.5t-73.5 360.5q-28 294 -118 294z" />
    <glyph glyph-name="o" unicode="o" horiz-adv-x="1158" 
d="M425 -50q-137 0 -226 104t-89 257q0 258 173.5 508.5t415.5 250.5q160 0 259.5 -123t99.5 -293q0 -260 -205.5 -482t-427.5 -222zM286 337q0 -101 42.5 -165t112.5 -64q149 0 299 163.5t150 363.5q0 123 -57.5 199.5t-154.5 76.5q-161 0 -276.5 -197.5t-115.5 -376.5z
" />
    <glyph glyph-name="p" unicode="p" horiz-adv-x="1324" 
d="M326 116q-49 -180 -92 -505l-28 -189q-7 -40 -37 -79.5t-55 -39.5q-31 0 -70.5 31.5t-39.5 50.5q0 55 25 152q183 739 183 1298l-1 84q-2 108 38 157t92 49q24 0 46 -37.5t22 -106.5q0 -97 -20 -235q-26 -174 -27 -200q149 260 316 406t310 146q101 0 170.5 -75.5
t69.5 -187.5q0 -326 -250 -592t-487 -266q-59 0 -93.5 30t-71.5 109zM947 921q-141 0 -349 -264t-208 -411q0 -36 41 -70t104 -34q143 0 329 211.5t186 415.5q0 73 -29.5 112.5t-73.5 39.5z" />
    <glyph glyph-name="q" unicode="q" horiz-adv-x="1174" 
d="M821 326q-5 2 -26 -22q-140 -155 -267 -233.5t-242 -78.5q-92 0 -147 77.5t-55 197.5q0 272 250 569.5t505 297.5q94 0 120 -108q9 -32 39 -37q93 -22 93 -102q0 -57 -47 -245q-33 -131 -101 -492t-73 -536q-4 -116 -7 -157t-34.5 -65t-75.5 -24q-42 0 -66 32.5t-24 81.5
q0 31 32 212.5t69 344.5q43 197 57 287zM898 805q0 156 -119 156q-146 0 -338 -239.5t-192 -439.5q0 -123 81 -123q151 0 359.5 224.5t208.5 421.5z" />
    <glyph glyph-name="r" unicode="r" horiz-adv-x="1043" 
d="M335 397q10 18 24 50q68 156 125 244.5t125.5 169.5t125 123t102.5 58.5t89 16.5q87 0 142 -52.5t55 -122.5q0 -31 -19.5 -56t-59.5 -25q-42 0 -77 37q-36 37 -75 37q-104 0 -288 -252t-224 -555q-10 -78 -38 -103t-79 -25q-49 0 -71 73t-22 246q0 47 5 207q6 189 24 305
q3 19 10 89q7 77 17.5 107t43 56t70.5 26q37 0 55.5 -23.5t18.5 -50.5q0 -39 -20 -110q-23 -79 -27 -109q-3 -34 -11 -71q-10 -43 -20 -226l-1 -37v-27z" />
    <glyph glyph-name="s" unicode="s" horiz-adv-x="869" 
d="M636 229q0 65 -160 148q-203 104 -274.5 166.5t-71.5 139.5q0 199 199.5 330t325.5 131q81 0 117.5 -28t36.5 -97q0 -31 -26.5 -53t-41.5 -22q-11 0 -43 15q-32 14 -42 14q-50 0 -203 -73t-153 -165q0 -56 54 -101.5t194 -111.5q113 -54 180.5 -115.5t67.5 -144.5
q0 -153 -211 -239.5t-403 -86.5q-162 0 -162 110q0 38 36.5 56t73.5 18q15 0 57 -10q41 -10 54 -10q111 0 238 37t157 92z" />
    <glyph glyph-name="t" unicode="t" horiz-adv-x="960" 
d="M540 1009q103 8 194 19q90 10 150 10q76 0 96 -14t20 -49q0 -81 -113 -88q-145 -9 -267 -25t-131.5 -26.5t-60.5 -238t-51 -295.5q0 -110 29 -146.5t87 -36.5q86 0 239 129q59 53 91 53q43 0 43 -46q0 -72 -138.5 -186.5t-283.5 -114.5q-242 0 -242 285q0 103 50 319
q49 215 49 258q0 15 -24 15l-104 -9q-128 0 -128 102q0 58 59 58h206q21 0 37 19t47 127.5t55 214.5q24 105 94 105q43 0 67 -30t24 -56q0 -14 -36 -143z" />
    <glyph glyph-name="u" unicode="u" horiz-adv-x="1249" 
d="M839 435q-128 -215 -262 -333t-249 -118q-66 0 -134.5 77t-68.5 237q0 131 63 386q53 213 53 299q29 60 91 60q42 0 67 -29.5t25 -61.5q0 -70 -49 -199q-93 -251 -93 -431q0 -164 76 -164q97 0 247 165t257 460q42 118 68.5 153.5t71.5 35.5q68 0 68 -90q0 -11 -19 -73
q-60 -219 -60 -414q0 -234 77 -303q40 -37 40 -60q0 -28 -40.5 -51t-73.5 -23q-70 0 -113 104t-43 307v33q0 16 1 33z" />
    <glyph glyph-name="v" unicode="v" horiz-adv-x="1118" 
d="M325 -12q2 58 -85 300q-165 451 -165 628q0 141 94 141q92 0 92 -126q0 -103 6.5 -158.5t47.5 -203t90 -273.5q25 -66 36 -101q21 32 54 88q176 296 280.5 456t170.5 233t97 87.5t63 14.5q39 0 61.5 -28t22.5 -64q0 -47 -82 -102q-77 -52 -227 -261t-324 -533
q-89 -164 -137 -164q-42 0 -95 66z" />
    <glyph glyph-name="w" unicode="w" horiz-adv-x="1805" 
d="M925 662q-28 -1 -135 -233q-88 -191 -180 -340.5t-135 -149.5q-124 0 -229.5 368.5t-105.5 593.5q0 73 36.5 121t86.5 52q7 1 25 -0.5t44 -33t26 -61.5v-4q0 -12 -11 -100q-9 -65 -9 -159q0 -149 57 -329t96 -180q28 0 185 304q99 193 142 266l32 60q69 132 131 182
q86 -11 86 -86q0 -25 -4 -42t-4 -42q0 -185 96 -387.5t137 -202.5q30 0 95 212q88 288 162.5 432t109.5 171t79 27q25 0 42.5 -21.5t17.5 -46.5q0 -37 -11 -51q-124 -163 -238 -509q-97 -297 -133 -373t-60 -76q-121 0 -198 88.5t-204 470.5q-15 45 -29 79z" />
    <glyph glyph-name="x" unicode="x" horiz-adv-x="1103" 
d="M477 372q-228 -196 -301 -395q-28 -66 -57 -99q-119 7 -119 111q0 153 341 464l48 45q-199 299 -199 459q0 142 120 142q34 0 49.5 -29t24.5 -132q13 -159 137 -337q277 238 374 426q33 60 51 76t48 16q36 0 67.5 -28t31.5 -71q0 -100 -486 -548q167 -214 356 -321
q23 -13 44 -27q4 -9 4 -28q0 -43 -31.5 -77t-75.5 -34q-135 0 -427 387z" />
    <glyph glyph-name="y" unicode="y" horiz-adv-x="1210" 
d="M872 353q-184 -160 -323.5 -232.5t-213.5 -72.5q-99 0 -151.5 82.5t-52.5 192.5q0 154 62.5 380.5t93 269t97.5 42.5q28 0 46 -33t18 -75q0 -25 -23 -65q-54 -94 -56.5 -104t-38.5 -120.5t-36 -207.5q0 -34 16.5 -106t68.5 -72q55 0 135.5 33.5t181.5 109.5t136 123
t49.5 107t20.5 260t97 200q54 0 70 -28.5t16 -108.5q0 -66 -9 -165q-11 -125 -14 -178q-14 -275 -71.5 -552.5t-167.5 -464t-303 -186.5q-196 0 -348.5 102.5t-152.5 173.5q0 33 15.5 65t39.5 32q12 0 26 -19q131 -201 412 -201q145 0 243.5 254.5t108.5 477.5q2 43 8 86z
" />
    <glyph glyph-name="z" unicode="z" horiz-adv-x="1029" 
d="M982 11q-26 11 -50 24q-88 44 -238 44q-87 0 -290 -33.5t-277 -102.5q-51 -45 -107 -45q-31 0 -69.5 18t-40.5 49q47 52 130 136q451 458 686 760q-4 9 -32 9q-53 0 -226 -25q-78 -12 -162 -12q-205 0 -205 108q0 82 91 82q5 0 19 -5q72 -30 174 -30q135 0 305 22
q17 3 40 6q22 2 51 8q58 10 92 10t69.5 -18t30.5 -58l-1 -4q-22 -87 -529 -628q-122 -131 -131 -155q4 -10 20 -10q14 0 140 27q236 51 358 51q191 0 191 -116q0 -73 -39 -112z" />
    <glyph glyph-name="braceleft" unicode="{" horiz-adv-x="866" 
d="M644 -464l-65 4q-107 0 -192 111.5t-85 310.5v222q-1 117 -18.5 160.5t-44.5 43.5q-14 0 -75 -26t-75 -26q-22 0 -48 29t-26 53q0 37 56.5 81.5t95.5 53.5q76 19 149.5 86t73.5 113q0 16 -4 33q-4 22 -9 70q-4 48 -12 77q-27 117 -27 201q0 122 59 226.5t165.5 153.5
t138.5 49q41 0 76 -16t35 -49q0 -31 -12 -73t-37 -42q-16 0 -48 6q-31 6 -48 6q-36 0 -83 -40t-67.5 -76t-20.5 -176q0 -29 15 -91q15 -61 15 -117q0 -160 -24 -227.5t-102 -121.5q-53 -32 -53 -43t29 -26q69 -42 69 -183q0 -38 -6 -160t-6 -172q0 -270 174 -270
q72 0 158 35q19 8 25 8q83 0 83 -47q0 -15 -20 -47.5t-35 -54t-75 -35.5t-99 -14z" />
    <glyph glyph-name="bar" unicode="|" horiz-adv-x="662" 
d="M287 2028q36 26 51 26q61 0 61 -135l-12 -1700v-200l4 -539q0 -299 -15 -396.5t-67 -97.5q-28 0 -49.5 23.5t-21.5 50.5l22 1237l-6 381l16 1075q0 44 -8 152q-8 94 25 123z" />
    <glyph glyph-name="braceright" unicode="}" horiz-adv-x="825" 
d="M571 468q-47 -49 -47 -97q0 -13 18 -113t37 -177q21 -88 21 -173q0 -192 -86 -293.5t-229 -101.5q-96 0 -136 29t-40 68q0 31 48.5 53t84.5 22q32 0 75 -10q115 45 115 276q0 65 -26 222q-25 145 -25 207t22 84.5t70 37.5l-35 15q-48 18 -90 66.5t-42 125.5q0 90 78 303
q60 163 60 272q0 63 -53.5 104t-116.5 41q-128 0 -204 -56q-34 -27 -40 -27q-28 0 -28 23q0 211 330 211q90 0 176 -78.5t86 -232.5q0 -75 -38.5 -194.5t-51.5 -145.5q-51 -131 -51 -269q43 -49 88 -49q18 0 77 5q58 5 76 5q117 0 117 -90q0 -25 -34.5 -55.5t-59.5 -30.5
q-89 0 -146 23z" />
    <glyph glyph-name="asciitilde" unicode="~" horiz-adv-x="1593" 
d="M999 532q-42 0 -81 22t-138 115q-72 68 -127.5 106t-122.5 38l-45 6q-40 0 -97.5 -51.5t-94.5 -130.5q-14 -31 -52 -89.5t-57 -58.5q-34 0 -60 20.5t-26 53.5q0 141 60 193q14 12 48 50q50 56 157 113.5t151 57.5q27 0 80 -13.5t94.5 -41t143.5 -109.5q56 -47 100 -79
l58 -42q15 -10 61 -10q29 0 93.5 13t75.5 22.5t24.5 26.5t73.5 135q22 43 63.5 78.5t78.5 35.5q62 0 62 -55q0 -5 -17.5 -58.5t-48.5 -92.5q-20 -24 -37 -46q-98 -129 -201.5 -169t-218.5 -40z" />
    <glyph glyph-name="uni00A0" unicode="&#xa0;" horiz-adv-x="801" 
 />
    <glyph glyph-name="exclamdown" unicode="&#xa1;" horiz-adv-x="586" 
d="M264 1174q0 5 31 42.5t44.5 44.5t57.5 7q42 0 62 -11t20 -51q0 -11 -5 -20t-5 -12l4 -41q0 -44 -48 -77.5t-95 -33.5q-27 0 -43 25t-23 127zM416 641q0 -85 -26 -215q-15 -85 -17 -107q-5 -33 -12 -66q-29 -139 -29 -183q0 -28 -4 -90t-4 -91q0 -45 -22.5 -159.5
t-45.5 -135t-45 -20.5q-19 0 -54.5 46t-35.5 73q0 51 26 174q11 44 11 57q0 136 42 432q16 116 42 202q48 157 72 177.5t63 20.5q22 0 26 -13q13 -29 13 -102z" />
    <glyph glyph-name="cent" unicode="&#xa2;" horiz-adv-x="1042" 
d="M481 328q-16 6 -144 18q-94 9 -156 104t-62 156q0 97 29 161.5t43 87t90 76t118 70.5l55 14q123 28 121 38q10 13 24.5 126.5t14.5 159.5q0 64 82 64q27 0 46.5 -25.5t19.5 -54.5q0 -18 -3 -39q-4 -21 -5 -33q-3 -22 -18 -81q-15 -57 -15 -83q21 -12 79 -37
q140 -59 140 -120q0 -39 -13.5 -55.5t-52.5 -16.5q-31 0 -79 40t-74 40q-24 0 -58 -178.5t-34 -227.5q0 -28 18 -28q51 0 129 53q35 23 45 23q32 0 59 -10.5t27 -20.5q0 -46 -25 -79.5t-124 -59.5q-96 -24 -121 -43.5t-39 -92.5t-14 -163q0 -121 -66 -121q-35 0 -60.5 31
t-25.5 69q0 30 22 117q23 91 27 121zM573 932q-333 -108 -333 -324q0 -39 56 -95t93 -56q16 0 56 8.5t44 15.5q18 12 21.5 59t31 199t31.5 193z" />
    <glyph glyph-name="sterling" unicode="&#xa3;" horiz-adv-x="1370" 
d="M346 156q-188 -131 -203 -131q-28 0 -59 16.5t-31 42.5q0 33 56.5 109t95.5 90q15 4 39 0q14 0 18 6q88 102 168 276l-15 1q-17 1 -93.5 -2t-140.5 16.5t-64 54.5q0 86 63 86q21 0 62 -11q36 -10 59 -10q130 0 152 15l17 231q7 81 55.5 185.5t150 172.5t192.5 68
q68 0 135.5 -42t67.5 -109q0 -30 -20.5 -61.5t-70.5 -31.5q-34 0 -74 47q-40 46 -69 46q-97 0 -175.5 -150.5t-63.5 -314.5q3 1 22 5q220 48 271 68q72 25 129 25q20 0 55 -14t35 -35q0 -57 -37 -75.5t-266 -59.5q-43 -8 -114.5 -28t-86.5 -29.5t-27 -78.5q-13 -71 -80 -156
q-51 -64 -69 -102q1 -5 170 -57q90 -28 185 -66q147 -57 249 -57q58 0 94 36.5t32.5 51.5t0.5 74q6 14 31.5 27.5t42.5 13.5q29 0 51.5 -36t22.5 -83q0 -104 -116 -164.5t-212 -60.5q-56 0 -149.5 28.5t-320.5 119.5q-115 45 -165 53z" />
    <glyph glyph-name="currency" unicode="&#xa4;" horiz-adv-x="1493" 
d="M1192 1044q51 -81 51 -278q0 -198 -119 -379q4 -5 11 -18q37 -78 61 -108.5t70 -56.5q65 -37 65 -73q0 -6 9 -25q8 -19 8 -32q0 -28 -70 -90q-40 4 -114.5 73t-121.5 134q-39 53 -96 71q-31 -11 -117 -27t-108 -16q-100 0 -213 55q-59 -3 -214 -134q-123 -109 -151 -109
q-24 0 -49.5 34.5t-25.5 61.5q0 28 40 58q10 7 19 16q26 24 108 78q85 57 100.5 79t20.5 64q-75 137 -75 323q0 178 86 277q-40 149 -160 235q-58 41 -53 74q0 25 35.5 48.5t58.5 23.5q43 0 89 -63.5t81 -122.5q33 -54 65 -95q107 73 151.5 89t153.5 16q118 0 269 -70
q29 21 119 123q109 145 161 145q20 0 49 -25t29 -46q0 -42 -151 -201q-47 -54 -72 -109zM727 1087q-107 0 -187.5 -134.5t-80.5 -250.5q0 -57 15.5 -119t42.5 -87.5t107 -67t117 -41.5q164 0 242 99t78 317q0 125 -29 172t-122.5 79.5t-182.5 32.5z" />
    <glyph glyph-name="yen" unicode="&#xa5;" horiz-adv-x="1325" 
d="M733 780q-31 -55 -31 -69q55 0 181 27.5t161 45.5q26 13 31 13q22 0 47 -40t25 -65q0 -37 -232 -75q-109 -18 -135 -27q-42 -12 -69 -12q-11 -25 -11 -94v-25q0 -39 13 -74q35 3 72 14q40 13 79 13q14 0 78 15q65 15 94 15q31 0 56.5 -16t25.5 -41q0 -47 -31 -66
q-38 -12 -164 -31.5t-171 -19.5t-45 -41v-34q0 -78 36 -123q-28 -70 -112 -70q-66 0 -73 155q-4 76 -19 76q-11 0 -88 -11.5t-97 -18.5q-71 -23 -131 -23q-30 0 -53 27.5t-23 58.5t29 47.5t60 16.5q76 0 184 14.5t120.5 34t12.5 102.5q0 54 -8 68t-31 14q-35 0 -143 -11
t-127 -11q-52 0 -77.5 18.5t-25.5 71.5q0 67 82 67q17 0 77 -10t77 -10q119 0 160 16q-17 60 -97.5 154.5t-103.5 111.5q-36 32 -101 119q-63 84 -100 117q-65 61 -65 137q0 68 92 68q21 0 80 -88q120 -193 383 -455q14 2 92 91q76 88 102 106q45 29 131 122
q91 98 124 127.5t81 49.5t72 20q17 0 36 -25t19 -42q0 -29 -29 -52q-138 -99 -307.5 -243.5t-212.5 -229.5z" />
    <glyph glyph-name="brokenbar" unicode="&#xa6;" horiz-adv-x="662" 
d="M266 801v42q0 70 4 290l1 96v69l1 55v102q0 24 -1 49v63q0 103 -4 285l-1 75q-1 111 47 111q38 0 65.5 -30.5t27.5 -61.5l-8 -1113q-1 -43 -17 -67.5t-43 -24.5q-28 0 -50 17.5t-22 42.5zM386 -544v-152q0 -227 -10.5 -272.5t-66.5 -45.5q-31 0 -51 23t-20 35
q0 202 8 372t8 373l-4 416q0 110 78 110q69 0 69 -106z" />
    <glyph glyph-name="section" unicode="&#xa7;" horiz-adv-x="858" 
d="M614 1364q-12 22 -48 42.5t-66 20.5q-41 0 -97.5 -29t-56.5 -69q0 -87 30 -125t163 -112q74 -37 146.5 -129.5t72.5 -191.5q0 -69 -71 -152.5t-148 -94.5q144 -92 166 -151.5t22 -114.5q0 -131 -96 -207t-256 -76q-134 0 -207.5 72t-73.5 141q0 99 31 99q56 0 76 -18
t33 -58q15 -45 39 -66t39.5 -36t61.5 -15q95 0 161.5 45t66.5 88q0 66 -34.5 103t-109.5 72q-103 47 -197.5 114.5t-125.5 115t-31 138.5q0 131 145 223l26 18q55 38 100 48q-18 19 -71 63t-73 82t-20 99q0 33 43 122l14 29q20 36 105 56t152 20q80 0 157.5 -39t77.5 -94
q0 -40 -31.5 -79.5t-66.5 -39.5q-12 0 -30 42q-17 43 -18 44zM457 563q1 16 35 36q126 83 126 167q0 47 -23 97.5t-74 72.5t-64 22q-78 0 -138.5 -49t-60.5 -121q0 -126 92 -165q22 -9 59 -32q36 -22 48 -28z" />
    <glyph glyph-name="dieresis" unicode="&#xa8;" horiz-adv-x="721" 
d="M537 1214q-38 0 -64.5 26.5t-26.5 63.5q0 39 18.5 57t97.5 37l15 4q28 8 48.5 -14t20.5 -63q0 -111 -109 -111zM162 1187q-23 0 -66.5 15t-43.5 38q0 125 69 125q64 0 102.5 -35t38.5 -98q0 -45 -100 -45z" />
    <glyph glyph-name="copyright" unicode="&#xa9;" horiz-adv-x="1958" 
d="M1204 1257q32 5 43 5q15 0 174 -23t290 -93t171.5 -164.5t40.5 -115.5q0 -81 -45 -164t-158 -188.5t-347 -210.5t-461.5 -160t-311.5 -55q-48 0 -180 36t-166 67.5t-74.5 112.5t-40.5 118q0 73 51.5 275.5t195 406t331 297.5t291.5 94q63 0 146 -56.5t83 -101.5
q0 -12 -16 -43q-13 -26 -17 -37zM1032 1249q24 11 56 11h49q-33 71 -54.5 85.5t-68.5 14.5q-90 0 -265.5 -110t-320.5 -378.5t-145 -441.5q0 -84 102.5 -143.5t214.5 -59.5q297 0 634 155t449.5 286.5t112.5 216.5q0 42 -83 119.5t-250 120.5t-299 48q-124 5 -130.5 26
t-1.5 50zM1053 969q-74 10 -102 -23q-14 -17 -33 -33q-146 -114 -146 -262q0 -60 15 -74t85 -14q134 0 277.5 66.5t169.5 104.5q14 20 43 20q20 0 20 -27l-4 -33q0 -33 -103.5 -124.5t-238 -119.5t-202.5 -28q-90 0 -151.5 66t-61.5 153q0 27 15 67q12 30 19 58
q31 111 54 147.5t128.5 111.5t198.5 75q61 0 110.5 -49.5t49.5 -112.5q0 -50 -52 -65l-46 -15q-30 0 -40 77q-3 32 -5 34z" />
    <glyph glyph-name="ordfeminine" unicode="&#xaa;" horiz-adv-x="973" 
d="M617 960q-188 -242 -355 -242q-58 0 -99 48.5t-41 122.5q0 186 166 398t328 212q62 0 96 -72q6 -17 20 -17q65 0 65 -52q0 -22 -15 -107q-30 -159 -30 -239q0 -161 59 -191q35 -20 35 -50q0 -25 -33.5 -50t-62.5 -25q-60 0 -95 73t-38 191zM585 1367q-84 0 -203.5 -167
t-119.5 -278q0 -69 43 -69q69 0 202 149t133 276q0 89 -55 89z" />
    <glyph glyph-name="guillemotleft" unicode="&#xab;" horiz-adv-x="1497" 
d="M295 696q-5 -10 -7 -18q120 -74 275.5 -198t155.5 -164q0 -21 -17 -41.5t-37 -20.5q-13 0 -27 6q-25 23 -255 186q-39 27 -65 48q-60 47 -166 102q-56 25 -63 34q-22 14 -32 61q-5 66 69 81q125 25 282 137q258 182 277 188q25 0 43.5 -28t18.5 -56q0 -50 -103 -110
q-56 -32 -85 -54l-91 -69q-23 -15 -41 -28q-7 -5 -23 -10q-98 -33 -109 -46zM1456 1010q2 -21 -17 -44q-6 -24 -23 -40q-19 -8 -53 -20q-34 -13 -66 -27q-5 -8 -54 -35l-167 -92q-146 -81 -155 -88.5t-6 -18.5q2 -2 28 -17q52 -32 181.5 -125.5t159.5 -123.5q56 -40 56 -65
q6 -28 -14.5 -48.5t-42.5 -20.5q-25 0 -81 47q-81 61 -391 262q-62 36 -86 56.5t-24 50.5q0 25 13 32q83 86 482 264q12 5 33 22q83 67 108 82t48 15q20 0 42 -19.5t29 -46.5z" />
    <glyph glyph-name="logicalnot" unicode="&#xac;" horiz-adv-x="1475" 
d="M1288 751q4 -10 -1 -105t-5 -98q0 -60 -4 -174t-7.5 -126.5t-27 -31t-45.5 -18.5q-19 0 -41 21t-24 38l-1 13q-2 25 11 174q12 117 12 147q0 27 -9 43.5t-16 16.5q-132 0 -243 -15q-96 -12 -193 -12l-317 -4l-135 6h-107q-37 0 -37 74q0 14 21 38t43 25l174 8l13 1
q39 3 116 -9q58 -8 94 -8q39 0 113 10t112 10q60 0 165 12q100 13 171 13q144 0 168 -49z" />
    <glyph glyph-name="uni00AD" unicode="&#xad;" horiz-adv-x="1313" 
d="M645 651h73q186 0 277 13q44 6 88 6q19 0 77.5 -23t69.5 -38.5t11 -41.5q0 -37 -15 -52t-65 -15q-22 0 -62 13t-67 13q-11 0 -73 -5q-33 -3 -120 5q-67 6 -100 6q-46 0 -139 -6t-141 -6t-77.5 10.5t-29.5 47.5q0 16 13.5 37.5t91.5 34t112 12.5z" />
    <glyph glyph-name="registered" unicode="&#xae;" horiz-adv-x="1915" 
d="M559 1192q0 43 10 62t56.5 67.5t102 91.5t74 52.5t104 27.5t124.5 18q169 0 323.5 -55t311 -260t156.5 -291q0 -137 -30.5 -217t-149 -184t-293.5 -197t-372 -151t-347 -58q-12 0 -99 5q-68 4 -116 23.5t-121 72.5t-119.5 106.5t-68 118t-21.5 123.5q0 104 116.5 290.5
t207.5 241.5q115 71 151 113zM737 1280q192 80 279 80q34 0 100 -62t66 -98q0 -16 -21 -51q-71 54 -92.5 61t-101.5 7q-78 0 -253 -87.5t-332.5 -250.5t-157.5 -279q0 -117 21 -164t74 -91t150.5 -73.5t204.5 -29.5q100 0 220 30q38 9 93 21q111 20 411 180.5t300 388.5
q0 191 -218.5 365t-418.5 174q-84 0 -181.5 -35t-142.5 -86zM868 899q0 -114 24 -242q3 -19 3 -34q0 -36 -20 -77.5t-48 -41.5q-23 0 -46 17t-30.5 35t-7.5 67q0 30 4 100q3 70 3 100q0 52 -7 72q0 2 -25 26q-24 24 -24 46q0 14 11.5 28.5t27.5 23.5t60 14l105 13
q61 7 116 7q89 0 157 -75t68 -106q0 -49 -168 -106q46 -30 115 -55q142 -52 187.5 -76t45.5 -49q0 -17 -28 -34t-45 -17q-52 0 -202 72q-148 71 -202 71q-14 0 -25.5 20.5t-11.5 42.5q0 29 20.5 45.5t101.5 52.5q65 29 65 48q0 43 -115 43q-27 0 -109 -31z" />
    <glyph glyph-name="uni00AF" unicode="&#xaf;" horiz-adv-x="854" 
d="M854 1750q-24 0 -104 9q-80 8 -105 8q-56 0 -239 -12q-183 -13 -240 -13q-17 0 -83 4t-83 4q-61 0 -61 66q0 24 17.5 41.5t43.5 17.5l154 10q37 0 101 -4t122 -4q46 0 134 9q90 8 138 8q16 0 101 -9q86 -10 104 -10q61 0 61 -74q0 -30 -12.5 -40.5t-48.5 -10.5z" />
    <glyph glyph-name="degree" unicode="&#xb0;" horiz-adv-x="1038" 
d="M497 807q-131 0 -218 77t-87 198q0 87 98.5 211t175.5 124q25 0 68 6q38 7 75 7q25 0 101 -20t126 -133.5t50 -141.5q0 -138 -118.5 -233t-270.5 -95zM496 1278q-56 0 -104.5 -64.5t-48.5 -128.5q0 -63 58.5 -106t113.5 -43q59 0 118 13.5t92.5 74.5t33.5 86
q0 73 -34.5 131.5t-68.5 58.5q-17 0 -33 -6q-18 -6 -34 -17q-11 -7 -10 -9z" />
    <glyph glyph-name="plusminus" unicode="&#xb1;" horiz-adv-x="1169" 
d="M651 692q-14 -56 -14 -92q0 -12 5 -112q5 -102 3.5 -141t-29 -63t-57.5 -24q-16 0 -35.5 16.5t-19.5 34.5q0 29 12 125q10 96 10 166q0 60 -4 90q-10 2 -19 2h-20q-64 0 -143 -7t-119 -7h-55q-50 0 -70 12t-22 103q21 26 92 26l44 1h40l44 1l228 6q21 39 21 129
q0 12 -5 85l5 135q0 34 10.5 48.5t46.5 14.5q52 0 68 -17t16 -71q0 -49 -21 -266l-6 -70q121 -10 238 -10q13 0 50 9q38 9 61 9q28 0 48.5 -19.5t20.5 -47.5q0 -20 -15 -47t-32 -27l-131 10h-75q-32 0 -58 -1h-54q-28 0 -59 -1zM340 0h-68q-134 0 -145.5 5t-23 28t-11.5 28
q0 24 19 49t43 25t76 10q59 11 85 11q30 0 230 -12l124 -7q40 -4 60 -4l170 4l86 -4q74 0 74 -78q0 -69 -172 -69q-33 0 -131 9q-96 9 -152 9z" />
    <glyph glyph-name="twosuperior" unicode="&#xb2;" horiz-adv-x="901" 
d="M543 1309q0 16 -23 16q-78 0 -201 -61q-19 -10 -28 -13q-10 -4 -23 -20q-25 -31 -37 -31q-55 0 -55 92q0 60 68 78q18 4 151 54q100 38 150 38q46 0 85.5 -35t39.5 -84q0 -23 -17.5 -80.5t-31.5 -72.5q-144 -163 -357 -432l2 -4q2 -6 13 -6q12 0 68 17q62 21 272 53
q78 11 107 18q58 16 89 16q34 0 57 -27t23 -69q0 -28 -26 -51t-58 -23q-10 0 -40 8q-31 8 -42 8q-152 0 -446 -94q-114 -37 -154 -37q-35 0 -61.5 19t-26.5 55q0 87 387 485q40 43 79 102t36 81z" />
    <glyph glyph-name="threesuperior" unicode="&#xb3;" horiz-adv-x="795" 
d="M563 1333q-11 4 -51 4q-64 0 -160 -55l-76 -41q-26 -14 -61 -14q-21 0 -40 26t-19 50q0 32 36 51.5t156 47.5q21 5 35 11q123 49 205 49q129 0 129 -108q0 -80 -92 -164q-88 -67 -88 -80q0 -4 8 -4q12 0 40 16q29 17 42 17q49 0 99 -41t50 -90q0 -70 -97 -184
t-282.5 -182.5t-290.5 -68.5q-21 0 -38 22.5t-17 45.5q0 69 29 88t92 19q7 0 18 -3q10 -4 15 -4q40 0 110 20l43 11q68 14 175.5 85t107.5 122q0 35 -68 35q-21 0 -111 -13t-114 -22q-24 -10 -43 -10q-72 0 -72 69q0 21 25 51.5t47 30.5l39 -6q33 0 135.5 75.5t102.5 127.5
q0 13 -19 16z" />
    <glyph glyph-name="acute" unicode="&#xb4;" horiz-adv-x="762" 
d="M625 1337q-4 -2 -10 -6q-7 -4 -18 -9q-67 -31 -278 -192q-87 -67 -132 -96l-23 -14q-26 0 -46 25t-20 51q0 51 153.5 167t275.5 184q46 26 69 45q17 14 18 11q17 0 39.5 -37t22.5 -57q0 -12 -19 -38t-32 -34z" />
    <glyph glyph-name="uni00B5" unicode="&#xb5;" horiz-adv-x="1518" 
d="M1368 66q-39 -37 -151 -37q-68 0 -118.5 106.5t-70.5 239.5q-81 -116 -211 -222t-205 -106q-28 0 -68.5 10t-72.5 27t-63 127q0 -69 -27 -182q-35 -134 -59 -302q-18 -122 -74 -122q-43 0 -63.5 44.5t-20.5 92.5q0 22 6 58q7 29 10 61q10 97 45 249q27 117 73 400
q10 62 26 125q15 68 22 118q28 176 58.5 227.5t89.5 51.5q69 0 69 -117q0 -50 -40 -154q-25 -72 -47.5 -191.5t-22.5 -202.5q0 -32 37 -90t63 -58q145 0 278.5 116t168 205t61.5 235q9 53 18 83q23 136 68 129q26 0 77.5 -16t51.5 -37q0 -33 -21 -98q-4 -14 -10 -40l-18 -65
q-43 -160 -43 -213q0 -93 19.5 -211.5t68.5 -118.5q20 0 51 10q15 5 55 21q17 7 17 8q19 0 31 -18t12 -39q0 -45 -70 -104z" />
    <glyph glyph-name="paragraph" unicode="&#xb6;" horiz-adv-x="1370" 
d="M1178 -68q-6 -11 -33.5 -23.5t-40.5 -12.5q-74 0 -108.5 181.5t-34.5 305.5q0 289 84 697q26 124 26 167q0 37 -70 37q-62 0 -229 -21.5t-293.5 -86t-168.5 -135.5t-42 -121q0 -37 59 -131.5t115 -94.5q34 0 45 55.5t11 202.5q0 129 77 129q46 0 46 -63q0 -61 -8 -159
q-7 -96 -9 -146q12 -19 33 -19l41 6q70 0 70 -65q0 -32 -14 -43t-44 -16q-45 -7 -59.5 -22t-23.5 -67.5t-9 -196.5v-77q0 -142 10 -246q10 -76 10 -94q0 -28 -24 -50t-51 -22q-18 0 -47.5 63t-44.5 169t-15 143q0 36 16 196q3 45 3 96t-9.5 65t-47.5 28q-60 24 -166.5 122
t-106.5 228q0 80 49.5 195.5t236 192t283.5 92.5l56 10q166 31 270 31q71 0 152 -41.5t81 -94.5q0 -34 -28 -50t-34 -29t-9 -69q-2 -24 -6 -56l-9 -82q-10 -96 -32 -230q-31 -177 -31 -368q0 -280 53 -426q20 -48 21 -54z" />
    <glyph glyph-name="uni00B7" unicode="&#xb7;" horiz-adv-x="524" 
d="M274 545q-25 0 -79 33t-54 57q0 21 29 72.5t51.5 62t93.5 10.5q32 0 55 -64.5t23 -94.5q0 -14 -13 -41t-42 -31t-64 -4z" />
    <glyph glyph-name="cedilla" unicode="&#xb8;" horiz-adv-x="637" 
d="M49 -462q0 26 21.5 53.5t44.5 27.5q17 0 52 -24q60 -51 98 -51q112 0 143.5 35t31.5 90q0 38 -25.5 63.5t-63.5 25.5q-13 0 -47 -13q-21 -10 -49 -10q-56 0 -56 52l101 262q8 31 69 31q16 0 28.5 -22.5t12.5 -47.5q0 -10 -7 -21q-26 -43 -34 -112q23 -20 80 -24
q43 0 79 -17t57 -61.5t21 -140.5q0 -49 -93.5 -132t-260.5 -83q-24 0 -69 15q-42 14 -73 29q-14 7 -13 7q-48 25 -48 68z" />
    <glyph glyph-name="onesuperior" unicode="&#xb9;" horiz-adv-x="610" 
d="M274 649q-28 0 -50.5 17t-22.5 39q0 67 22 265.5t55 333t66.5 182.5t79.5 48q19 0 30 -20t11 -39q0 -9 -20 -52q-8 -16 -23 -118l-35 -219q-19 -118 -22 -220q-2 -122 -21 -169.5t-70 -47.5z" />
    <glyph glyph-name="ordmasculine" unicode="&#xba;" horiz-adv-x="895" 
d="M307 713q-188 0 -188 219q0 125 82 264q24 40 37 68q57 119 134 172t193 53q33 0 49.5 -11t38.5 -57q12 -20 43 -42q97 -68 97 -244q0 -51 -31 -153t-186 -185.5t-269 -83.5zM543 1362q-116 0 -204.5 -160.5t-88.5 -290.5q0 -21 38 -49t64 -28q15 0 57 19.5t111 58
t89 56.5t33 67t13 91q0 96 -51 131q-22 15 -25 21t-6 26q-8 63 -30 58z" />
    <glyph glyph-name="guillemotright" unicode="&#xbb;" horiz-adv-x="1493" 
d="M908 201q-46 -65 -87 -65q-30 0 -52.5 23.5t-22.5 56.5q-15 84 482 386q-3 10 -143 120q-152 117 -192 151t-40 51q-7 14 21.5 56t46.5 42q37 0 118 -90q189 -199 348 -241q74 -20 74 -51q0 -45 -24 -62t-144 -82q-18 -10 -26 -17q-67 -57 -130 -95q-150 -106 -229 -183z
M748 558q-19 -20 -202 -147q-72 -50 -112 -89q-70 -68 -98 -89q-8 -6 -24 -20q-43 -48 -65 -52q-58 -6 -71.5 3t-19.5 34t-6 31q0 25 15 71q41 44 292 193q78 52 95.5 70.5t17.5 40.5q0 24 -190 168q-48 38 -80 67q-32 28 -55 47q-29 30 -42 57q0 32 25 54.5t50 22.5
q52 0 188 -140q38 -38 67 -64l49 -46q51 -37 79 -49q14 0 59 -46.5t45 -67.5q0 -36 -17 -49z" />
    <glyph glyph-name="onequarter" unicode="&#xbc;" horiz-adv-x="1700" 
d="M246 754q-36 0 -61 43t-25 84q0 25 19 102q16 68 22 117q5 52 21 145q16 97 20 141q2 40 24.5 108.5t57.5 68.5q36 0 56.5 -26t20.5 -64q0 -34 -13 -97q-18 -88 -44.5 -262.5t-32.5 -243.5q-10 -116 -65 -116zM287 172q72 163 330 561q79 121 171 300t119 239
q135 291 248 291q27 0 49.5 -18.5t22.5 -47.5q0 -20 -107 -153q-101 -125 -126 -178.5t-79 -174.5q-63 -147 -127 -239q-139 -200 -224.5 -350t-165.5 -341q-75 -174 -136 -174q-28 0 -48.5 20.5t-20.5 47.5q0 22 64 155q14 28 21 44q7 15 9 18zM1221 225q-10 19 -35 19
q-52 0 -152 -22q-100 -21 -135 -21q-29 0 -52.5 19.5t-23.5 49.5q0 27 180 222.5t268 259.5q29 23 42 43q22 38 33 54.5t53 16.5q9 0 25 -13t16 -24q0 -67 -31 -210q-33 -153 -33 -216q12 -24 102 -24q130 0 166.5 -7t36.5 -38q0 -20 -23 -43t-42 -23l-117 2q-65 0 -105 -11
t-40 -32v-225q0 -11 7 -32q7 -22 7 -40q0 -24 -25.5 -44.5t-50.5 -20.5q-44 0 -57.5 47t-13.5 127v186zM1274 584l-10 6q-168 -148 -226 -240l6 -14q169 12 197 26q12 36 21 121q9 88 12 101z" />
    <glyph glyph-name="onehalf" unicode="&#xbd;" horiz-adv-x="1747" 
d="M301 741q-8 -14 -55 -14q-74 0 -74 100q-2 7 15 50q10 25 32 157q13 80 23 109q17 49 36 151q37 199 109 199q23 0 38 -21.5t15 -46.5q0 -14 -14.5 -110.5t-41.5 -184.5q-60 -197 -60 -309q0 -19 -23 -80zM225 231q9 13 25 50q57 135 217 313q20 23 58 82q38 61 69 86
q73 65 141 143.5t93 124.5q6 11 10 17l30 47q123 198 168 239t101 41q24 0 24 -35q0 -68 -98 -194q-32 -42 -94 -140q-85 -135 -163 -225t-164 -183q-148 -166 -198 -234t-75 -130q-51 -114 -90.5 -164.5t-85.5 -50.5q-25 0 -42.5 17.5t-17.5 44.5q0 42 81 137q9 10 11 14z
M1010 561q-49 -16 -72 -16q-25 0 -43 28.5t-18 47.5q0 51 201 94t284 43q59 0 104 -53t45 -76q0 -108 -119.5 -236.5t-270.5 -178.5q-117 -38 -115 -69q50 0 124 12q259 42 433 42q8 0 56 -5q30 -3 41 -10.5t31.5 -39.5t20.5 -60q0 -51 -70 -51q-36 0 -101 13
q-67 13 -130 13q-81 0 -245 -22q-154 -21 -228 -21q-27 0 -78 -12t-76 -12q-33 0 -63.5 26t-30.5 58q0 48 132.5 124.5t203.5 102.5q74 26 209 130.5t135 174.5q0 15 -53 15q-68 0 -133 -17q-172 -45 -174 -45z" />
    <glyph glyph-name="threequarters" unicode="&#xbe;" horiz-adv-x="1794" 
d="M398 -39q-28 0 -48.5 25.5t-20.5 52.5q0 110 307 543q84 119 213 345q75 133 110.5 180t189.5 233q53 64 81 106q134 194 188 194q35 0 35 -57q0 -53 -215 -322q-147 -184 -210 -276.5t-200 -316.5q-56 -91 -102 -158q-120 -175 -158 -244t-74 -169q-49 -136 -96 -136z
M611 1114q-12 12 -43 12q-32 0 -97 -6q-64 -6 -97 -6q-103 0 -103 72q0 32 158 113q140 70 174 104q-9 24 -33 24q-186 0 -354 -66q-58 -20 -82 -20q-19 0 -36 21t-17 46q0 36 133.5 79t322.5 43q210 0 210 -86q0 -58 -74 -117.5t-125 -78.5q-37 -13 -37 -19q0 -12 47 -12
q57 -3 113.5 -15.5t56.5 -66.5q0 -61 -61.5 -124.5t-243.5 -154.5q-5 -2 -19 -12q-85 -62 -118 -62q-27 0 -49.5 25t-22.5 51q0 35 182 111q182 85 215 145zM1656 459q-1 -1 -38 -7q-38 -7 -46 -10q-88 -5 -96 -260q-3 -119 -15 -160.5t-45 -41.5q-37 0 -60.5 31.5
t-23.5 72.5q0 25 48 254q5 26 5 37q0 35 -26 35q-42 0 -113.5 -15t-85.5 -24t-38 -32q-28 -28 -56 -28q-31 0 -51.5 23t-20.5 55q0 38 187 272t229 234q39 0 57 53q20 46 40.5 62t60.5 16q14 0 31.5 -17.5t17.5 -31.5q0 -39 -59 -129q6 -19 6 -60q0 -36 -11 -115
q-10 -72 -10 -110q0 -12 12 -12q12 3 50 17q38 16 65 16q13 0 25 -28t12 -44q0 -36 -51 -53zM1445 768q-171 -161 -215 -266q26 5 38 8l32 7q18 4 65.5 17.5t52.5 25.5t13 41t8 52q0 85 6 115z" />
    <glyph glyph-name="questiondown" unicode="&#xbf;" horiz-adv-x="987" 
d="M680 1051q-23 0 -56.5 32.5t-33.5 65.5q0 158 102 158q57 0 69.5 -54.5t12.5 -113.5q0 -14 -37.5 -51t-56.5 -37zM537 342l6 23q-23 75 -23 178q0 233 135 233q62 0 62 -89q0 -21 -16 -50q-27 -46 -32 -75.5t-5 -90.5q0 -5 35 -99q36 -90 36 -124q0 -31 -33 -59.5
t-71 -28.5q-28 0 -76 39q-132 -15 -240 -127.5t-108 -231.5q0 -168 184 -168q93 0 224.5 50.5t211.5 123.5q37 35 89 35q17 0 34 -20t17 -37q0 -39 -82.5 -112t-195.5 -140.5t-331 -67.5q-3 0 -19 4q-16 3 -26 3q-92 0 -170.5 80t-78.5 170q0 211 88 356t233 188l19 6
q89 31 133 31z" />
    <glyph glyph-name="Agrave" unicode="&#xc0;" horiz-adv-x="1592" 
d="M968 1431q9 -7 9 -49q0 -43 -9 -65l13 -42q33 -118 65 -194q40 -102 79 -219q89 -269 185.5 -460.5t176.5 -269.5q50 -49 62.5 -67.5t12.5 -43.5q0 -44 -29.5 -74.5t-70.5 -30.5q-128 0 -310 403q-73 159 -88 159q-48 0 -206.5 -29t-289.5 -68q-75 -23 -95 -23
q-25 0 -52 25q-5 4 -12 4q-22 0 -95 -130q-120 -215 -151.5 -256.5t-69.5 -41.5q-27 0 -65 31.5t-38 64.5q0 32 36 86.5t147 219.5q198 293 334 550q215 409 273 482.5t89 73.5q66 0 99 -36zM1029 636q-35 80 -103 293q-74 227 -94 276q-55 -116 -170 -329l-181 -343
q21 16 111 26q69 7 120 18q273 55 317 59zM756 1834q-8 5 -30 22l-63 46q-163 121 -163 177q0 20 33.5 44.5t55.5 24.5q14 0 58.5 -38t107.5 -97.5t172.5 -145.5t127 -111.5t17.5 -50.5q0 -35 -25 -62t-57 -27q-11 0 -49 38z" />
    <glyph glyph-name="Aacute" unicode="&#xc1;" horiz-adv-x="1592" 
d="M968 1431q9 -7 9 -49q0 -43 -9 -65l13 -42q33 -118 65 -194q40 -102 79 -219q89 -269 185.5 -460.5t176.5 -269.5q50 -49 62.5 -67.5t12.5 -43.5q0 -44 -29.5 -74.5t-70.5 -30.5q-128 0 -310 403q-73 159 -88 159q-48 0 -206.5 -29t-289.5 -68q-75 -23 -95 -23
q-25 0 -52 25q-5 4 -12 4q-22 0 -95 -130q-120 -215 -151.5 -256.5t-69.5 -41.5q-27 0 -65 31.5t-38 64.5q0 32 36 86.5t147 219.5q198 293 334 550q215 409 273 482.5t89 73.5q66 0 99 -36zM1029 636q-35 80 -103 293q-74 227 -94 276q-55 -116 -170 -329l-181 -343
q21 16 111 26q69 7 120 18q273 55 317 59zM1319 1978q-4 -2 -10 -6q-7 -4 -18 -9q-67 -31 -278 -192q-87 -67 -132 -96l-23 -14q-26 0 -46 25t-20 51q0 51 153.5 167t275.5 184q46 26 69 45q17 14 18 11q17 0 39.5 -37t22.5 -57q0 -12 -19 -38t-32 -34z" />
    <glyph glyph-name="Acircumflex" unicode="&#xc2;" horiz-adv-x="1592" 
d="M968 1431q9 -7 9 -49q0 -43 -9 -65l13 -42q33 -118 65 -194q40 -102 79 -219q89 -269 185.5 -460.5t176.5 -269.5q50 -49 62.5 -67.5t12.5 -43.5q0 -44 -29.5 -74.5t-70.5 -30.5q-128 0 -310 403q-73 159 -88 159q-48 0 -206.5 -29t-289.5 -68q-75 -23 -95 -23
q-25 0 -52 25q-5 4 -12 4q-22 0 -95 -130q-120 -215 -151.5 -256.5t-69.5 -41.5q-27 0 -65 31.5t-38 64.5q0 32 36 86.5t147 219.5q198 293 334 550q215 409 273 482.5t89 73.5q66 0 99 -36zM1029 636q-35 80 -103 293q-74 227 -94 276q-55 -116 -170 -329l-181 -343
q21 16 111 26q69 7 120 18q273 55 317 59zM1137 1859q6 -5 25 -27t51 -57q65 -71 74.5 -94t9.5 -40q0 -27 -20.5 -48t-42.5 -21q-42 0 -120 114q-25 39 -73 96q-46 56 -72 104q-29 70 -49 70q-23 0 -148 -144q-92 -105 -141 -153t-75 -48q-56 0 -56 95q0 43 17 56l107 101
q44 42 84 76q76 65 130 129q64 76 107 76q20 0 43.5 -32.5t90.5 -152.5q54 -99 58 -100z" />
    <glyph glyph-name="Atilde" unicode="&#xc3;" horiz-adv-x="1592" 
d="M968 1431q9 -7 9 -49q0 -43 -9 -65l13 -42q33 -118 65 -194q40 -102 79 -219q89 -269 185.5 -460.5t176.5 -269.5q50 -49 62.5 -67.5t12.5 -43.5q0 -44 -29.5 -74.5t-70.5 -30.5q-128 0 -310 403q-73 159 -88 159q-48 0 -206.5 -29t-289.5 -68q-75 -23 -95 -23
q-25 0 -52 25q-5 4 -12 4q-22 0 -95 -130q-120 -215 -151.5 -256.5t-69.5 -41.5q-27 0 -65 31.5t-38 64.5q0 32 36 86.5t147 219.5q198 293 334 550q215 409 273 482.5t89 73.5q66 0 99 -36zM1029 636q-35 80 -103 293q-74 227 -94 276q-55 -116 -170 -329l-181 -343
q21 16 111 26q69 7 120 18q273 55 317 59zM899 1785q-17 16 -30 31q-47 49 -93 49q-34 0 -62 -21t-83 -85q-50 -64 -74.5 -84t-55.5 -20q-49 0 -49 53q0 71 111 184.5t184 113.5q68 0 102 -13.5t79 -58.5q39 -41 71 -63q15 -10 31 -22q63 -47 89 -47q27 0 50 19.5t75 90.5
q46 65 64 65q54 0 54 -59q0 -39 -76 -144.5t-151 -105.5q-79 0 -129.5 31t-94.5 75q-10 10 -12 11z" />
    <glyph glyph-name="Adieresis" unicode="&#xc4;" horiz-adv-x="1592" 
d="M968 1431q9 -7 9 -49q0 -43 -9 -65l13 -42q33 -118 65 -194q40 -102 79 -219q89 -269 185.5 -460.5t176.5 -269.5q50 -49 62.5 -67.5t12.5 -43.5q0 -44 -29.5 -74.5t-70.5 -30.5q-128 0 -310 403q-73 159 -88 159q-48 0 -206.5 -29t-289.5 -68q-75 -23 -95 -23
q-25 0 -52 25q-5 4 -12 4q-22 0 -95 -130q-120 -215 -151.5 -256.5t-69.5 -41.5q-27 0 -65 31.5t-38 64.5q0 32 36 86.5t147 219.5q198 293 334 550q215 409 273 482.5t89 73.5q66 0 99 -36zM1029 636q-35 80 -103 293q-74 227 -94 276q-55 -116 -170 -329l-181 -343
q21 16 111 26q69 7 120 18q273 55 317 59zM1104 1660q-38 0 -64.5 26.5t-26.5 63.5q0 39 18.5 57t97.5 37l15 4q28 8 48.5 -14t20.5 -63q0 -111 -109 -111zM729 1633q-23 0 -66.5 15t-43.5 38q0 125 69 125q64 0 102.5 -35t38.5 -98q0 -45 -100 -45z" />
    <glyph glyph-name="Aring" unicode="&#xc5;" horiz-adv-x="1592" 
d="M778 1389l4 6q-137 59 -137 210q0 83 81.5 161.5t220.5 78.5q26 0 86.5 -26.5t86 -91.5t25.5 -98q0 -65 -48.5 -128t-120.5 -97l1 -11q4 -45 -9 -76l13 -42q33 -118 65 -194q40 -102 79 -219q89 -269 185.5 -460.5t176.5 -269.5q50 -49 62.5 -67.5t12.5 -43.5
q0 -44 -29.5 -74.5t-70.5 -30.5q-128 0 -310 403q-73 159 -88 159q-48 0 -206.5 -29t-289.5 -68q-75 -23 -95 -23q-25 0 -52 25q-5 4 -12 4q-22 0 -95 -130q-120 -215 -151.5 -256.5t-69.5 -41.5q-27 0 -65 31.5t-38 64.5q0 32 36 86.5t147 219.5q198 293 334 550
q219 417 271 478zM916 1732h-16q-68 0 -94.5 -47t-26.5 -88q0 -39 31.5 -80t70.5 -41q35 0 86 32.5t51 106.5q0 40 -20 78.5t-82 38.5zM1029 636q-35 80 -103 293q-74 227 -94 276q-55 -116 -170 -329l-181 -343q21 16 111 26q69 7 120 18q273 55 317 59z" />
    <glyph glyph-name="AE" unicode="&#xc6;" horiz-adv-x="2273" 
d="M1244 1444l7 -63l86 -5h4q23 0 222 19t475 66q29 5 35 5l15 1q78 5 107.5 -15.5t36.5 -79.5q0 -28 -26 -54t-41 -28q-3 -1 -54.5 1t-105.5 -10q-54 -13 -96 -16q-29 -2 -63 -8q-43 -8 -170 -9q-191 -3 -240.5 -26t-55.5 -95q-5 -55 -21 -121q-49 -197 -49 -262l15 -1
q47 -3 190 13t214 32q146 35 223 35q125 0 125 -67q0 -82 -83.5 -100.5t-348.5 -47.5q-324 -36 -345.5 -64.5t-45.5 -183.5t-24 -198v-11q5 -50 64 -57l18 -1q55 -3 131 9l192 28q107 15 217 35q137 29 174 29q28 0 62.5 -23.5t34.5 -74.5q0 -37 -18 -51q-102 -45 -263 -50
q-139 -5 -434 -47q-149 -22 -196 -22q-117 0 -146.5 18.5t-35.5 90.5l-4 34v4q0 16 18 65q25 71 55 253q-2 8 -3 17l-4 18q-200 -35 -283 -35q-19 0 -111 27q-92 26 -112 26q-39 0 -169 -168q-132 -165 -202 -235l-42 -45q-79 -82 -161 -82q-32 0 -63 31t-31 63
q0 23 27 54.5t49 31.5q58 0 201 178q60 77 123 136q85 81 134 132l72 74q82 84 176 205q24 31 49 61q114 137 209.5 322t102.5 238q64 49 88 49q23 0 95 -45zM1199 1214q-167 -231 -273 -350q-191 -213 -191 -274q0 -12 45 -25.5t56 -13.5q68 0 296 50q5 33 8 64
q8 83 22 155q44 239 44 378q0 4 -7 16z" />
    <glyph glyph-name="Ccedilla" unicode="&#xc7;" horiz-adv-x="1432" 
d="M485 -81q-9 -24 -15 -74q23 -20 80 -24q79 0 119 -52.5t40 -166.5q0 -48 -95 -131.5t-261 -83.5q-24 0 -69 15q-42 14 -73 29q-14 7 -13 7q-48 25 -48 68q0 26 21.5 53.5t44.5 27.5q17 0 52 -24q60 -51 98 -51q114 0 145.5 37t31.5 88q0 38 -26.5 62.5t-64.5 24.5
q-13 0 -47 -13q-17 -8 -49 -8q-56 0 -56 52l76 199q-261 115 -261 410q0 405 348.5 788.5t671.5 383.5q121 0 193.5 -74.5t72.5 -173.5q0 -92 -10.5 -145t-63.5 -89.5t-85 -36.5q-23 0 -40 20t-17 54q0 23 17 96q17 72 17 107q0 102 -89 102q-138 0 -341.5 -158.5
t-345.5 -402t-142 -448.5q0 -137 81.5 -227.5t232.5 -90.5q87 0 211.5 43.5t228.5 116.5t123 73q39 0 39 -48q0 -50 -111 -143t-256.5 -148t-266.5 -55q-45 0 -98 11z" />
    <glyph glyph-name="Egrave" unicode="&#xc8;" horiz-adv-x="1401" 
d="M1293 1290q-3 -1 -54.5 1t-105.5 -10q-54 -13 -96 -16q-29 -2 -63 -8q-43 -8 -170 -9q-191 -3 -240.5 -26t-55.5 -95q-5 -55 -21 -121q-49 -197 -49 -262l15 -1q47 -3 190 13t214 32q146 35 223 35q125 0 125 -67q0 -82 -83.5 -100.5t-348.5 -47.5q-324 -36 -345.5 -64.5
t-45.5 -183.5t-24 -198v-11q5 -50 64 -57l18 -1q55 -3 131 9l192 28q107 15 217 35q137 29 174 29q28 0 62.5 -23.5t34.5 -74.5q0 -37 -18 -51q-102 -45 -263 -50q-139 -5 -434 -47q-149 -22 -196 -22q-117 0 -146.5 18.5t-35.5 90.5l-4 34v4q0 16 18 65q25 71 58.5 270
t43.5 315q5 40 16 97q44 239 44 378q0 7 -20 37q-5 6 -7 10q-7 23 -13 38q-7 14 -7 33v10q0 22 27 39t52 17h3q42 0 96 -6h4q23 0 222 19t475 66q29 5 35 5l15 1q78 5 107.5 -15.5t36.5 -79.5q0 -28 -26 -54t-41 -28zM720 1804q-8 5 -30 22l-63 46q-163 121 -163 177
q0 20 33.5 44.5t55.5 24.5q14 0 58.5 -38t107.5 -97.5t172.5 -145.5t127 -111.5t17.5 -50.5q0 -35 -25 -62t-57 -27q-11 0 -49 38z" />
    <glyph glyph-name="Eacute" unicode="&#xc9;" horiz-adv-x="1401" 
d="M1293 1290q-3 -1 -54.5 1t-105.5 -10q-54 -13 -96 -16q-29 -2 -63 -8q-43 -8 -170 -9q-191 -3 -240.5 -26t-55.5 -95q-5 -55 -21 -121q-49 -197 -49 -262l15 -1q47 -3 190 13t214 32q146 35 223 35q125 0 125 -67q0 -82 -83.5 -100.5t-348.5 -47.5q-324 -36 -345.5 -64.5
t-45.5 -183.5t-24 -198v-11q5 -50 64 -57l18 -1q55 -3 131 9l192 28q107 15 217 35q137 29 174 29q28 0 62.5 -23.5t34.5 -74.5q0 -37 -18 -51q-102 -45 -263 -50q-139 -5 -434 -47q-149 -22 -196 -22q-117 0 -146.5 18.5t-35.5 90.5l-4 34v4q0 16 18 65q25 71 58.5 270
t43.5 315q5 40 16 97q44 239 44 378q0 7 -20 37q-5 6 -7 10q-7 23 -13 38q-7 14 -7 33v10q0 22 27 39t52 17h3q42 0 96 -6h4q23 0 222 19t475 66q29 5 35 5l15 1q78 5 107.5 -15.5t36.5 -79.5q0 -28 -26 -54t-41 -28zM1286 1897q-4 -2 -10 -6q-7 -4 -18 -9
q-67 -31 -278 -192q-87 -67 -132 -96l-23 -14q-26 0 -46 25t-20 51q0 51 153.5 167t275.5 184q46 26 69 45q17 14 18 11q17 0 39.5 -37t22.5 -57q0 -12 -19 -38t-32 -34z" />
    <glyph glyph-name="Ecircumflex" unicode="&#xca;" horiz-adv-x="1401" 
d="M1293 1290q-3 -1 -54.5 1t-105.5 -10q-54 -13 -96 -16q-29 -2 -63 -8q-43 -8 -170 -9q-191 -3 -240.5 -26t-55.5 -95q-5 -55 -21 -121q-49 -197 -49 -262l15 -1q47 -3 190 13t214 32q146 35 223 35q125 0 125 -67q0 -82 -83.5 -100.5t-348.5 -47.5q-324 -36 -345.5 -64.5
t-45.5 -183.5t-24 -198v-11q5 -50 64 -57l18 -1q55 -3 131 9l192 28q107 15 217 35q137 29 174 29q28 0 62.5 -23.5t34.5 -74.5q0 -37 -18 -51q-102 -45 -263 -50q-139 -5 -434 -47q-149 -22 -196 -22q-117 0 -146.5 18.5t-35.5 90.5l-4 34v4q0 16 18 65q25 71 58.5 270
t43.5 315q5 40 16 97q44 239 44 378q0 7 -20 37q-5 6 -7 10q-7 23 -13 38q-7 14 -7 33v10q0 22 27 39t52 17h3q42 0 96 -6h4q23 0 222 19t475 66q29 5 35 5l15 1q78 5 107.5 -15.5t36.5 -79.5q0 -28 -26 -54t-41 -28zM1146 1878q6 -5 25 -27t51 -57q65 -71 74.5 -94t9.5 -40
q0 -27 -20.5 -48t-42.5 -21q-42 0 -120 114q-25 39 -73 96q-46 56 -72 104q-29 70 -49 70q-23 0 -148 -144q-92 -105 -141 -153t-75 -48q-56 0 -56 95q0 43 17 56l107 101q44 42 84 76q76 65 130 129q64 76 107 76q20 0 43.5 -32.5t90.5 -152.5q54 -99 58 -100z" />
    <glyph glyph-name="Edieresis" unicode="&#xcb;" horiz-adv-x="1401" 
d="M1293 1290q-3 -1 -54.5 1t-105.5 -10q-54 -13 -96 -16q-29 -2 -63 -8q-43 -8 -170 -9q-191 -3 -240.5 -26t-55.5 -95q-5 -55 -21 -121q-49 -197 -49 -262l15 -1q47 -3 190 13t214 32q146 35 223 35q125 0 125 -67q0 -82 -83.5 -100.5t-348.5 -47.5q-324 -36 -345.5 -64.5
t-45.5 -183.5t-24 -198v-11q5 -50 64 -57l18 -1q55 -3 131 9l192 28q107 15 217 35q137 29 174 29q28 0 62.5 -23.5t34.5 -74.5q0 -37 -18 -51q-102 -45 -263 -50q-139 -5 -434 -47q-149 -22 -196 -22q-117 0 -146.5 18.5t-35.5 90.5l-4 34v4q0 16 18 65q25 71 58.5 270
t43.5 315q5 40 16 97q44 239 44 378q0 7 -20 37q-5 6 -7 10q-7 23 -13 38q-7 14 -7 33v10q0 22 27 39t52 17h3q42 0 96 -6h4q23 0 222 19t475 66q29 5 35 5l15 1q78 5 107.5 -15.5t36.5 -79.5q0 -28 -26 -54t-41 -28zM1109 1634q-38 0 -64.5 26.5t-26.5 63.5q0 39 18.5 57
t97.5 37l15 4q28 8 48.5 -14t20.5 -63q0 -111 -109 -111zM734 1607q-23 0 -66.5 15t-43.5 38q0 125 69 125q64 0 102.5 -35t38.5 -98q0 -45 -100 -45z" />
    <glyph glyph-name="Igrave" unicode="&#xcc;" horiz-adv-x="649" 
d="M538 1325q-6 -39 -67 -279q-29 -113 -38 -190q-6 -52 -15 -113q-40 -256 -40 -350q0 -141 17 -277q10 -79 -28 -114t-76 -35q-54 0 -75 60.5t-21 195.5q0 141 40 390q14 94 16 113q2 34 8 70q5 35 8 70q6 93 36 243q22 113 32 199q7 60 16 81t46.5 46t56.5 25
q42 0 63 -40.5t21 -94.5zM416 1875q-8 5 -30 22l-63 46q-163 121 -163 177q0 20 33.5 44.5t55.5 24.5q14 0 58.5 -38t107.5 -97.5t172.5 -145.5t127 -111.5t17.5 -50.5q0 -35 -25 -62t-57 -27q-11 0 -49 38z" />
    <glyph glyph-name="Iacute" unicode="&#xcd;" horiz-adv-x="649" 
d="M538 1325q-6 -39 -67 -279q-29 -113 -38 -190q-6 -52 -15 -113q-40 -256 -40 -350q0 -141 17 -277q10 -79 -28 -114t-76 -35q-54 0 -75 60.5t-21 195.5q0 141 40 390q14 94 16 113q2 34 8 70q5 35 8 70q6 93 36 243q22 113 32 199q7 60 16 81t46.5 46t56.5 25
q42 0 63 -40.5t21 -94.5zM859 1970q-4 -2 -10 -6q-7 -4 -18 -9q-67 -31 -278 -192q-87 -67 -132 -96l-23 -14q-26 0 -46 25t-20 51q0 51 153.5 167t275.5 184q46 26 69 45q17 14 18 11q17 0 39.5 -37t22.5 -57q0 -12 -19 -38t-32 -34z" />
    <glyph glyph-name="Icircumflex" unicode="&#xce;" horiz-adv-x="649" 
d="M538 1325q-6 -39 -67 -279q-29 -113 -38 -190q-6 -52 -15 -113q-40 -256 -40 -350q0 -141 17 -277q10 -79 -28 -114t-76 -35q-54 0 -75 60.5t-21 195.5q0 141 40 390q14 94 16 113q2 34 8 70q5 35 8 70q6 93 36 243q22 113 32 199q7 60 16 81t46.5 46t56.5 25
q42 0 63 -40.5t21 -94.5zM746 1839q6 -5 25 -27t51 -57q65 -71 74.5 -94t9.5 -40q0 -27 -20.5 -48t-42.5 -21q-42 0 -120 114q-25 39 -73 96q-46 56 -72 104q-29 70 -49 70q-23 0 -148 -144q-92 -105 -141 -153t-75 -48q-56 0 -56 95q0 43 17 56l107 101q44 42 84 76
q76 65 130 129q64 76 107 76q20 0 43.5 -32.5t90.5 -152.5q54 -99 58 -100z" />
    <glyph glyph-name="Idieresis" unicode="&#xcf;" horiz-adv-x="649" 
d="M538 1325q-6 -39 -67 -279q-29 -113 -38 -190q-6 -52 -15 -113q-40 -256 -40 -350q0 -141 17 -277q10 -79 -28 -114t-76 -35q-54 0 -75 60.5t-21 195.5q0 141 40 390q14 94 16 113q2 34 8 70q5 35 8 70q6 93 36 243q22 113 32 199q7 60 16 81t46.5 46t56.5 25
q42 0 63 -40.5t21 -94.5zM699 1695q-38 0 -64.5 26.5t-26.5 63.5q0 39 18.5 57t97.5 37l15 4q28 8 48.5 -14t20.5 -63q0 -111 -109 -111zM324 1668q-23 0 -66.5 15t-43.5 38q0 125 69 125q64 0 102.5 -35t38.5 -98q0 -45 -100 -45z" />
    <glyph glyph-name="Eth" unicode="&#xd0;" horiz-adv-x="1627" 
d="M252 626q-65 -22 -84 -25q-45 0 -77.5 21.5t-32.5 62.5q0 20 21.5 51t40.5 39t60 20.5t95 23.5q27 203 37 256q18 96 18 132q0 39 -45 51q-82 20 -82 69q0 37 32.5 72.5t69.5 35.5l140 -4q98 0 258 13q159 13 238 13q276 0 443.5 -155.5t167.5 -409.5
q0 -279 -239.5 -508.5t-682.5 -335.5q-175 -42 -237 -85q-82 -56 -136 -56q-38 0 -67.5 40.5t-29.5 64.5q0 10 20 52q21 45 29.5 91t14.5 165q4 106 28 306zM511 1274q-17 -96 -66 -427q176 23 304 23q120 0 164 -18t44 -68q0 -39 -27 -66t-64 -27l-103 7q-66 5 -151 5
q-62 0 -190 -22l-4 -33q-26 -251 -26 -383q0 -65 13 -98q8 -7 31 -7q64 0 335 84t440 259t169 398q0 185 -130.5 295.5t-344.5 110.5q-130 0 -313 -24q-41 -6 -81 -9z" />
    <glyph glyph-name="Ntilde" unicode="&#xd1;" horiz-adv-x="1655" 
d="M1179 255q61 238 119.5 585.5t58.5 485.5q0 73 11.5 99t48 45t79.5 19q28 0 48 -40t20 -95q0 -43 -32 -152q-63 -248 -124 -588.5t-61 -393.5q0 -107 3 -135q4 -52 -33.5 -82t-98.5 -30q-36 0 -48.5 9.5t-52 53.5t-49.5 85q-8 38 -61 100q-288 368 -518 804
q-65 -231 -121 -641l-25 -167q-4 -25 -3.5 -100.5t-8 -101.5t-40 -59.5t-60.5 -33.5q-67 0 -79 57.5t-12 88.5q0 73 44 238q44 164 108.5 505t64.5 433l-1 55q1 29 11.5 51.5t40 38.5t58.5 16q27 0 50 -11.5t33 -35t24 -87.5q40 -194 247.5 -518.5t358.5 -497.5zM998 1793
q-17 16 -30 31q-47 49 -93 49q-34 0 -62 -21t-83 -85q-50 -64 -74.5 -84t-55.5 -20q-49 0 -49 53q0 71 111 184.5t184 113.5q68 0 102 -13.5t79 -58.5q39 -41 71 -63q15 -10 31 -22q63 -47 89 -47q27 0 50 19.5t75 90.5q46 65 64 65q54 0 54 -59q0 -39 -76 -144.5
t-151 -105.5q-79 0 -129.5 31t-94.5 75q-10 10 -12 11z" />
    <glyph glyph-name="Ograve" unicode="&#xd2;" horiz-adv-x="1646" 
d="M521 -72q-160 0 -284.5 159t-124.5 330q0 202 123 461t321 422.5t412 163.5q164 0 273 -40.5t196 -116.5t116 -156t29 -224q0 -136 -82 -318t-255.5 -355t-328.5 -249.5t-395 -76.5zM295 426q0 -139 88 -234t204 -95q302 0 555 278t253 590q0 119 -46.5 187.5t-149.5 117
t-231 48.5q-224 0 -448.5 -304t-224.5 -588zM914 1856q-8 5 -30 22l-63 46q-163 121 -163 177q0 20 33.5 44.5t55.5 24.5q14 0 58.5 -38t107.5 -97.5t172.5 -145.5t127 -111.5t17.5 -50.5q0 -35 -25 -62t-57 -27q-11 0 -49 38z" />
    <glyph glyph-name="Oacute" unicode="&#xd3;" horiz-adv-x="1646" 
d="M521 -72q-160 0 -284.5 159t-124.5 330q0 202 123 461t321 422.5t412 163.5q164 0 273 -40.5t196 -116.5t116 -156t29 -224q0 -136 -82 -318t-255.5 -355t-328.5 -249.5t-395 -76.5zM295 426q0 -139 88 -234t204 -95q302 0 555 278t253 590q0 119 -46.5 187.5t-149.5 117
t-231 48.5q-224 0 -448.5 -304t-224.5 -588zM1452 1929q-4 -2 -10 -6q-7 -4 -18 -9q-67 -31 -278 -192q-87 -67 -132 -96l-23 -14q-26 0 -46 25t-20 51q0 51 153.5 167t275.5 184q46 26 69 45q17 14 18 11q17 0 39.5 -37t22.5 -57q0 -12 -19 -38t-32 -34z" />
    <glyph glyph-name="Ocircumflex" unicode="&#xd4;" horiz-adv-x="1646" 
d="M521 -72q-160 0 -284.5 159t-124.5 330q0 202 123 461t321 422.5t412 163.5q164 0 273 -40.5t196 -116.5t116 -156t29 -224q0 -136 -82 -318t-255.5 -355t-328.5 -249.5t-395 -76.5zM295 426q0 -139 88 -234t204 -95q302 0 555 278t253 590q0 119 -46.5 187.5t-149.5 117
t-231 48.5q-224 0 -448.5 -304t-224.5 -588zM1322 1857q6 -5 25 -27t51 -57q65 -71 74.5 -94t9.5 -40q0 -27 -20.5 -48t-42.5 -21q-42 0 -120 114q-25 39 -73 96q-46 56 -72 104q-29 70 -49 70q-23 0 -148 -144q-92 -105 -141 -153t-75 -48q-56 0 -56 95q0 43 17 56l107 101
q44 42 84 76q76 65 130 129q64 76 107 76q20 0 43.5 -32.5t90.5 -152.5q54 -99 58 -100z" />
    <glyph glyph-name="Otilde" unicode="&#xd5;" horiz-adv-x="1646" 
d="M521 -72q-160 0 -284.5 159t-124.5 330q0 202 123 461t321 422.5t412 163.5q164 0 273 -40.5t196 -116.5t116 -156t29 -224q0 -136 -82 -318t-255.5 -355t-328.5 -249.5t-395 -76.5zM295 426q0 -139 88 -234t204 -95q302 0 555 278t253 590q0 119 -46.5 187.5t-149.5 117
t-231 48.5q-224 0 -448.5 -304t-224.5 -588zM1045 1782q-17 16 -30 31q-47 49 -93 49q-34 0 -62 -21t-83 -85q-50 -64 -74.5 -84t-55.5 -20q-49 0 -49 53q0 71 111 184.5t184 113.5q68 0 102 -13.5t79 -58.5q39 -41 71 -63q15 -10 31 -22q63 -47 89 -47q27 0 50 19.5
t75 90.5q46 65 64 65q54 0 54 -59q0 -39 -76 -144.5t-151 -105.5q-79 0 -129.5 31t-94.5 75q-10 10 -12 11z" />
    <glyph glyph-name="Odieresis" unicode="&#xd6;" horiz-adv-x="1646" 
d="M521 -72q-160 0 -284.5 159t-124.5 330q0 202 123 461t321 422.5t412 163.5q164 0 273 -40.5t196 -116.5t116 -156t29 -224q0 -136 -82 -318t-255.5 -355t-328.5 -249.5t-395 -76.5zM295 426q0 -139 88 -234t204 -95q302 0 555 278t253 590q0 119 -46.5 187.5t-149.5 117
t-231 48.5q-224 0 -448.5 -304t-224.5 -588zM1234 1696q-38 0 -64.5 26.5t-26.5 63.5q0 39 18.5 57t97.5 37l15 4q28 8 48.5 -14t20.5 -63q0 -111 -109 -111zM859 1669q-23 0 -66.5 15t-43.5 38q0 125 69 125q64 0 102.5 -35t38.5 -98q0 -45 -100 -45z" />
    <glyph glyph-name="multiply" unicode="&#xd7;" horiz-adv-x="1169" 
d="M596 440q-9 -1 -76 -77q-68 -78 -74 -82l-152 -162q-27 -29 -48 -29q-20 0 -44 24t-24 46q0 18 18.5 39t95.5 87q68 59 93 99q12 17 67 72q58 58 58 67q0 13 -126 134l-167 161q-20 26 -20 49q0 30 21 50t52 20q14 0 60 -33t59 -53q76 -113 207 -250q97 72 197 204
q92 122 149 122q23 0 43.5 -13.5t20.5 -33.5q0 -38 -14.5 -58.5t-107.5 -101.5q-198 -170 -198 -191q0 -8 94 -102q23 -22 68 -82q52 -68 92 -108q72 -58 72 -95q0 -18 -14.5 -42.5t-32.5 -24.5q-38 0 -64 16t-85 89q-36 46 -58 67q-34 35 -87 102q-52 68 -75 90z" />
    <glyph glyph-name="Oslash" unicode="&#xd8;" horiz-adv-x="1646" 
d="M431 -57q-4 -5 -7 -10q-56 -88 -76 -88q-25 0 -51 26t-26 52q0 12 35 90q-85 72 -139.5 185.5t-54.5 218.5q0 202 123 461t321 422.5t412 163.5q134 0 256 -36q97 125 132 125q20 0 50 -36t30 -58q0 -23 -54 -107q125 -93 162.5 -180.5t37.5 -244.5q0 -136 -82 -318
t-255.5 -355t-328.5 -249.5t-395 -76.5q-46 0 -90 15zM392 181q41 72 83 131q45 63 119 174q22 33 79 109q9 12 15 22q64 104 188 284q172 246 247 378q4 8 9 16q-75 23 -164 23q-224 0 -448.5 -304t-224.5 -588q0 -146 97 -245zM525 104q28 -7 62 -7q302 0 555 278t253 590
q0 85 -21 141t-86 110l-122 -169q-157 -211 -430 -618q-33 -49 -93 -135q-99 -147 -112 -177z" />
    <glyph glyph-name="Ugrave" unicode="&#xd9;" horiz-adv-x="1587" 
d="M712 -70q-98 0 -240.5 66t-217.5 224t-75 348q0 114 50 383q9 49 26 156q32 213 44.5 256t39.5 68.5t63 25.5q25 0 51.5 -47.5t26.5 -73.5q0 -20 -46 -181q-24 -81 -52 -286.5t-28 -289.5q0 -281 131.5 -381t220.5 -100q172 0 292.5 52.5t182.5 190.5t88 513
q26 383 63.5 477.5t106.5 94.5q68 0 68 -111q0 -94 -39 -308q-25 -132 -37 -309q-11 -140 -29 -246.5t-59 -177.5t-103.5 -133t-130.5 -109t-187.5 -74.5t-209.5 -27.5zM762 1844q-8 5 -30 22l-63 46q-163 121 -163 177q0 20 33.5 44.5t55.5 24.5q14 0 58.5 -38t107.5 -97.5
t172.5 -145.5t127 -111.5t17.5 -50.5q0 -35 -25 -62t-57 -27q-11 0 -49 38z" />
    <glyph glyph-name="Uacute" unicode="&#xda;" horiz-adv-x="1587" 
d="M712 -70q-98 0 -240.5 66t-217.5 224t-75 348q0 114 50 383q9 49 26 156q32 213 44.5 256t39.5 68.5t63 25.5q25 0 51.5 -47.5t26.5 -73.5q0 -20 -46 -181q-24 -81 -52 -286.5t-28 -289.5q0 -281 131.5 -381t220.5 -100q172 0 292.5 52.5t182.5 190.5t88 513
q26 383 63.5 477.5t106.5 94.5q68 0 68 -111q0 -94 -39 -308q-25 -132 -37 -309q-11 -140 -29 -246.5t-59 -177.5t-103.5 -133t-130.5 -109t-187.5 -74.5t-209.5 -27.5zM1365 1925q-4 -2 -10 -6q-7 -4 -18 -9q-67 -31 -278 -192q-87 -67 -132 -96l-23 -14q-26 0 -46 25
t-20 51q0 51 153.5 167t275.5 184q46 26 69 45q17 14 18 11q17 0 39.5 -37t22.5 -57q0 -12 -19 -38t-32 -34z" />
    <glyph glyph-name="Ucircumflex" unicode="&#xdb;" horiz-adv-x="1587" 
d="M712 -70q-98 0 -240.5 66t-217.5 224t-75 348q0 114 50 383q9 49 26 156q32 213 44.5 256t39.5 68.5t63 25.5q25 0 51.5 -47.5t26.5 -73.5q0 -20 -46 -181q-24 -81 -52 -286.5t-28 -289.5q0 -281 131.5 -381t220.5 -100q172 0 292.5 52.5t182.5 190.5t88 513
q26 383 63.5 477.5t106.5 94.5q68 0 68 -111q0 -94 -39 -308q-25 -132 -37 -309q-11 -140 -29 -246.5t-59 -177.5t-103.5 -133t-130.5 -109t-187.5 -74.5t-209.5 -27.5zM1223 1892q6 -5 25 -27t51 -57q65 -71 74.5 -94t9.5 -40q0 -27 -20.5 -48t-42.5 -21q-42 0 -120 114
q-25 39 -73 96q-46 56 -72 104q-29 70 -49 70q-23 0 -148 -144q-92 -105 -141 -153t-75 -48q-56 0 -56 95q0 43 17 56l107 101q44 42 84 76q76 65 130 129q64 76 107 76q20 0 43.5 -32.5t90.5 -152.5q54 -99 58 -100z" />
    <glyph glyph-name="Udieresis" unicode="&#xdc;" horiz-adv-x="1587" 
d="M712 -70q-98 0 -240.5 66t-217.5 224t-75 348q0 114 50 383q9 49 26 156q32 213 44.5 256t39.5 68.5t63 25.5q25 0 51.5 -47.5t26.5 -73.5q0 -20 -46 -181q-24 -81 -52 -286.5t-28 -289.5q0 -281 131.5 -381t220.5 -100q172 0 292.5 52.5t182.5 190.5t88 513
q26 383 63.5 477.5t106.5 94.5q68 0 68 -111q0 -94 -39 -308q-25 -132 -37 -309q-11 -140 -29 -246.5t-59 -177.5t-103.5 -133t-130.5 -109t-187.5 -74.5t-209.5 -27.5zM1150 1698q-38 0 -64.5 26.5t-26.5 63.5q0 39 18.5 57t97.5 37l15 4q28 8 48.5 -14t20.5 -63
q0 -111 -109 -111zM775 1671q-23 0 -66.5 15t-43.5 38q0 125 69 125q64 0 102.5 -35t38.5 -98q0 -45 -100 -45z" />
    <glyph glyph-name="Yacute" unicode="&#xdd;" horiz-adv-x="1374" 
d="M627 697q-80 83 -218 268q-97 130 -137 172.5t-110 98.5q-93 72 -114.5 103t-21.5 65q0 16 31 42.5t57 26.5q61 0 161 -92t181 -194q247 -313 306 -350q59 65 124 133q330 342 402 444q79 110 157 110q30 0 47 -28.5t17 -57.5q0 -27 -75.5 -116t-399.5 -426
q-156 -162 -183 -209t-52 -273t-35 -354q-6 -78 -16 -88t-42 -20.5t-51 -10.5q-75 0 -75 126q0 78 32 277q30 191 30 256q0 57 -15 97zM1211 1979q-4 -2 -10 -6q-7 -4 -18 -9q-67 -31 -278 -192q-87 -67 -132 -96l-23 -14q-26 0 -46 25t-20 51q0 51 153.5 167t275.5 184
q46 26 69 45q17 14 18 11q17 0 39.5 -37t22.5 -57q0 -12 -19 -38t-32 -34z" />
    <glyph glyph-name="Thorn" unicode="&#xde;" horiz-adv-x="1620" 
d="M388 1583q15 29 30 36t56 7q46 0 73 -17.5t27 -41.5q0 -29 -16 -91q-15 -57 -15 -82q0 -44 50 -44l223 4q86 0 235 -43q65 -17 127 -29q199 -34 323 -124t124 -222q0 -167 -280.5 -329t-496.5 -181q-50 -4 -262 -68l-41 -12q-47 -9 -86.5 -24t-54 -24t-25 -49t-10.5 -68
q0 -16 4 -38q8 -64 11 -98q1 -21 3 -35q2 -53 -13 -75.5t-65 -22.5t-88 53t-38 128q0 43 14 127q8 51 12 82l22 200q11 98 40 211q18 57 31 264q11 154 45 323q23 121 29 195q2 55 12 88zM1409 850q50 49 50 70q0 125 -307 203.5t-557 78.5q-82 0 -96.5 -60t-14.5 -79
q0 -103 -46 -297q-43 -159 -43 -211q0 -38 13 -52t60 -14h36q72 0 189 37q104 34 153 45q121 21 139.5 26.5t112.5 42t151.5 68t88 58.5t71.5 84z" />
    <glyph glyph-name="germandbls" unicode="&#xdf;" horiz-adv-x="1139" 
d="M462 297q59 -170 119 -170q56 0 145 32.5t137.5 120.5t48.5 130q0 38 -18 75t-54 73t-97 75.5t-85.5 48t-77.5 13.5q-60 5 -78 14.5t-35 45.5t-17 66q0 40 40 70.5t89 34.5q102 13 177.5 77t104.5 97.5t29 113.5v27q0 172 -186 172q-39 0 -100.5 -45.5t-124 -215
t-94 -349.5t-83.5 -570q-27 -194 -56.5 -331t-70.5 -222t-97 -129.5t-97 -44.5q-95 0 -95 37q0 62 6 69t95 68q33 23 55 68.5t49 155.5t33 196q9 109 37 272q26 148 37 271q19 237 75.5 432.5t140.5 287.5t156 135.5t192 43.5q95 0 148 -43t98.5 -127t45.5 -176
q0 -54 -16.5 -96t-53.5 -82.5t-71.5 -64t-116.5 -58.5q-148 -63 -148 -76q0 -15 105 -40q89 -20 116 -33t73 -78.5t79 -145.5t33 -135q0 -154 -151 -272.5t-318 -118.5q-73 0 -128 46.5t-55 123.5q0 117 60 131z" />
    <glyph glyph-name="agrave" unicode="&#xe0;" horiz-adv-x="1202" 
d="M807 364q-140 -188 -277 -282t-251 -94q-77 0 -133 65t-56 167q0 263 235 566.5t467 303.5q84 0 125 -96q13 -32 41 -32q80 0 80 -62q0 -31 -10 -85q-54 -295 -54 -416q0 -242 92 -290q44 -24 44 -59q0 -31 -43 -62.5t-83 -31.5q-77 0 -127 106t-50 302zM746 927
q-132 0 -307 -247.5t-175 -410.5q0 -115 76 -115q110 0 305 222t195 408q0 143 -94 143zM581 1392q-8 5 -30 22l-63 46q-163 121 -163 177q0 20 33.5 44.5t55.5 24.5q14 0 58.5 -38t107.5 -97.5t172.5 -145.5t127 -111.5t17.5 -50.5q0 -35 -25 -62t-57 -27q-11 0 -49 38z
" />
    <glyph glyph-name="aacute" unicode="&#xe1;" horiz-adv-x="1202" 
d="M807 364q-140 -188 -277 -282t-251 -94q-77 0 -133 65t-56 167q0 263 235 566.5t467 303.5q84 0 125 -96q13 -32 41 -32q80 0 80 -62q0 -31 -10 -85q-54 -295 -54 -416q0 -242 92 -290q44 -24 44 -59q0 -31 -43 -62.5t-83 -31.5q-77 0 -127 106t-50 302zM746 927
q-132 0 -307 -247.5t-175 -410.5q0 -115 76 -115q110 0 305 222t195 408q0 143 -94 143zM1074 1484q-4 -2 -10 -6q-7 -4 -18 -9q-67 -31 -278 -192q-87 -67 -132 -96l-23 -14q-26 0 -46 25t-20 51q0 51 153.5 167t275.5 184q46 26 69 45q17 14 18 11q17 0 39.5 -37t22.5 -57
q0 -12 -19 -38t-32 -34z" />
    <glyph glyph-name="acircumflex" unicode="&#xe2;" horiz-adv-x="1202" 
d="M807 364q-140 -188 -277 -282t-251 -94q-77 0 -133 65t-56 167q0 263 235 566.5t467 303.5q84 0 125 -96q13 -32 41 -32q80 0 80 -62q0 -31 -10 -85q-54 -295 -54 -416q0 -242 92 -290q44 -24 44 -59q0 -31 -43 -62.5t-83 -31.5q-77 0 -127 106t-50 302zM746 927
q-132 0 -307 -247.5t-175 -410.5q0 -115 76 -115q110 0 305 222t195 408q0 143 -94 143zM1035 1426q6 -5 25 -27t51 -57q65 -71 74.5 -94t9.5 -40q0 -27 -20.5 -48t-42.5 -21q-42 0 -120 114q-25 39 -73 96q-46 56 -72 104q-29 70 -49 70q-23 0 -148 -144
q-92 -105 -141 -153t-75 -48q-56 0 -56 95q0 43 17 56l107 101q44 42 84 76q76 65 130 129q64 76 107 76q20 0 43.5 -32.5t90.5 -152.5q54 -99 58 -100z" />
    <glyph glyph-name="atilde" unicode="&#xe3;" horiz-adv-x="1202" 
d="M807 364q-140 -188 -277 -282t-251 -94q-77 0 -133 65t-56 167q0 263 235 566.5t467 303.5q84 0 125 -96q13 -32 41 -32q80 0 80 -62q0 -31 -10 -85q-54 -295 -54 -416q0 -242 92 -290q44 -24 44 -59q0 -31 -43 -62.5t-83 -31.5q-77 0 -127 106t-50 302zM746 927
q-132 0 -307 -247.5t-175 -410.5q0 -115 76 -115q110 0 305 222t195 408q0 143 -94 143zM782 1284q-17 16 -30 31q-47 49 -93 49q-34 0 -62 -21t-83 -85q-50 -64 -74.5 -84t-55.5 -20q-49 0 -49 53q0 71 111 184.5t184 113.5q68 0 102 -13.5t79 -58.5q39 -41 71 -63
q15 -10 31 -22q63 -47 89 -47q27 0 50 19.5t75 90.5q46 65 64 65q54 0 54 -59q0 -39 -76 -144.5t-151 -105.5q-79 0 -129.5 31t-94.5 75q-10 10 -12 11z" />
    <glyph glyph-name="adieresis" unicode="&#xe4;" horiz-adv-x="1202" 
d="M807 364q-140 -188 -277 -282t-251 -94q-77 0 -133 65t-56 167q0 263 235 566.5t467 303.5q84 0 125 -96q13 -32 41 -32q80 0 80 -62q0 -31 -10 -85q-54 -295 -54 -416q0 -242 92 -290q44 -24 44 -59q0 -31 -43 -62.5t-83 -31.5q-77 0 -127 106t-50 302zM746 927
q-132 0 -307 -247.5t-175 -410.5q0 -115 76 -115q110 0 305 222t195 408q0 143 -94 143zM960 1239q-38 0 -64.5 26.5t-26.5 63.5q0 39 18.5 57t97.5 37l15 4q28 8 48.5 -14t20.5 -63q0 -111 -109 -111zM585 1212q-23 0 -66.5 15t-43.5 38q0 125 69 125q64 0 102.5 -35
t38.5 -98q0 -45 -100 -45z" />
    <glyph glyph-name="aring" unicode="&#xe5;" horiz-adv-x="1202" 
d="M807 364q-140 -188 -277 -282t-251 -94q-77 0 -133 65t-56 167q0 263 235 566.5t467 303.5q84 0 125 -96q13 -32 41 -32q80 0 80 -62q0 -31 -10 -85q-54 -295 -54 -416q0 -242 92 -290q44 -24 44 -59q0 -31 -43 -62.5t-83 -31.5q-77 0 -127 106t-50 302zM746 927
q-132 0 -307 -247.5t-175 -410.5q0 -115 76 -115q110 0 305 222t195 408q0 143 -94 143zM1035 1420q0 -89 -87.5 -168t-184.5 -79q-99 0 -163.5 62.5t-64.5 162.5q0 83 81.5 161.5t220.5 78.5q26 0 87 -27t86 -92.5t25 -91.5v-7zM806 1525h-16q-68 0 -94.5 -47t-26.5 -88
q0 -39 31.5 -80t70.5 -41q35 0 86 32.5t51 106.5q0 40 -20 78.5t-82 38.5z" />
    <glyph glyph-name="ae" unicode="&#xe6;" horiz-adv-x="1674" 
d="M843 768q217 343 481 343q75 0 122.5 -49t47.5 -118q0 -154 -151 -295t-404 -277q-52 -27 -52 -70q0 -83 48 -133t142 -50q215 0 439 238q33 33 50 33q32 0 32 -51q0 -102 -180.5 -246t-372.5 -144q-161 0 -248.5 95t-87.5 265v22q0 105 5 153q2 21 1 22t-9 -22l-20 -55
q-8 -23 -51.5 -120.5t-116.5 -192.5t-146 -142t-142 -47q-45 0 -102.5 49t-57.5 193q0 218 103 441.5t239 333t272 109.5q66 0 121.5 -42.5t55.5 -99.5q0 -11 -6 -52q-7 -41 -12 -91zM903 495q424 252 424 405q0 60 -54 60q-92 0 -207.5 -135t-162.5 -330zM709 862
q0 34 -46 34q-117 0 -191.5 -90.5t-116.5 -169.5l-31 -56q-16 -31 -46 -123t-36 -130.5t-6 -123.5q0 -99 42 -99q35 0 120 91.5t193.5 311t108.5 261.5q0 19 6 64q3 19 3 30z" />
    <glyph glyph-name="ccedilla" unicode="&#xe7;" horiz-adv-x="1038" 
d="M381 -56q-8 -27 -12 -67q23 -20 80 -24q42 0 78 -16.5t55 -58t19 -144.5q0 -51 -90.5 -133t-258.5 -82q-24 0 -69 15q-42 14 -73 29q-14 7 -13 7q-48 25 -48 68q0 26 21.5 53.5t44.5 27.5q17 0 52 -24q60 -51 98 -51q104 0 137 29t33 96q0 38 -23 65.5t-61 27.5
q-13 0 -47 -13q-31 -14 -49 -14q-56 0 -56 52q23 57 40 102q16 45 29 77q-176 67 -176 304q0 261 207 550.5t385 289.5q81 0 139.5 -87.5t58.5 -185.5q0 -59 -25.5 -101.5t-51.5 -42.5q-58 0 -82 117q-27 126 -78 126q-104 0 -246 -247t-142 -417t193 -170q147 0 346 138
q70 49 103 49q34 0 34 -39q0 -76 -179 -191.5t-351 -115.5h-12q-5 0 -10 1z" />
    <glyph glyph-name="egrave" unicode="&#xe8;" horiz-adv-x="1065" 
d="M989 339q0 -102 -180.5 -246t-372.5 -144q-161 0 -248.5 95t-87.5 265q0 286 193 544t422 258q75 0 122.5 -49t47.5 -118q0 -154 -151 -295t-404 -277q-52 -27 -52 -70q0 -83 48 -133t142 -50q215 0 439 238q33 33 50 33q32 0 32 -51zM294 495q424 252 424 405
q0 60 -54 60q-92 0 -207.5 -135t-162.5 -330zM416 1421q-8 5 -30 22l-63 46q-163 121 -163 177q0 20 33.5 44.5t55.5 24.5q14 0 58.5 -38t107.5 -97.5t172.5 -145.5t127 -111.5t17.5 -50.5q0 -35 -25 -62t-57 -27q-11 0 -49 38z" />
    <glyph glyph-name="eacute" unicode="&#xe9;" horiz-adv-x="1065" 
d="M989 339q0 -102 -180.5 -246t-372.5 -144q-161 0 -248.5 95t-87.5 265q0 286 193 544t422 258q75 0 122.5 -49t47.5 -118q0 -154 -151 -295t-404 -277q-52 -27 -52 -70q0 -83 48 -133t142 -50q215 0 439 238q33 33 50 33q32 0 32 -51zM294 495q424 252 424 405
q0 60 -54 60q-92 0 -207.5 -135t-162.5 -330zM917 1507q-4 -2 -10 -6q-7 -4 -18 -9q-67 -31 -278 -192q-87 -67 -132 -96l-23 -14q-26 0 -46 25t-20 51q0 51 153.5 167t275.5 184q46 26 69 45q17 14 18 11q17 0 39.5 -37t22.5 -57q0 -12 -19 -38t-32 -34z" />
    <glyph glyph-name="ecircumflex" unicode="&#xea;" horiz-adv-x="1065" 
d="M989 339q0 -102 -180.5 -246t-372.5 -144q-161 0 -248.5 95t-87.5 265q0 286 193 544t422 258q75 0 122.5 -49t47.5 -118q0 -154 -151 -295t-404 -277q-52 -27 -52 -70q0 -83 48 -133t142 -50q215 0 439 238q33 33 50 33q32 0 32 -51zM294 495q424 252 424 405
q0 60 -54 60q-92 0 -207.5 -135t-162.5 -330zM895 1408q6 -5 25 -27t51 -57q65 -71 74.5 -94t9.5 -40q0 -27 -20.5 -48t-42.5 -21q-42 0 -120 114q-25 39 -73 96q-46 56 -72 104q-29 70 -49 70q-23 0 -148 -144q-92 -105 -141 -153t-75 -48q-56 0 -56 95q0 43 17 56l107 101
q44 42 84 76q76 65 130 129q64 76 107 76q20 0 43.5 -32.5t90.5 -152.5q54 -99 58 -100z" />
    <glyph glyph-name="edieresis" unicode="&#xeb;" horiz-adv-x="1065" 
d="M989 339q0 -102 -180.5 -246t-372.5 -144q-161 0 -248.5 95t-87.5 265q0 286 193 544t422 258q75 0 122.5 -49t47.5 -118q0 -154 -151 -295t-404 -277q-52 -27 -52 -70q0 -83 48 -133t142 -50q215 0 439 238q33 33 50 33q32 0 32 -51zM294 495q424 252 424 405
q0 60 -54 60q-92 0 -207.5 -135t-162.5 -330zM843 1242q-38 0 -64.5 26.5t-26.5 63.5q0 39 18.5 57t97.5 37l15 4q28 8 48.5 -14t20.5 -63q0 -111 -109 -111zM468 1215q-23 0 -66.5 15t-43.5 38q0 125 69 125q64 0 102.5 -35t38.5 -98q0 -45 -100 -45z" />
    <glyph glyph-name="igrave" unicode="&#xec;" horiz-adv-x="592" 
d="M324 222q0 -76 21 -171q4 -18 4 -30q0 -18 -33 -46.5t-70 -28.5q-97 0 -97 178q0 184 76 582q26 139 26 171q0 63 23 107.5t65 44.5q51 0 80.5 -24.5t29.5 -54.5t-14 -79q-75 -264 -93 -378t-18 -271zM213 1389q-8 5 -30 22l-63 46q-163 121 -163 177q0 20 33.5 44.5
t55.5 24.5q14 0 58.5 -38t107.5 -97.5t172.5 -145.5t127 -111.5t17.5 -50.5q0 -35 -25 -62t-57 -27q-11 0 -49 38z" />
    <glyph glyph-name="iacute" unicode="&#xed;" horiz-adv-x="592" 
d="M324 222q0 -76 21 -171q4 -18 4 -30q0 -18 -33 -46.5t-70 -28.5q-97 0 -97 178q0 184 76 582q26 139 26 171q0 63 23 107.5t65 44.5q51 0 80.5 -24.5t29.5 -54.5t-14 -79q-75 -264 -93 -378t-18 -271zM835 1489q-4 -2 -10 -6q-7 -4 -18 -9q-67 -31 -278 -192
q-87 -67 -132 -96l-23 -14q-26 0 -46 25t-20 51q0 51 153.5 167t275.5 184q46 26 69 45q17 14 18 11q17 0 39.5 -37t22.5 -57q0 -12 -19 -38t-32 -34z" />
    <glyph glyph-name="icircumflex" unicode="&#xee;" horiz-adv-x="592" 
d="M324 222q0 -76 21 -171q4 -18 4 -30q0 -18 -33 -46.5t-70 -28.5q-97 0 -97 178q0 184 76 582q26 139 26 171q0 63 23 107.5t65 44.5q51 0 80.5 -24.5t29.5 -54.5t-14 -79q-75 -264 -93 -378t-18 -271zM637 1358q6 -5 25 -27t51 -57q65 -71 74.5 -94t9.5 -40
q0 -27 -20.5 -48t-42.5 -21q-42 0 -120 114q-25 39 -73 96q-46 56 -72 104q-29 70 -49 70q-23 0 -148 -144q-92 -105 -141 -153t-75 -48q-56 0 -56 95q0 43 17 56l107 101q44 42 84 76q76 65 130 129q64 76 107 76q20 0 43.5 -32.5t90.5 -152.5q54 -99 58 -100z" />
    <glyph glyph-name="idieresis" unicode="&#xef;" horiz-adv-x="592" 
d="M324 222q0 -76 21 -171q4 -18 4 -30q0 -18 -33 -46.5t-70 -28.5q-97 0 -97 178q0 184 76 582q26 139 26 171q0 63 23 107.5t65 44.5q51 0 80.5 -24.5t29.5 -54.5t-14 -79q-75 -264 -93 -378t-18 -271zM594 1240q-38 0 -64.5 26.5t-26.5 63.5q0 39 18.5 57t97.5 37l15 4
q28 8 48.5 -14t20.5 -63q0 -111 -109 -111zM219 1213q-23 0 -66.5 15t-43.5 38q0 125 69 125q64 0 102.5 -35t38.5 -98q0 -45 -100 -45z" />
    <glyph glyph-name="eth" unicode="&#xf0;" horiz-adv-x="1030" 
d="M70 392q0 128 9 170t54 123.5t133 160.5t193 124.5t215 53.5q-25 33 -64 93q-43 68 -78 102q-27 0 -60 -18t-145 -98q-56 -38 -96 -38q-20 0 -32.5 24.5t-12.5 47.5q0 24 98 71q105 52 117 99l-41 21q-131 62 -131 81q0 32 41.5 69.5t77.5 37.5q51 0 172 -97
q51 -39 53 -39q26 0 48.5 13.5t91.5 69.5q97 83 143 83q43 0 43 -65q0 -34 -23.5 -58t-129.5 -77q-74 -38 -74 -56q24 -17 126.5 -160.5t132.5 -292.5t30 -233q0 -105 -33 -184t-85.5 -131.5t-169 -130.5t-176.5 -106.5t-143 -28.5q-105 0 -178.5 94.5t-91.5 166.5zM545 244
q36 34 82 71q182 144 182 273q0 108 -31.5 214.5t-52.5 106.5q-58 0 -212 -65t-218.5 -167.5t-64.5 -172.5q0 -188 67.5 -251t108.5 -63q54 0 139 54z" />
    <glyph glyph-name="ntilde" unicode="&#xf1;" horiz-adv-x="1358" 
d="M814 769q-52 0 -113.5 -68t-187.5 -305q-166 -318 -214.5 -362t-80.5 -44q-118 0 -118 114q0 48 16 136q55 302 55 637q0 38 32.5 84.5t61.5 46.5q52 0 74 -32t22 -129q0 -101 -60 -416q-20 -104 -20 -132q0 -16 8 -16q15 0 139 239q125 243 219 342t207 99
q90 0 146.5 -82t82.5 -299q28 -247 50.5 -307.5t71.5 -60.5q31 0 78 22q8 4 12 4q43 0 43 -50q0 -44 -59 -93.5t-142 -49.5q-85 0 -131.5 67.5t-73.5 360.5q-28 294 -118 294zM746 1313q-17 16 -30 31q-47 49 -93 49q-34 0 -62 -21t-83 -85q-50 -64 -74.5 -84t-55.5 -20
q-49 0 -49 53q0 71 111 184.5t184 113.5q68 0 102 -13.5t79 -58.5q39 -41 71 -63q15 -10 31 -22q63 -47 89 -47q27 0 50 19.5t75 90.5q46 65 64 65q54 0 54 -59q0 -39 -76 -144.5t-151 -105.5q-79 0 -129.5 31t-94.5 75q-10 10 -12 11z" />
    <glyph glyph-name="ograve" unicode="&#xf2;" horiz-adv-x="1158" 
d="M425 -50q-137 0 -226 104t-89 257q0 258 173.5 508.5t415.5 250.5q160 0 259.5 -123t99.5 -293q0 -260 -205.5 -482t-427.5 -222zM286 337q0 -101 42.5 -165t112.5 -64q149 0 299 163.5t150 363.5q0 123 -57.5 199.5t-154.5 76.5q-161 0 -276.5 -197.5t-115.5 -376.5z
M519 1389q-8 5 -30 22l-63 46q-163 121 -163 177q0 20 33.5 44.5t55.5 24.5q14 0 58.5 -38t107.5 -97.5t172.5 -145.5t127 -111.5t17.5 -50.5q0 -35 -25 -62t-57 -27q-11 0 -49 38z" />
    <glyph glyph-name="oacute" unicode="&#xf3;" horiz-adv-x="1158" 
d="M425 -50q-137 0 -226 104t-89 257q0 258 173.5 508.5t415.5 250.5q160 0 259.5 -123t99.5 -293q0 -260 -205.5 -482t-427.5 -222zM286 337q0 -101 42.5 -165t112.5 -64q149 0 299 163.5t150 363.5q0 123 -57.5 199.5t-154.5 76.5q-161 0 -276.5 -197.5t-115.5 -376.5z
M1082 1485q-4 -2 -10 -6q-7 -4 -18 -9q-67 -31 -278 -192q-87 -67 -132 -96l-23 -14q-26 0 -46 25t-20 51q0 51 153.5 167t275.5 184q46 26 69 45q17 14 18 11q17 0 39.5 -37t22.5 -57q0 -12 -19 -38t-32 -34z" />
    <glyph glyph-name="ocircumflex" unicode="&#xf4;" horiz-adv-x="1158" 
d="M425 -50q-137 0 -226 104t-89 257q0 258 173.5 508.5t415.5 250.5q160 0 259.5 -123t99.5 -293q0 -260 -205.5 -482t-427.5 -222zM286 337q0 -101 42.5 -165t112.5 -64q149 0 299 163.5t150 363.5q0 123 -57.5 199.5t-154.5 76.5q-161 0 -276.5 -197.5t-115.5 -376.5z
M969 1414q6 -5 25 -27t51 -57q65 -71 74.5 -94t9.5 -40q0 -27 -20.5 -48t-42.5 -21q-42 0 -120 114q-25 39 -73 96q-46 56 -72 104q-29 70 -49 70q-23 0 -148 -144q-92 -105 -141 -153t-75 -48q-56 0 -56 95q0 43 17 56l107 101q44 42 84 76q76 65 130 129q64 76 107 76
q20 0 43.5 -32.5t90.5 -152.5q54 -99 58 -100z" />
    <glyph glyph-name="otilde" unicode="&#xf5;" horiz-adv-x="1158" 
d="M425 -50q-137 0 -226 104t-89 257q0 258 173.5 508.5t415.5 250.5q160 0 259.5 -123t99.5 -293q0 -260 -205.5 -482t-427.5 -222zM286 337q0 -101 42.5 -165t112.5 -64q149 0 299 163.5t150 363.5q0 123 -57.5 199.5t-154.5 76.5q-161 0 -276.5 -197.5t-115.5 -376.5z
M747 1302q-17 16 -30 31q-47 49 -93 49q-34 0 -62 -21t-83 -85q-50 -64 -74.5 -84t-55.5 -20q-49 0 -49 53q0 71 111 184.5t184 113.5q68 0 102 -13.5t79 -58.5q39 -41 71 -63q15 -10 31 -22q63 -47 89 -47q27 0 50 19.5t75 90.5q46 65 64 65q54 0 54 -59q0 -39 -76 -144.5
t-151 -105.5q-79 0 -129.5 31t-94.5 75q-10 10 -12 11z" />
    <glyph glyph-name="odieresis" unicode="&#xf6;" horiz-adv-x="1158" 
d="M425 -50q-137 0 -226 104t-89 257q0 258 173.5 508.5t415.5 250.5q160 0 259.5 -123t99.5 -293q0 -260 -205.5 -482t-427.5 -222zM286 337q0 -101 42.5 -165t112.5 -64q149 0 299 163.5t150 363.5q0 123 -57.5 199.5t-154.5 76.5q-161 0 -276.5 -197.5t-115.5 -376.5z
M903 1238q-38 0 -64.5 26.5t-26.5 63.5q0 39 18.5 57t97.5 37l15 4q28 8 48.5 -14t20.5 -63q0 -111 -109 -111zM528 1211q-23 0 -66.5 15t-43.5 38q0 125 69 125q64 0 102.5 -35t38.5 -98q0 -45 -100 -45z" />
    <glyph glyph-name="divide" unicode="&#xf7;" horiz-adv-x="1184" 
d="M641 831q-86 0 -115.5 46t-29.5 81q0 17 29 33.5t50 16.5q7 0 25 -9q7 -4 41 -5q72 -2 72 -31q0 -41 -18.5 -86.5t-53.5 -45.5zM915 472q-174 0 -294 -4q-145 -5 -200 -10q-94 -9 -130 -9q-156 0 -156 79q0 78 74 78l86 4l170 -4q39 0 200 11q146 12 214 12q26 0 84 -11
q54 -10 77 -10q24 0 43 -25t19 -48q0 -12 -14.5 -33.5t-37.5 -25.5t-135 -4zM600 33q-34 0 -79.5 23.5t-45.5 52.5q0 37 46.5 67.5t84.5 30.5q78 0 78 -49q0 -46 -23.5 -85.5t-60.5 -39.5z" />
    <glyph glyph-name="oslash" unicode="&#xf8;" horiz-adv-x="1158" 
d="M971 932q87 -120 87 -278q0 -260 -205.5 -482t-427.5 -222q-51 0 -97 16l-44 -65q-54 -76 -68 -76q-25 0 -51 26t-26 52q0 24 64 146q-93 107 -93 262q0 258 173.5 508.5t415.5 250.5q74 0 139 -29q83 108 118 108q20 0 50 -36t30 -58q0 -25 -65 -123zM305 219
q12 19 25 37q182 263 315 494l22 35q38 59 59 96l13 21q-27 9 -61 9q-161 0 -276.5 -197.5t-115.5 -376.5q0 -69 19 -118zM864 779l-99 -135q-30 -38 -47 -66q-10 -15 -57 -80q-41 -58 -57 -89q-49 -100 -197 -297q16 -4 34 -4q149 0 299 163.5t150 363.5q0 78 -26 144z" />
    <glyph glyph-name="ugrave" unicode="&#xf9;" horiz-adv-x="1249" 
d="M839 435q-128 -215 -262 -333t-249 -118q-66 0 -134.5 77t-68.5 237q0 131 63 386q53 213 53 299q29 60 91 60q42 0 67 -29.5t25 -61.5q0 -70 -49 -199q-93 -251 -93 -431q0 -164 76 -164q97 0 247 165t257 460q42 118 68.5 153.5t71.5 35.5q68 0 68 -90q0 -11 -19 -73
q-60 -219 -60 -414q0 -234 77 -303q40 -37 40 -60q0 -28 -40.5 -51t-73.5 -23q-70 0 -113 104t-43 307v33q0 16 1 33zM470 1386q-8 5 -30 22l-63 46q-163 121 -163 177q0 20 33.5 44.5t55.5 24.5q14 0 58.5 -38t107.5 -97.5t172.5 -145.5t127 -111.5t17.5 -50.5
q0 -35 -25 -62t-57 -27q-11 0 -49 38z" />
    <glyph glyph-name="uacute" unicode="&#xfa;" horiz-adv-x="1249" 
d="M839 435q-128 -215 -262 -333t-249 -118q-66 0 -134.5 77t-68.5 237q0 131 63 386q53 213 53 299q29 60 91 60q42 0 67 -29.5t25 -61.5q0 -70 -49 -199q-93 -251 -93 -431q0 -164 76 -164q97 0 247 165t257 460q42 118 68.5 153.5t71.5 35.5q68 0 68 -90q0 -11 -19 -73
q-60 -219 -60 -414q0 -234 77 -303q40 -37 40 -60q0 -28 -40.5 -51t-73.5 -23q-70 0 -113 104t-43 307v33q0 16 1 33zM1059 1486q-4 -2 -10 -6q-7 -4 -18 -9q-67 -31 -278 -192q-87 -67 -132 -96l-23 -14q-26 0 -46 25t-20 51q0 51 153.5 167t275.5 184q46 26 69 45
q17 14 18 11q17 0 39.5 -37t22.5 -57q0 -12 -19 -38t-32 -34z" />
    <glyph glyph-name="ucircumflex" unicode="&#xfb;" horiz-adv-x="1249" 
d="M839 435q-128 -215 -262 -333t-249 -118q-66 0 -134.5 77t-68.5 237q0 131 63 386q53 213 53 299q29 60 91 60q42 0 67 -29.5t25 -61.5q0 -70 -49 -199q-93 -251 -93 -431q0 -164 76 -164q97 0 247 165t257 460q42 118 68.5 153.5t71.5 35.5q68 0 68 -90q0 -11 -19 -73
q-60 -219 -60 -414q0 -234 77 -303q40 -37 40 -60q0 -28 -40.5 -51t-73.5 -23q-70 0 -113 104t-43 307v33q0 16 1 33zM959 1442q6 -5 25 -27t51 -57q65 -71 74.5 -94t9.5 -40q0 -27 -20.5 -48t-42.5 -21q-42 0 -120 114q-25 39 -73 96q-46 56 -72 104q-29 70 -49 70
q-23 0 -148 -144q-92 -105 -141 -153t-75 -48q-56 0 -56 95q0 43 17 56l107 101q44 42 84 76q76 65 130 129q64 76 107 76q20 0 43.5 -32.5t90.5 -152.5q54 -99 58 -100z" />
    <glyph glyph-name="udieresis" unicode="&#xfc;" horiz-adv-x="1249" 
d="M839 435q-128 -215 -262 -333t-249 -118q-66 0 -134.5 77t-68.5 237q0 131 63 386q53 213 53 299q29 60 91 60q42 0 67 -29.5t25 -61.5q0 -70 -49 -199q-93 -251 -93 -431q0 -164 76 -164q97 0 247 165t257 460q42 118 68.5 153.5t71.5 35.5q68 0 68 -90q0 -11 -19 -73
q-60 -219 -60 -414q0 -234 77 -303q40 -37 40 -60q0 -28 -40.5 -51t-73.5 -23q-70 0 -113 104t-43 307v33q0 16 1 33zM897 1240q-38 0 -64.5 26.5t-26.5 63.5q0 39 18.5 57t97.5 37l15 4q28 8 48.5 -14t20.5 -63q0 -111 -109 -111zM522 1213q-23 0 -66.5 15t-43.5 38
q0 125 69 125q64 0 102.5 -35t38.5 -98q0 -45 -100 -45z" />
    <glyph glyph-name="yacute" unicode="&#xfd;" horiz-adv-x="1210" 
d="M872 353q-184 -160 -323.5 -232.5t-213.5 -72.5q-99 0 -151.5 82.5t-52.5 192.5q0 154 62.5 380.5t93 269t97.5 42.5q28 0 46 -33t18 -75q0 -25 -23 -65q-54 -94 -56.5 -104t-38.5 -120.5t-36 -207.5q0 -34 16.5 -106t68.5 -72q55 0 135.5 33.5t181.5 109.5t136 123
t49.5 107t20.5 260t97 200q54 0 70 -28.5t16 -108.5q0 -66 -9 -165q-11 -125 -14 -178q-14 -275 -71.5 -552.5t-167.5 -464t-303 -186.5q-196 0 -348.5 102.5t-152.5 173.5q0 33 15.5 65t39.5 32q12 0 26 -19q131 -201 412 -201q145 0 243.5 254.5t108.5 477.5q2 43 8 86z
M1112 1446q-4 -2 -10 -6q-7 -4 -18 -9q-67 -31 -278 -192q-87 -67 -132 -96l-23 -14q-26 0 -46 25t-20 51q0 51 153.5 167t275.5 184q46 26 69 45q17 14 18 11q17 0 39.5 -37t22.5 -57q0 -12 -19 -38t-32 -34z" />
    <glyph glyph-name="thorn" unicode="&#xfe;" horiz-adv-x="1324" 
d="M314 116q-44 -158 -82 -505q-19 -166 -28.5 -201.5t-37.5 -71t-52 -35.5q-31 0 -70.5 31.5t-39.5 50.5q0 55 25 152q160 645 201 1333q5 79 25 298l24 266q4 47 43 80t83 33q41 0 52.5 -52t11.5 -143q0 -96 -38.5 -371.5t-89.5 -539.5q280 657 647 657q101 0 170.5 -75.5
t69.5 -187.5q0 -326 -250 -592t-487 -266q-113 0 -177 139zM947 921q-141 0 -349 -264t-208 -411q0 -36 41 -70t104 -34q143 0 329 211.5t186 415.5q0 73 -29.5 112.5t-73.5 39.5z" />
    <glyph glyph-name="ydieresis" unicode="&#xff;" horiz-adv-x="1210" 
d="M872 353q-184 -160 -323.5 -232.5t-213.5 -72.5q-99 0 -151.5 82.5t-52.5 192.5q0 154 62.5 380.5t93 269t97.5 42.5q28 0 46 -33t18 -75q0 -25 -23 -65q-54 -94 -56.5 -104t-38.5 -120.5t-36 -207.5q0 -34 16.5 -106t68.5 -72q55 0 135.5 33.5t181.5 109.5t136 123
t49.5 107t20.5 260t97 200q54 0 70 -28.5t16 -108.5q0 -66 -9 -165q-11 -125 -14 -178q-14 -275 -71.5 -552.5t-167.5 -464t-303 -186.5q-196 0 -348.5 102.5t-152.5 173.5q0 33 15.5 65t39.5 32q12 0 26 -19q131 -201 412 -201q145 0 243.5 254.5t108.5 477.5q2 43 8 86z
M902 1241q-38 0 -64.5 26.5t-26.5 63.5q0 39 18.5 57t97.5 37l15 4q28 8 48.5 -14t20.5 -63q0 -111 -109 -111zM527 1214q-23 0 -66.5 15t-43.5 38q0 125 69 125q64 0 102.5 -35t38.5 -98q0 -45 -100 -45z" />
    <glyph glyph-name="Amacron" unicode="&#x100;" horiz-adv-x="1592" 
d="M968 1431q9 -7 9 -49q0 -43 -9 -65l13 -42q33 -118 65 -194q40 -102 79 -219q89 -269 185.5 -460.5t176.5 -269.5q50 -49 62.5 -67.5t12.5 -43.5q0 -44 -29.5 -74.5t-70.5 -30.5q-128 0 -310 403q-73 159 -88 159q-48 0 -206.5 -29t-289.5 -68q-75 -23 -95 -23
q-25 0 -52 25q-5 4 -12 4q-22 0 -95 -130q-120 -215 -151.5 -256.5t-69.5 -41.5q-27 0 -65 31.5t-38 64.5q0 32 36 86.5t147 219.5q198 293 334 550q215 409 273 482.5t89 73.5q66 0 99 -36zM1029 636q-35 80 -103 293q-74 227 -94 276q-55 -116 -170 -329l-181 -343
q21 16 111 26q69 7 120 18q273 55 317 59zM1200 1731q0 -40 -39 -60q-40 -17 -85 -17q-33 0 -62.5 0.5t-74.5 0.5h-39.5t-29.5 -1q-17 0 -40 -5t-55 -15q-63 -18 -90 -18q-15 0 -28.5 6.5t-23 17.5t-15 25t-5.5 29q0 29 18.5 43.5t51.5 21.5q54 17 115 21q31 5 68.5 7
t84.5 3t75 2t39 2q13 2 22 3t16.5 1.5l15 1t17.5 0.5q30 0 47 -19.5t17 -49.5z" />
    <glyph glyph-name="amacron" unicode="&#x101;" horiz-adv-x="1202" 
d="M807 364q-140 -188 -277 -282t-251 -94q-77 0 -133 65t-56 167q0 263 235 566.5t467 303.5q84 0 125 -96q13 -32 41 -32q80 0 80 -62q0 -31 -10 -85q-54 -295 -54 -416q0 -242 92 -290q44 -24 44 -59q0 -31 -43 -62.5t-83 -31.5q-77 0 -127 106t-50 302zM746 927
q-132 0 -307 -247.5t-175 -410.5q0 -115 76 -115q110 0 305 222t195 408q0 143 -94 143zM1088 1334q0 -40 -39 -60q-40 -17 -85 -17q-33 0 -62.5 0.5t-74.5 0.5h-39.5t-29.5 -1q-17 0 -40 -5t-55 -15q-63 -18 -90 -18q-15 0 -28.5 6.5t-23 17.5t-15 25t-5.5 29
q0 29 18.5 43.5t51.5 21.5q54 17 115 21q31 5 68.5 7t84.5 3t75 2t39 2q13 2 22 3t16.5 1.5l15 1t17.5 0.5q30 0 47 -19.5t17 -49.5z" />
    <glyph glyph-name="Abreve" unicode="&#x102;" horiz-adv-x="1592" 
d="M968 1431q9 -7 9 -49q0 -43 -9 -65l13 -42q33 -118 65 -194q40 -102 79 -219q89 -269 185.5 -460.5t176.5 -269.5q50 -49 62.5 -67.5t12.5 -43.5q0 -44 -29.5 -74.5t-70.5 -30.5q-128 0 -310 403q-73 159 -88 159q-48 0 -206.5 -29t-289.5 -68q-75 -23 -95 -23
q-25 0 -52 25q-5 4 -12 4q-22 0 -95 -130q-120 -215 -151.5 -256.5t-69.5 -41.5q-27 0 -65 31.5t-38 64.5q0 32 36 86.5t147 219.5q198 293 334 550q215 409 273 482.5t89 73.5q66 0 99 -36zM1029 636q-35 80 -103 293q-74 227 -94 276q-55 -116 -170 -329l-181 -343
q21 16 111 26q69 7 120 18q273 55 317 59zM1146 1699q-30 -27 -114.5 -60t-149.5 -33q-52 0 -151.5 64.5t-140.5 148t-41 99.5q0 27 23.5 59t46.5 32q18 0 32 -32q40 -95 104.5 -163.5t143.5 -68.5q162 0 262 148q7 12 39.5 47t42.5 35q15 0 32.5 -32t17.5 -50
q0 -31 -49.5 -95.5t-97.5 -98.5z" />
    <glyph glyph-name="abreve" unicode="&#x103;" horiz-adv-x="1202" 
d="M807 364q-140 -188 -277 -282t-251 -94q-77 0 -133 65t-56 167q0 263 235 566.5t467 303.5q84 0 125 -96q13 -32 41 -32q80 0 80 -62q0 -31 -10 -85q-54 -295 -54 -416q0 -242 92 -290q44 -24 44 -59q0 -31 -43 -62.5t-83 -31.5q-77 0 -127 106t-50 302zM746 927
q-132 0 -307 -247.5t-175 -410.5q0 -115 76 -115q110 0 305 222t195 408q0 143 -94 143zM1013 1297q-30 -27 -114.5 -60t-149.5 -33q-52 0 -151.5 64.5t-140.5 148t-41 99.5q0 27 23.5 59t46.5 32q18 0 32 -32q40 -95 104.5 -163.5t143.5 -68.5q162 0 262 148q7 12 39.5 47
t42.5 35q15 0 32.5 -32t17.5 -50q0 -31 -49.5 -95.5t-97.5 -98.5z" />
    <glyph glyph-name="Aogonek" unicode="&#x104;" horiz-adv-x="1592" 
d="M1359 -29q-91 91 -207 348q-73 159 -88 159q-48 0 -206.5 -29t-289.5 -68q-75 -23 -95 -23q-25 0 -52 25q-5 4 -12 4q-22 0 -95 -130q-120 -215 -151.5 -256.5t-69.5 -41.5q-27 0 -65 31.5t-38 64.5q0 32 36 86.5t147 219.5q198 293 334 550q215 409 273 482.5t89 73.5
q66 0 99 -36q9 -7 9 -49q0 -43 -9 -65l13 -42q33 -118 65 -194q40 -102 79 -219q89 -269 185.5 -460.5t176.5 -269.5q50 -49 62.5 -67.5t12.5 -43.5q0 -39 -16 -65.5t-91 -63.5q-175 -103 -175 -213q0 -85 118 -80q37 -7 97 14q44 15 59 15q26 0 26 -32q0 -43 -32 -85.5
t-183 -42.5q-121 0 -174 60.5t-53 130.5q0 171 221 312zM1029 636q-35 80 -103 293q-74 227 -94 276q-55 -116 -170 -329l-181 -343q21 16 111 26q69 7 120 18q273 55 317 59z" />
    <glyph glyph-name="aogonek" unicode="&#x105;" horiz-adv-x="1202" 
d="M898 -3q-91 104 -91 367q-140 -188 -277 -282t-251 -94q-77 0 -133 65t-56 167q0 263 235 566.5t467 303.5q84 0 125 -96q13 -32 41 -32q80 0 80 -62q0 -31 -10 -85q-54 -295 -54 -416q0 -242 92 -290q35 -18 41 -38q7 -11 7 -31q0 -59 -37 -78q-10 -6 -23 -15
q-14 -10 -36 -21q-91 -45 -147.5 -112.5t-56.5 -118.5q0 -85 118 -80q37 -7 97 14q44 15 59 15q26 0 26 -32q0 -44 -33 -86.5t-165 -42.5q-137 0 -190.5 63.5t-53.5 127.5q0 167 226 323zM746 927q-132 0 -307 -247.5t-175 -410.5q0 -115 76 -115q110 0 305 222t195 408
q0 143 -94 143z" />
    <glyph glyph-name="Cacute" unicode="&#x106;" horiz-adv-x="1432" 
d="M1178 302q39 0 39 -48q0 -50 -111 -143t-256.5 -148t-266.5 -55q-177 0 -322.5 117t-145.5 339q0 405 348.5 788.5t671.5 383.5q121 0 193.5 -74.5t72.5 -173.5q0 -92 -10.5 -145t-63.5 -89.5t-85 -36.5q-23 0 -40 20t-17 54q0 23 17 96q17 72 17 107q0 102 -89 102
q-138 0 -341.5 -158.5t-345.5 -402t-142 -448.5q0 -137 81.5 -227.5t232.5 -90.5q87 0 211.5 43.5t228.5 116.5t123 73zM1563 1965q-4 -2 -10 -6q-7 -4 -18 -9q-67 -31 -278 -192q-87 -67 -132 -96l-23 -14q-26 0 -46 25t-20 51q0 51 153.5 167t275.5 184q46 26 69 45
q17 14 18 11q17 0 39.5 -37t22.5 -57q0 -12 -19 -38t-32 -34z" />
    <glyph glyph-name="cacute" unicode="&#x107;" horiz-adv-x="1038" 
d="M406 -57q-150 0 -230.5 86t-80.5 241q0 261 207 550.5t385 289.5q81 0 139.5 -87.5t58.5 -185.5q0 -59 -25.5 -101.5t-51.5 -42.5q-58 0 -82 117q-27 126 -78 126q-104 0 -246 -247t-142 -417t193 -170q147 0 346 138q70 49 103 49q34 0 34 -39q0 -76 -179 -191.5
t-351 -115.5zM1060 1509q-4 -2 -10 -6q-7 -4 -18 -9q-67 -31 -278 -192q-87 -67 -132 -96l-23 -14q-26 0 -46 25t-20 51q0 51 153.5 167t275.5 184q46 26 69 45q17 14 18 11q17 0 39.5 -37t22.5 -57q0 -12 -19 -38t-32 -34z" />
    <glyph glyph-name="Ccircumflex" unicode="&#x108;" horiz-adv-x="1432" 
d="M1178 302q39 0 39 -48q0 -50 -111 -143t-256.5 -148t-266.5 -55q-177 0 -322.5 117t-145.5 339q0 405 348.5 788.5t671.5 383.5q121 0 193.5 -74.5t72.5 -173.5q0 -92 -10.5 -145t-63.5 -89.5t-85 -36.5q-23 0 -40 20t-17 54q0 23 17 96q17 72 17 107q0 102 -89 102
q-138 0 -341.5 -158.5t-345.5 -402t-142 -448.5q0 -137 81.5 -227.5t232.5 -90.5q87 0 211.5 43.5t228.5 116.5t123 73zM1428 1914q6 -5 25 -27t51 -57q65 -71 74.5 -94t9.5 -40q0 -27 -20.5 -48t-42.5 -21q-42 0 -120 114q-25 39 -73 96q-46 56 -72 104q-29 70 -49 70
q-23 0 -148 -144q-92 -105 -141 -153t-75 -48q-56 0 -56 95q0 43 17 56l107 101q44 42 84 76q76 65 130 129q64 76 107 76q20 0 43.5 -32.5t90.5 -152.5q54 -99 58 -100z" />
    <glyph glyph-name="ccircumflex" unicode="&#x109;" horiz-adv-x="1038" 
d="M406 -57q-150 0 -230.5 86t-80.5 241q0 261 207 550.5t385 289.5q81 0 139.5 -87.5t58.5 -185.5q0 -59 -25.5 -101.5t-51.5 -42.5q-58 0 -82 117q-27 126 -78 126q-104 0 -246 -247t-142 -417t193 -170q147 0 346 138q70 49 103 49q34 0 34 -39q0 -76 -179 -191.5
t-351 -115.5zM951 1449q6 -5 25 -27t51 -57q65 -71 74.5 -94t9.5 -40q0 -27 -20.5 -48t-42.5 -21q-42 0 -120 114q-25 39 -73 96q-46 56 -72 104q-29 70 -49 70q-23 0 -148 -144q-92 -105 -141 -153t-75 -48q-56 0 -56 95q0 43 17 56l107 101q44 42 84 76q76 65 130 129
q64 76 107 76q20 0 43.5 -32.5t90.5 -152.5q54 -99 58 -100z" />
    <glyph glyph-name="Cdotaccent" unicode="&#x10a;" horiz-adv-x="1432" 
d="M1178 302q39 0 39 -48q0 -50 -111 -143t-256.5 -148t-266.5 -55q-177 0 -322.5 117t-145.5 339q0 405 348.5 788.5t671.5 383.5q121 0 193.5 -74.5t72.5 -173.5q0 -92 -10.5 -145t-63.5 -89.5t-85 -36.5q-23 0 -40 20t-17 54q0 23 17 96q17 72 17 107q0 102 -89 102
q-138 0 -341.5 -158.5t-345.5 -402t-142 -448.5q0 -137 81.5 -227.5t232.5 -90.5q87 0 211.5 43.5t228.5 116.5t123 73zM1185 1710q-33 0 -78 16.5t-45 53.5q0 42 39 103.5t72 61.5q61 0 98 -31t37 -88q0 -46 -38 -81t-85 -35z" />
    <glyph glyph-name="cdotaccent" unicode="&#x10b;" horiz-adv-x="1038" 
d="M406 -57q-150 0 -230.5 86t-80.5 241q0 261 207 550.5t385 289.5q81 0 139.5 -87.5t58.5 -185.5q0 -59 -25.5 -101.5t-51.5 -42.5q-58 0 -82 117q-27 126 -78 126q-104 0 -246 -247t-142 -417t193 -170q147 0 346 138q70 49 103 49q34 0 34 -39q0 -76 -179 -191.5
t-351 -115.5zM698 1220q-33 0 -78 16.5t-45 53.5q0 42 39 103.5t72 61.5q61 0 98 -31t37 -88q0 -46 -38 -81t-85 -35z" />
    <glyph glyph-name="Ccaron" unicode="&#x10c;" horiz-adv-x="1432" 
d="M1178 302q39 0 39 -48q0 -50 -111 -143t-256.5 -148t-266.5 -55q-177 0 -322.5 117t-145.5 339q0 405 348.5 788.5t671.5 383.5q121 0 193.5 -74.5t72.5 -173.5q0 -92 -10.5 -145t-63.5 -89.5t-85 -36.5q-23 0 -40 20t-17 54q0 23 17 96q17 72 17 107q0 102 -89 102
q-138 0 -341.5 -158.5t-345.5 -402t-142 -448.5q0 -137 81.5 -227.5t232.5 -90.5q87 0 211.5 43.5t228.5 116.5t123 73zM1364 1882q-112 -121 -163 -197q-16 -20 -60 -20q-42 0 -97 91q-170 274 -239 343q-19 18 -19 43q0 63 57 63q55 0 67.5 -15t62 -80t68.5 -99
q12 -24 17 -29q9 -9 40 -69q30 -55 60 -80q11 12 25 30q81 106 174.5 194.5t118.5 88.5q17 0 38 -24.5t21 -42.5q0 -43 -118 -146q-53 -48 -53 -51z" />
    <glyph glyph-name="ccaron" unicode="&#x10d;" horiz-adv-x="1038" 
d="M406 -57q-150 0 -230.5 86t-80.5 241q0 261 207 550.5t385 289.5q81 0 139.5 -87.5t58.5 -185.5q0 -59 -25.5 -101.5t-51.5 -42.5q-58 0 -82 117q-27 126 -78 126q-104 0 -246 -247t-142 -417t193 -170q147 0 346 138q70 49 103 49q34 0 34 -39q0 -76 -179 -191.5
t-351 -115.5zM887 1418q-112 -121 -163 -197q-16 -20 -60 -20q-42 0 -97 91q-170 274 -239 343q-19 18 -19 43q0 63 57 63q55 0 67.5 -15t62 -80t68.5 -99q12 -24 17 -29q9 -9 40 -69q30 -55 60 -80q11 12 25 30q81 106 174.5 194.5t118.5 88.5q17 0 38 -24.5t21 -42.5
q0 -43 -118 -146q-53 -48 -53 -51z" />
    <glyph glyph-name="Dcaron" unicode="&#x10e;" horiz-adv-x="1627" 
d="M330 1207q0 39 -45 51q-82 20 -82 69q0 37 32.5 72.5t69.5 35.5l140 -4q98 0 258 13q159 13 238 13q276 0 443.5 -155.5t167.5 -409.5q0 -279 -239.5 -508.5t-682.5 -335.5q-175 -42 -237 -85q-82 -56 -136 -56q-38 0 -67.5 40.5t-29.5 64.5q0 10 20 52q21 45 29.5 91
t14.5 165q5 118 36.5 381.5t51.5 373.5q18 96 18 132zM511 1274q-119 -715 -119 -1009q0 -65 13 -98q8 -7 31 -7q64 0 335 84t440 259t169 398q0 185 -130.5 295.5t-344.5 110.5q-130 0 -313 -24q-41 -6 -81 -9zM1208 1795q-112 -121 -163 -197q-16 -20 -60 -20
q-42 0 -97 91q-170 274 -239 343q-19 18 -19 43q0 63 57 63q55 0 67.5 -15t62 -80t68.5 -99q12 -24 17 -29q9 -9 40 -69q30 -55 60 -80q11 12 25 30q81 106 174.5 194.5t118.5 88.5q17 0 38 -24.5t21 -42.5q0 -43 -118 -146q-53 -48 -53 -51z" />
    <glyph glyph-name="dcaron" unicode="&#x10f;" horiz-adv-x="1669" 
d="M850 414q-134 -215 -284 -331.5t-276 -116.5q-97 0 -153.5 74.5t-56.5 198.5q0 253 205.5 519t443.5 266q104 0 193 -89l140 654q15 67 55.5 90t63.5 23q70 0 70 -124q0 -22 -46 -164q-73 -220 -138.5 -540.5t-65.5 -514.5q0 -200 87 -200q56 0 116 37q25 18 47 18
q32 0 32 -42q0 -51 -89.5 -118t-183.5 -67q-165 0 -165 318q0 54 5 109zM719 882q-162 0 -321 -219.5t-159 -405.5q0 -125 83 -125q78 0 189.5 82t229.5 261.5t118 269.5q0 44 -40.5 90.5t-99.5 46.5zM1330 1160q186 46 239 130.5t53 120.5q0 102 -28 144q-13 19 -13 37
q0 15 13.5 43t27.5 28q21 0 66 -15.5t53 -27t26.5 -74.5t18.5 -108q0 -17 -37.5 -105.5t-102.5 -138t-122 -60.5q-23 -4 -43 -11q-79 -35 -129 -35q-29 0 -29 47q0 18 7 25z" />
    <glyph glyph-name="Dcroat" unicode="&#x110;" horiz-adv-x="1627" 
d="M252 626q-65 -22 -84 -25q-45 0 -77.5 21.5t-32.5 62.5q0 20 21.5 51t40.5 39t60 20.5t95 23.5q27 203 37 256q18 96 18 132q0 39 -45 51q-82 20 -82 69q0 37 32.5 72.5t69.5 35.5l140 -4q98 0 258 13q159 13 238 13q276 0 443.5 -155.5t167.5 -409.5
q0 -279 -239.5 -508.5t-682.5 -335.5q-175 -42 -237 -85q-82 -56 -136 -56q-38 0 -67.5 40.5t-29.5 64.5q0 10 20 52q21 45 29.5 91t14.5 165q4 106 28 306zM511 1274q-17 -96 -66 -427q176 23 304 23q120 0 164 -18t44 -68q0 -39 -27 -66t-64 -27l-103 7q-66 5 -151 5
q-62 0 -190 -22l-4 -33q-26 -251 -26 -383q0 -65 13 -98q8 -7 31 -7q64 0 335 84t440 259t169 398q0 185 -130.5 295.5t-344.5 110.5q-130 0 -313 -24q-41 -6 -81 -9z" />
    <glyph glyph-name="dcroat" unicode="&#x111;" horiz-adv-x="1354" 
d="M850 414q-134 -215 -284 -331.5t-276 -116.5q-97 0 -153.5 74.5t-56.5 198.5q0 253 205.5 519t443.5 266q104 0 193 -89l70 319q-66 8 -118 8q-46 0 -139 -6t-141 -6t-77.5 10.5t-29.5 47.5q0 16 13.5 37.5t91.5 34t112 12.5l76 -11h73q94 0 166 3q34 169 48.5 218.5
t47 74.5t66.5 25q70 0 70 -124q0 -25 -51 -178h18q19 0 77.5 -23t69.5 -38.5t11 -41.5q0 -37 -15 -52t-65 -15q-22 0 -62 13t-67 13h-10q-156 -583 -156 -897q0 -200 87 -200q56 0 116 37q25 18 47 18q32 0 32 -42q0 -51 -89.5 -118t-183.5 -67q-165 0 -165 318q0 54 5 109z
M719 882q-162 0 -321 -219.5t-159 -405.5q0 -125 83 -125q78 0 189.5 82t229.5 261.5t118 269.5q0 44 -40.5 90.5t-99.5 46.5z" />
    <glyph glyph-name="Emacron" unicode="&#x112;" horiz-adv-x="1401" 
d="M1293 1290q-3 -1 -54.5 1t-105.5 -10q-54 -13 -96 -16q-29 -2 -63 -8q-43 -8 -170 -9q-191 -3 -240.5 -26t-55.5 -95q-5 -55 -21 -121q-49 -197 -49 -262l15 -1q47 -3 190 13t214 32q146 35 223 35q125 0 125 -67q0 -82 -83.5 -100.5t-348.5 -47.5q-324 -36 -345.5 -64.5
t-45.5 -183.5t-24 -198v-11q5 -50 64 -57l18 -1q55 -3 131 9l192 28q107 15 217 35q137 29 174 29q28 0 62.5 -23.5t34.5 -74.5q0 -37 -18 -51q-102 -45 -263 -50q-139 -5 -434 -47q-149 -22 -196 -22q-117 0 -146.5 18.5t-35.5 90.5l-4 34v4q0 16 18 65q25 71 58.5 270
t43.5 315q5 40 16 97q44 239 44 378q0 7 -20 37q-5 6 -7 10q-7 23 -13 38q-7 14 -7 33v10q0 22 27 39t52 17h3q42 0 96 -6h4q23 0 222 19t475 66q29 5 35 5l15 1q78 5 107.5 -15.5t36.5 -79.5q0 -28 -26 -54t-41 -28zM1191 1734q0 -40 -39 -60q-40 -17 -85 -17
q-33 0 -62.5 0.5t-74.5 0.5h-39.5t-29.5 -1q-17 0 -40 -5t-55 -15q-63 -18 -90 -18q-15 0 -28.5 6.5t-23 17.5t-15 25t-5.5 29q0 29 18.5 43.5t51.5 21.5q54 17 115 21q31 5 68.5 7t84.5 3t75 2t39 2q13 2 22 3t16.5 1.5l15 1t17.5 0.5q30 0 47 -19.5t17 -49.5z" />
    <glyph glyph-name="emacron" unicode="&#x113;" horiz-adv-x="1065" 
d="M989 339q0 -102 -180.5 -246t-372.5 -144q-161 0 -248.5 95t-87.5 265q0 286 193 544t422 258q75 0 122.5 -49t47.5 -118q0 -154 -151 -295t-404 -277q-52 -27 -52 -70q0 -83 48 -133t142 -50q215 0 439 238q33 33 50 33q32 0 32 -51zM294 495q424 252 424 405
q0 60 -54 60q-92 0 -207.5 -135t-162.5 -330zM915 1357q0 -40 -39 -60q-40 -17 -85 -17q-33 0 -62.5 0.5t-74.5 0.5h-39.5t-29.5 -1q-17 0 -40 -5t-55 -15q-63 -18 -90 -18q-15 0 -28.5 6.5t-23 17.5t-15 25t-5.5 29q0 29 18.5 43.5t51.5 21.5q54 17 115 21q31 5 68.5 7
t84.5 3t75 2t39 2q13 2 22 3t16.5 1.5l15 1t17.5 0.5q30 0 47 -19.5t17 -49.5z" />
    <glyph glyph-name="Ebreve" unicode="&#x114;" horiz-adv-x="1401" 
d="M1293 1290q-3 -1 -54.5 1t-105.5 -10q-54 -13 -96 -16q-29 -2 -63 -8q-43 -8 -170 -9q-191 -3 -240.5 -26t-55.5 -95q-5 -55 -21 -121q-49 -197 -49 -262l15 -1q47 -3 190 13t214 32q146 35 223 35q125 0 125 -67q0 -82 -83.5 -100.5t-348.5 -47.5q-324 -36 -345.5 -64.5
t-45.5 -183.5t-24 -198v-11q5 -50 64 -57l18 -1q55 -3 131 9l192 28q107 15 217 35q137 29 174 29q28 0 62.5 -23.5t34.5 -74.5q0 -37 -18 -51q-102 -45 -263 -50q-139 -5 -434 -47q-149 -22 -196 -22q-117 0 -146.5 18.5t-35.5 90.5l-4 34v4q0 16 18 65q25 71 58.5 270
t43.5 315q5 40 16 97q44 239 44 378q0 7 -20 37q-5 6 -7 10q-7 23 -13 38q-7 14 -7 33v10q0 22 27 39t52 17h3q42 0 96 -6h4q23 0 222 19t475 66q29 5 35 5l15 1q78 5 107.5 -15.5t36.5 -79.5q0 -28 -26 -54t-41 -28zM1140 1681q-30 -27 -114.5 -60t-149.5 -33
q-52 0 -151.5 64.5t-140.5 148t-41 99.5q0 27 23.5 59t46.5 32q18 0 32 -32q40 -95 104.5 -163.5t143.5 -68.5q162 0 262 148q7 12 39.5 47t42.5 35q15 0 32.5 -32t17.5 -50q0 -31 -49.5 -95.5t-97.5 -98.5z" />
    <glyph glyph-name="ebreve" unicode="&#x115;" horiz-adv-x="1065" 
d="M989 339q0 -102 -180.5 -246t-372.5 -144q-161 0 -248.5 95t-87.5 265q0 286 193 544t422 258q75 0 122.5 -49t47.5 -118q0 -154 -151 -295t-404 -277q-52 -27 -52 -70q0 -83 48 -133t142 -50q215 0 439 238q33 33 50 33q32 0 32 -51zM294 495q424 252 424 405
q0 60 -54 60q-92 0 -207.5 -135t-162.5 -330zM903 1306q-30 -27 -114.5 -60t-149.5 -33q-52 0 -151.5 64.5t-140.5 148t-41 99.5q0 27 23.5 59t46.5 32q18 0 32 -32q40 -95 104.5 -163.5t143.5 -68.5q162 0 262 148q7 12 39.5 47t42.5 35q15 0 32.5 -32t17.5 -50
q0 -31 -49.5 -95.5t-97.5 -98.5z" />
    <glyph glyph-name="Edotaccent" unicode="&#x116;" horiz-adv-x="1401" 
d="M1293 1290q-3 -1 -54.5 1t-105.5 -10q-54 -13 -96 -16q-29 -2 -63 -8q-43 -8 -170 -9q-191 -3 -240.5 -26t-55.5 -95q-5 -55 -21 -121q-49 -197 -49 -262l15 -1q47 -3 190 13t214 32q146 35 223 35q125 0 125 -67q0 -82 -83.5 -100.5t-348.5 -47.5q-324 -36 -345.5 -64.5
t-45.5 -183.5t-24 -198v-11q5 -50 64 -57l18 -1q55 -3 131 9l192 28q107 15 217 35q137 29 174 29q28 0 62.5 -23.5t34.5 -74.5q0 -37 -18 -51q-102 -45 -263 -50q-139 -5 -434 -47q-149 -22 -196 -22q-117 0 -146.5 18.5t-35.5 90.5l-4 34v4q0 16 18 65q25 71 58.5 270
t43.5 315q5 40 16 97q44 239 44 378q0 7 -20 37q-5 6 -7 10q-7 23 -13 38q-7 14 -7 33v10q0 22 27 39t52 17h3q42 0 96 -6h4q23 0 222 19t475 66q29 5 35 5l15 1q78 5 107.5 -15.5t36.5 -79.5q0 -28 -26 -54t-41 -28zM892 1610q-33 0 -78 16.5t-45 53.5q0 42 39 103.5
t72 61.5q61 0 98 -31t37 -88q0 -46 -38 -81t-85 -35z" />
    <glyph glyph-name="edotaccent" unicode="&#x117;" horiz-adv-x="1065" 
d="M989 339q0 -102 -180.5 -246t-372.5 -144q-161 0 -248.5 95t-87.5 265q0 286 193 544t422 258q75 0 122.5 -49t47.5 -118q0 -154 -151 -295t-404 -277q-52 -27 -52 -70q0 -83 48 -133t142 -50q215 0 439 238q33 33 50 33q32 0 32 -51zM294 495q424 252 424 405
q0 60 -54 60q-92 0 -207.5 -135t-162.5 -330zM618 1243q-33 0 -78 16.5t-45 53.5q0 42 39 103.5t72 61.5q61 0 98 -31t37 -88q0 -46 -38 -81t-85 -35z" />
    <glyph glyph-name="Eogonek" unicode="&#x118;" horiz-adv-x="1401" 
d="M1293 1290q-3 -1 -54.5 1t-105.5 -10q-54 -13 -96 -16q-29 -2 -63 -8q-43 -8 -170 -9q-191 -3 -240.5 -26t-55.5 -95q-5 -55 -21 -121q-49 -197 -49 -262l15 -1q47 -3 190 13t214 32q146 35 223 35q125 0 125 -67q0 -82 -83.5 -100.5t-348.5 -47.5q-324 -36 -345.5 -64.5
t-45.5 -183.5t-24 -198v-11q5 -50 64 -57l18 -1q55 -3 131 9l192 28q107 15 217 35q137 29 174 29q28 0 62.5 -23.5t34.5 -74.5q0 -29 -13 -46q-9 -10 -27 -26q-149 -127 -149 -254q0 -33 20 -56.5t54 -23.5q91 0 154 46q44 32 67 32t23 -57q0 -148 -283 -148
q-78 0 -125 52.5t-47 136.5q0 123 100 246q-194 -8 -489 -50q-149 -22 -196 -22q-117 0 -146.5 18.5t-35.5 90.5l-4 34v4q0 16 18 65q25 71 58.5 270t43.5 315q5 40 16 97q44 239 44 378q0 7 -20 37q-5 6 -7 10q-7 23 -13 38q-7 14 -7 33v10q0 22 27 39t52 17h3q42 0 96 -6
h4q23 0 222 19t475 66q29 5 35 5l15 1q78 5 107.5 -15.5t36.5 -79.5q0 -28 -26 -54t-41 -28z" />
    <glyph glyph-name="eogonek" unicode="&#x119;" horiz-adv-x="1065" 
d="M753 52q-8 -8 -20 -18q-144 -120 -144 -249q0 -33 20 -56.5t54 -23.5q91 0 154 46q44 32 67 32t23 -57q0 -148 -283 -148q-78 0 -125 52.5t-47 136.5q0 97 58 188q-37 -6 -74 -6q-161 0 -248.5 95t-87.5 265q0 286 193 544t422 258q75 0 122.5 -49t47.5 -118
q0 -154 -151 -295t-404 -277q-52 -27 -52 -70q0 -83 48 -133t142 -50q215 0 439 238q33 33 50 33q32 0 32 -51q0 -121 -236 -287zM294 495q424 252 424 405q0 60 -54 60q-92 0 -207.5 -135t-162.5 -330z" />
    <glyph glyph-name="Ecaron" unicode="&#x11a;" horiz-adv-x="1401" 
d="M1293 1290q-3 -1 -54.5 1t-105.5 -10q-54 -13 -96 -16q-29 -2 -63 -8q-43 -8 -170 -9q-191 -3 -240.5 -26t-55.5 -95q-5 -55 -21 -121q-49 -197 -49 -262l15 -1q47 -3 190 13t214 32q146 35 223 35q125 0 125 -67q0 -82 -83.5 -100.5t-348.5 -47.5q-324 -36 -345.5 -64.5
t-45.5 -183.5t-24 -198v-11q5 -50 64 -57l18 -1q55 -3 131 9l192 28q107 15 217 35q137 29 174 29q28 0 62.5 -23.5t34.5 -74.5q0 -37 -18 -51q-102 -45 -263 -50q-139 -5 -434 -47q-149 -22 -196 -22q-117 0 -146.5 18.5t-35.5 90.5l-4 34v4q0 16 18 65q25 71 58.5 270
t43.5 315q5 40 16 97q44 239 44 378q0 7 -20 37q-5 6 -7 10q-7 23 -13 38q-7 14 -7 33v10q0 22 27 39t52 17h3q42 0 96 -6h4q23 0 222 19t475 66q29 5 35 5l15 1q78 5 107.5 -15.5t36.5 -79.5q0 -28 -26 -54t-41 -28zM1144 1798q-112 -121 -163 -197q-16 -20 -60 -20
q-42 0 -97 91q-170 274 -239 343q-19 18 -19 43q0 63 57 63q55 0 67.5 -15t62 -80t68.5 -99q12 -24 17 -29q9 -9 40 -69q30 -55 60 -80q11 12 25 30q81 106 174.5 194.5t118.5 88.5q17 0 38 -24.5t21 -42.5q0 -43 -118 -146q-53 -48 -53 -51z" />
    <glyph glyph-name="ecaron" unicode="&#x11b;" horiz-adv-x="1065" 
d="M989 339q0 -102 -180.5 -246t-372.5 -144q-161 0 -248.5 95t-87.5 265q0 286 193 544t422 258q75 0 122.5 -49t47.5 -118q0 -154 -151 -295t-404 -277q-52 -27 -52 -70q0 -83 48 -133t142 -50q215 0 439 238q33 33 50 33q32 0 32 -51zM294 495q424 252 424 405
q0 60 -54 60q-92 0 -207.5 -135t-162.5 -330zM881 1434q-112 -121 -163 -197q-16 -20 -60 -20q-42 0 -97 91q-170 274 -239 343q-19 18 -19 43q0 63 57 63q55 0 67.5 -15t62 -80t68.5 -99q12 -24 17 -29q9 -9 40 -69q30 -55 60 -80q11 12 25 30q81 106 174.5 194.5
t118.5 88.5q17 0 38 -24.5t21 -42.5q0 -43 -118 -146q-53 -48 -53 -51z" />
    <glyph glyph-name="Gcircumflex" unicode="&#x11c;" horiz-adv-x="1589" 
d="M1150 294q-368 -289 -665 -289q-168 0 -267 99.5t-99 275.5q0 423 361 789.5t748 366.5q114 0 182.5 -41t68.5 -104q0 -55 -41.5 -121.5t-80.5 -66.5q-26 0 -43 41q-28 65 -61 90t-101 25q-174 0 -391 -166t-342.5 -380.5t-125.5 -415.5q0 -234 215 -234q99 0 228.5 49.5
t277 150t179 176.5t49.5 207q10 71 104 71q101 0 101 -62q0 -28 -30 -100q-49 -116 -73 -211t-43.5 -220t-19.5 -178q0 -47 18 -139q3 -19 3 -32q0 -35 -26.5 -68t-65.5 -33q-43 0 -84.5 33.5t-41.5 74.5q0 32 46 287q14 80 20 125zM1456 1888q6 -5 25 -27t51 -57
q65 -71 74.5 -94t9.5 -40q0 -27 -20.5 -48t-42.5 -21q-42 0 -120 114q-25 39 -73 96q-46 56 -72 104q-29 70 -49 70q-23 0 -148 -144q-92 -105 -141 -153t-75 -48q-56 0 -56 95q0 43 17 56l107 101q44 42 84 76q76 65 130 129q64 76 107 76q20 0 43.5 -32.5t90.5 -152.5
q54 -99 58 -100z" />
    <glyph glyph-name="gcircumflex" unicode="&#x11d;" horiz-adv-x="1176" 
d="M840 362q-12 9 -67 -56q-91 -107 -232.5 -190t-262.5 -83q-90 0 -141 56.5t-51 156.5q0 155 117 345.5t327.5 332.5t368.5 142q83 0 146 -48q15 -12 26 -20q18 -13 34 -52.5t16 -63.5q0 -15 -11 -46q-61 -166 -83 -275t-48 -367q-24 -232 -52 -357t-101 -242t-175 -175.5
t-210 -58.5q-187 0 -369 129t-182 207q0 49 37 49q18 0 107 -59q235 -157 423 -157q164 0 249.5 175t116.5 523q7 79 17 134zM838 911q-85 0 -212.5 -88t-247.5 -258t-120 -285q0 -39 24.5 -61.5t54.5 -22.5q89 0 232.5 92t247 255.5t103.5 256.5q0 111 -82 111zM1086 1428
q6 -5 25 -27t51 -57q65 -71 74.5 -94t9.5 -40q0 -27 -20.5 -48t-42.5 -21q-42 0 -120 114q-25 39 -73 96q-46 56 -72 104q-29 70 -49 70q-23 0 -148 -144q-92 -105 -141 -153t-75 -48q-56 0 -56 95q0 43 17 56l107 101q44 42 84 76q76 65 130 129q64 76 107 76
q20 0 43.5 -32.5t90.5 -152.5q54 -99 58 -100z" />
    <glyph glyph-name="Gbreve" unicode="&#x11e;" horiz-adv-x="1589" 
d="M1150 294q-368 -289 -665 -289q-168 0 -267 99.5t-99 275.5q0 423 361 789.5t748 366.5q114 0 182.5 -41t68.5 -104q0 -55 -41.5 -121.5t-80.5 -66.5q-26 0 -43 41q-28 65 -61 90t-101 25q-174 0 -391 -166t-342.5 -380.5t-125.5 -415.5q0 -234 215 -234q99 0 228.5 49.5
t277 150t179 176.5t49.5 207q10 71 104 71q101 0 101 -62q0 -28 -30 -100q-49 -116 -73 -211t-43.5 -220t-19.5 -178q0 -47 18 -139q3 -19 3 -32q0 -35 -26.5 -68t-65.5 -33q-43 0 -84.5 33.5t-41.5 74.5q0 32 46 287q14 80 20 125zM1500 1799q-30 -27 -114.5 -60
t-149.5 -33q-52 0 -151.5 64.5t-140.5 148t-41 99.5q0 27 23.5 59t46.5 32q18 0 32 -32q40 -95 104.5 -163.5t143.5 -68.5q162 0 262 148q7 12 39.5 47t42.5 35q15 0 32.5 -32t17.5 -50q0 -31 -49.5 -95.5t-97.5 -98.5z" />
    <glyph glyph-name="gbreve" unicode="&#x11f;" horiz-adv-x="1176" 
d="M840 362q-12 9 -67 -56q-91 -107 -232.5 -190t-262.5 -83q-90 0 -141 56.5t-51 156.5q0 155 117 345.5t327.5 332.5t368.5 142q83 0 146 -48q15 -12 26 -20q18 -13 34 -52.5t16 -63.5q0 -15 -11 -46q-61 -166 -83 -275t-48 -367q-24 -232 -52 -357t-101 -242t-175 -175.5
t-210 -58.5q-187 0 -369 129t-182 207q0 49 37 49q18 0 107 -59q235 -157 423 -157q164 0 249.5 175t116.5 523q7 79 17 134zM838 911q-85 0 -212.5 -88t-247.5 -258t-120 -285q0 -39 24.5 -61.5t54.5 -22.5q89 0 232.5 92t247 255.5t103.5 256.5q0 111 -82 111zM1103 1316
q-30 -27 -114.5 -60t-149.5 -33q-52 0 -151.5 64.5t-140.5 148t-41 99.5q0 27 23.5 59t46.5 32q18 0 32 -32q40 -95 104.5 -163.5t143.5 -68.5q162 0 262 148q7 12 39.5 47t42.5 35q15 0 32.5 -32t17.5 -50q0 -31 -49.5 -95.5t-97.5 -98.5z" />
    <glyph glyph-name="Gdotaccent" unicode="&#x120;" horiz-adv-x="1589" 
d="M1150 294q-368 -289 -665 -289q-168 0 -267 99.5t-99 275.5q0 423 361 789.5t748 366.5q114 0 182.5 -41t68.5 -104q0 -55 -41.5 -121.5t-80.5 -66.5q-26 0 -43 41q-28 65 -61 90t-101 25q-174 0 -391 -166t-342.5 -380.5t-125.5 -415.5q0 -234 215 -234q99 0 228.5 49.5
t277 150t179 176.5t49.5 207q10 71 104 71q101 0 101 -62q0 -28 -30 -100q-49 -116 -73 -211t-43.5 -220t-19.5 -178q0 -47 18 -139q3 -19 3 -32q0 -35 -26.5 -68t-65.5 -33q-43 0 -84.5 33.5t-41.5 74.5q0 32 46 287q14 80 20 125zM1289 1718q-33 0 -78 16.5t-45 53.5
q0 42 39 103.5t72 61.5q61 0 98 -31t37 -88q0 -46 -38 -81t-85 -35z" />
    <glyph glyph-name="gdotaccent" unicode="&#x121;" horiz-adv-x="1176" 
d="M840 362q-12 9 -67 -56q-91 -107 -232.5 -190t-262.5 -83q-90 0 -141 56.5t-51 156.5q0 155 117 345.5t327.5 332.5t368.5 142q83 0 146 -48q15 -12 26 -20q18 -13 34 -52.5t16 -63.5q0 -15 -11 -46q-61 -166 -83 -275t-48 -367q-24 -232 -52 -357t-101 -242t-175 -175.5
t-210 -58.5q-187 0 -369 129t-182 207q0 49 37 49q18 0 107 -59q235 -157 423 -157q164 0 249.5 175t116.5 523q7 79 17 134zM838 911q-85 0 -212.5 -88t-247.5 -258t-120 -285q0 -39 24.5 -61.5t54.5 -22.5q89 0 232.5 92t247 255.5t103.5 256.5q0 111 -82 111zM889 1226
q-33 0 -78 16.5t-45 53.5q0 42 39 103.5t72 61.5q61 0 98 -31t37 -88q0 -46 -38 -81t-85 -35z" />
    <glyph glyph-name="Gcommaaccent" unicode="&#x122;" horiz-adv-x="1589" 
d="M1150 294q-368 -289 -665 -289q-168 0 -267 99.5t-99 275.5q0 423 361 789.5t748 366.5q114 0 182.5 -41t68.5 -104q0 -55 -41.5 -121.5t-80.5 -66.5q-26 0 -43 41q-28 65 -61 90t-101 25q-174 0 -391 -166t-342.5 -380.5t-125.5 -415.5q0 -234 215 -234q99 0 228.5 49.5
t277 150t179 176.5t49.5 207q10 71 104 71q101 0 101 -62q0 -28 -30 -100q-49 -116 -73 -211t-43.5 -220t-19.5 -178q0 -47 18 -139q3 -19 3 -32q0 -35 -26.5 -68t-65.5 -33q-43 0 -84.5 33.5t-41.5 74.5q0 32 46 287q14 80 20 125zM356 -591q186 46 239 130.5t53 120.5
q0 102 -28 144q-13 19 -13 37q0 15 13.5 43t27.5 28q21 0 66 -15.5t53 -27t26.5 -74.5t18.5 -108q0 -17 -37.5 -105.5t-102.5 -138t-122 -60.5q-23 -4 -43 -11q-79 -35 -129 -35q-29 0 -29 47q0 18 7 25z" />
    <glyph glyph-name="gcommaaccent" unicode="&#x123;" horiz-adv-x="1176" 
d="M1059 1625q-21 -15 -41 -33q-26 -29 -59 -46q-37 -19 -48 -31t-24.5 -47t-13.5 -73q0 -27 29 -77q30 -48 30 -70q0 -19 -17.5 -46.5t-35.5 -27.5q-54 0 -104.5 81.5t-50.5 127.5q0 85 86.5 202.5t162.5 143.5l15 8q7 3 15 8q32 17 48 17q12 0 42 -35t30 -45
q0 -17 -20.5 -30.5t-43.5 -26.5zM840 362q-12 9 -67 -56q-91 -107 -232.5 -190t-262.5 -83q-90 0 -141 56.5t-51 156.5q0 155 117 345.5t327.5 332.5t368.5 142q83 0 146 -48q15 -12 26 -20q18 -13 34 -52.5t16 -63.5q0 -15 -11 -46q-61 -166 -83 -275t-48 -367
q-24 -232 -52 -357t-101 -242t-175 -175.5t-210 -58.5q-187 0 -369 129t-182 207q0 49 37 49q18 0 107 -59q235 -157 423 -157q164 0 249.5 175t116.5 523q7 79 17 134zM838 911q-85 0 -212.5 -88t-247.5 -258t-120 -285q0 -39 24.5 -61.5t54.5 -22.5q89 0 232.5 92
t247 255.5t103.5 256.5q0 111 -82 111z" />
    <glyph glyph-name="Hcircumflex" unicode="&#x124;" horiz-adv-x="1650" 
d="M1464 1529q38 0 67 -27.5t29 -69.5q0 -71 -44 -311q-54 -294 -76 -626.5t-22 -416.5q0 -46 -41.5 -91t-72.5 -45q-33 0 -62 26.5t-29 66.5q0 36 31 255q26 185 26 267q0 48 -14 66t-47 18q-50 0 -196 -11q-158 -13 -197 -13q-41 0 -208.5 -13t-185 -22.5t-36 -132
t-22.5 -203.5q-5 -139 -31.5 -229.5t-68.5 -90.5q-29 0 -71.5 45.5t-42.5 91.5q0 40 24 137q33 133 79.5 475t80.5 711q2 24 27 49t53 25q98 0 98 -141q0 -83 -36 -267q-32 -166 -32 -240q0 -31 20 -45t95 -14q164 0 441.5 26.5t299 76t44 225t22.5 366.5q0 22 31 52t67 30z
M1209 1895q6 -5 25 -27t51 -57q65 -71 74.5 -94t9.5 -40q0 -27 -20.5 -48t-42.5 -21q-42 0 -120 114q-25 39 -73 96q-46 56 -72 104q-29 70 -49 70q-23 0 -148 -144q-92 -105 -141 -153t-75 -48q-56 0 -56 95q0 43 17 56l107 101q44 42 84 76q76 65 130 129q64 76 107 76
q20 0 43.5 -32.5t90.5 -152.5q54 -99 58 -100z" />
    <glyph glyph-name="hcircumflex" unicode="&#x125;" horiz-adv-x="1282" 
d="M297 300q372 687 613 687q64 0 104 -73t65 -324q25 -267 113 -386q45 -61 45 -90q0 -26 -30 -48t-64 -22q-78 0 -138 87.5t-77 307.5q-17 208 -36 272t-63 64q-105 0 -423 -549q-95 -164 -140 -214.5t-82 -50.5q-44 0 -74 26t-30 64q0 28 16 108q123 635 194 1256
q16 145 51.5 193t59.5 48q43 0 78 -35t35 -97q0 -184 -90 -505q-44 -159 -93 -404t-49 -303q0 -12 11 -12h4zM710 1984q6 -5 25 -27t51 -57q65 -71 74.5 -94t9.5 -40q0 -27 -20.5 -48t-42.5 -21q-42 0 -120 114q-25 39 -73 96q-46 56 -72 104q-29 70 -49 70q-23 0 -148 -144
q-92 -105 -141 -153t-75 -48q-56 0 -56 95q0 43 17 56l107 101q44 42 84 76q76 65 130 129q64 76 107 76q20 0 43.5 -32.5t90.5 -152.5q54 -99 58 -100z" />
    <glyph glyph-name="Hbar" unicode="&#x126;" horiz-adv-x="1650" 
d="M1501 1037q-36 -200 -59.5 -526t-23.5 -433q0 -46 -41.5 -91t-72.5 -45q-33 0 -62 26.5t-29 66.5q0 36 31 255q26 185 26 267q0 48 -14 66t-47 18q-50 0 -196 -11q-158 -13 -197 -13q-41 0 -208.5 -13t-185 -22.5t-36 -132t-22.5 -203.5q-5 -139 -31.5 -229.5
t-68.5 -90.5q-29 0 -71.5 45.5t-42.5 91.5q0 40 24 137q47 187 114 753q-24 0 -184 -20q-5 0 -20 7q-16 7 -27 7q-12 10 -12 38q0 59 30 80t152 28q29 0 79 13l22 237q10 117 86 117q98 0 98 -141q0 -69 -20 -184q115 12 420 22l184 6q28 2 87.5 3t170.5 16q12 146 12 265
q0 22 31 52t67 30q38 0 67 -27.5t29 -69.5q0 -73 -29 -231l35 4q16 1 31 3q122 0 122 -47q0 -23 -18.5 -68.5t-34.5 -45.5zM1336 1029l-106 -10q-55 -5 -90 -10l-12 -2q-382 0 -667 -32q-18 -103 -18 -159q0 -29 6 -38t31 -17t79 -8q160 0 434.5 25.5t298 67.5t44.5 183z
" />
    <glyph glyph-name="hbar" unicode="&#x127;" horiz-adv-x="1282" 
d="M1168 1185q-6 -4 -72 -13q-48 0 -79 8q-65 10 -84 4q-27 0 -119 -16l-251 -8q-20 -3 -47 -6t-62 -8q-18 -75 -37 -144q-39 -134 -88.5 -382t-49.5 -308q0 -12 11 -12h4q372 687 613 687q64 0 104 -73t65 -324q25 -267 113 -386q45 -61 45 -90q0 -26 -30 -48t-64 -22
q-78 0 -138 87.5t-77 307.5q-17 208 -36 272t-63 64q-105 0 -423 -549q-95 -164 -140 -214.5t-82 -50.5q-44 0 -74 26t-30 64q0 28 16 108q105 541 158 960l-19 -1h-17q-34 -5 -60 -5q-80 0 -80 57q0 33 35 52.5t159 43.5l14 122q17 165 53.5 216.5t61.5 51.5q43 0 78 -35
t35 -97q0 -107 -27 -247l43 3q174 12 348 44q59 17 118 17q25 0 99.5 -17t87.5 -39.5t13 -40.5q0 -34 -25 -59z" />
    <glyph glyph-name="Itilde" unicode="&#x128;" horiz-adv-x="649" 
d="M538 1325q-6 -39 -67 -279q-29 -113 -38 -190q-6 -52 -15 -113q-40 -256 -40 -350q0 -141 17 -277q10 -79 -28 -114t-76 -35q-54 0 -75 60.5t-21 195.5q0 141 40 390q14 94 16 113q2 34 8 70q5 35 8 70q6 93 36 243q22 113 32 199q7 60 16 81t46.5 46t56.5 25
q42 0 63 -40.5t21 -94.5zM484 1757q-17 16 -30 31q-47 49 -93 49q-34 0 -62 -21t-83 -85q-50 -64 -74.5 -84t-55.5 -20q-49 0 -49 53q0 71 111 184.5t184 113.5q68 0 102 -13.5t79 -58.5q39 -41 71 -63q15 -10 31 -22q63 -47 89 -47q27 0 50 19.5t75 90.5q46 65 64 65
q54 0 54 -59q0 -39 -76 -144.5t-151 -105.5q-79 0 -129.5 31t-94.5 75q-10 10 -12 11z" />
    <glyph glyph-name="itilde" unicode="&#x129;" horiz-adv-x="592" 
d="M324 222q0 -76 21 -171q4 -18 4 -30q0 -18 -33 -46.5t-70 -28.5q-97 0 -97 178q0 184 76 582q26 139 26 171q0 63 23 107.5t65 44.5q51 0 80.5 -24.5t29.5 -54.5t-14 -79q-75 -264 -93 -378t-18 -271zM396 1289q-17 16 -30 31q-47 49 -93 49q-34 0 -62 -21t-83 -85
q-50 -64 -74.5 -84t-55.5 -20q-49 0 -49 53q0 71 111 184.5t184 113.5q68 0 102 -13.5t79 -58.5q39 -41 71 -63q15 -10 31 -22q63 -47 89 -47q27 0 50 19.5t75 90.5q46 65 64 65q54 0 54 -59q0 -39 -76 -144.5t-151 -105.5q-79 0 -129.5 31t-94.5 75q-10 10 -12 11z" />
    <glyph glyph-name="Imacron" unicode="&#x12a;" horiz-adv-x="649" 
d="M538 1325q-6 -39 -67 -279q-29 -113 -38 -190q-6 -52 -15 -113q-40 -256 -40 -350q0 -141 17 -277q10 -79 -28 -114t-76 -35q-54 0 -75 60.5t-21 195.5q0 141 40 390q14 94 16 113q2 34 8 70q5 35 8 70q6 93 36 243q22 113 32 199q7 60 16 81t46.5 46t56.5 25
q42 0 63 -40.5t21 -94.5zM780 1784q0 -40 -39 -60q-40 -17 -85 -17q-33 0 -62.5 0.5t-74.5 0.5h-39.5t-29.5 -1q-17 0 -40 -5t-55 -15q-63 -18 -90 -18q-15 0 -28.5 6.5t-23 17.5t-15 25t-5.5 29q0 29 18.5 43.5t51.5 21.5q54 17 115 21q31 5 68.5 7t84.5 3t75 2t39 2
q13 2 22 3t16.5 1.5l15 1t17.5 0.5q30 0 47 -19.5t17 -49.5z" />
    <glyph glyph-name="imacron" unicode="&#x12b;" horiz-adv-x="592" 
d="M324 222q0 -76 21 -171q4 -18 4 -30q0 -18 -33 -46.5t-70 -28.5q-97 0 -97 178q0 184 76 582q26 139 26 171q0 63 23 107.5t65 44.5q51 0 80.5 -24.5t29.5 -54.5t-14 -79q-75 -264 -93 -378t-18 -271zM694 1284q0 -40 -39 -60q-40 -17 -85 -17q-33 0 -62.5 0.5t-74.5 0.5
h-39.5t-29.5 -1q-17 0 -40 -5t-55 -15q-63 -18 -90 -18q-15 0 -28.5 6.5t-23 17.5t-15 25t-5.5 29q0 29 18.5 43.5t51.5 21.5q54 17 115 21q31 5 68.5 7t84.5 3t75 2t39 2q13 2 22 3t16.5 1.5l15 1t17.5 0.5q30 0 47 -19.5t17 -49.5z" />
    <glyph glyph-name="Ibreve" unicode="&#x12c;" horiz-adv-x="649" 
d="M538 1325q-6 -39 -67 -279q-29 -113 -38 -190q-6 -52 -15 -113q-40 -256 -40 -350q0 -141 17 -277q10 -79 -28 -114t-76 -35q-54 0 -75 60.5t-21 195.5q0 141 40 390q14 94 16 113q2 34 8 70q5 35 8 70q6 93 36 243q22 113 32 199q7 60 16 81t46.5 46t56.5 25
q42 0 63 -40.5t21 -94.5zM718 1703q-30 -27 -114.5 -60t-149.5 -33q-52 0 -151.5 64.5t-140.5 148t-41 99.5q0 27 23.5 59t46.5 32q18 0 32 -32q40 -95 104.5 -163.5t143.5 -68.5q162 0 262 148q7 12 39.5 47t42.5 35q15 0 32.5 -32t17.5 -50q0 -31 -49.5 -95.5t-97.5 -98.5
z" />
    <glyph glyph-name="ibreve" unicode="&#x12d;" horiz-adv-x="592" 
d="M324 222q0 -76 21 -171q4 -18 4 -30q0 -18 -33 -46.5t-70 -28.5q-97 0 -97 178q0 184 76 582q26 139 26 171q0 63 23 107.5t65 44.5q51 0 80.5 -24.5t29.5 -54.5t-14 -79q-75 -264 -93 -378t-18 -271zM639 1243q-30 -27 -114.5 -60t-149.5 -33q-52 0 -151.5 64.5
t-140.5 148t-41 99.5q0 27 23.5 59t46.5 32q18 0 32 -32q40 -95 104.5 -163.5t143.5 -68.5q162 0 262 148q7 12 39.5 47t42.5 35q15 0 32.5 -32t17.5 -50q0 -31 -49.5 -95.5t-97.5 -98.5z" />
    <glyph glyph-name="Iogonek" unicode="&#x12e;" horiz-adv-x="649" 
d="M192 42q5 2 15 10q-14 52 -14 171q0 141 40 390q14 94 16 113q2 34 8 70q5 35 8 70q6 93 36 243q22 113 32 199q7 60 16 81t46.5 46t56.5 25q42 0 63 -40.5t21 -94.5q-6 -39 -67 -279q-29 -113 -38 -190q-6 -52 -15 -113q-40 -256 -40 -350q0 -141 17 -277q7 -54 -7 -82
q-1 -5 -3 -8q-3 -4 -6 -9q-23 -34 -60 -45q-5 -4 -11 -7q-92 -42 -155 -113t-63 -125q0 -85 118 -80q37 -7 97 14q44 15 59 15q26 0 26 -32q0 -44 -33 -86.5t-165 -42.5q-137 0 -190.5 63.5t-53.5 127.5q0 174 246 336z" />
    <glyph glyph-name="iogonek" unicode="&#x12f;" horiz-adv-x="592" 
d="M453 1339q-21 0 -32 45q-4 14 -11 31q-27 65 -27 113q0 40 47.5 81.5t105.5 41.5q29 0 65 -22.5t36 -43.5q0 -33 -24.5 -112t-78 -106.5t-81.5 -27.5zM161 16q-14 40 -14 108q0 184 76 582q26 139 26 171q0 63 23 107.5t65 44.5q51 0 80.5 -24.5t29.5 -54.5t-14 -79
q-75 -264 -93 -378t-18 -271q0 -68 22 -176q0 -4 1 -6q2 -10 2 -19v-14q0 -27 -36 -45q-10 -6 -23 -15q-14 -10 -36 -21q-91 -45 -147.5 -112.5t-56.5 -118.5q0 -85 118 -80q37 -7 97 14q44 15 59 15q26 0 26 -32q0 -44 -33 -86.5t-165 -42.5q-137 0 -190.5 63.5
t-53.5 127.5q0 172 246 336z" />
    <glyph glyph-name="Idotaccent" unicode="&#x130;" horiz-adv-x="649" 
d="M538 1325q-6 -39 -67 -279q-29 -113 -38 -190q-6 -52 -15 -113q-40 -256 -40 -350q0 -141 17 -277q10 -79 -28 -114t-76 -35q-54 0 -75 60.5t-21 195.5q0 141 40 390q14 94 16 113q2 34 8 70q5 35 8 70q6 93 36 243q22 113 32 199q7 60 16 81t46.5 46t56.5 25
q42 0 63 -40.5t21 -94.5zM574 1643q-33 0 -78 16.5t-45 53.5q0 42 39 103.5t72 61.5q61 0 98 -31t37 -88q0 -46 -38 -81t-85 -35z" />
    <glyph glyph-name="dotlessi" unicode="&#x131;" horiz-adv-x="592" 
d="M324 222q0 -76 21 -171q4 -18 4 -30q0 -18 -33 -46.5t-70 -28.5q-97 0 -97 178q0 184 76 582q26 139 26 171q0 63 23 107.5t65 44.5q51 0 80.5 -24.5t29.5 -54.5t-14 -79q-75 -264 -93 -378t-18 -271z" />
    <glyph glyph-name="IJ" unicode="&#x132;" horiz-adv-x="1869" 
d="M538 1325q-6 -39 -67 -279q-29 -113 -38 -190q-6 -52 -15 -113q-40 -256 -40 -350q0 -141 17 -277q10 -79 -28 -114t-76 -35q-54 0 -75 60.5t-21 195.5q0 141 40 390q14 94 16 113q2 34 8 70q5 35 8 70q6 93 36 243q22 113 32 199q7 60 16 81t46.5 46t56.5 25
q42 0 63 -40.5t21 -94.5zM1666 1510q31 0 55.5 -22t24.5 -49q0 -245 -57.5 -652.5t-184.5 -603.5t-343 -196q-165 0 -343.5 121t-178.5 205q0 88 99 88q31 0 87 -55q184 -185 339 -185q135 0 218.5 144.5t134.5 484t51 637.5q0 31 33 57t65 26z" />
    <glyph glyph-name="ij" unicode="&#x133;" horiz-adv-x="1252" 
d="M455 1339q-21 0 -32 45q-4 14 -11 31q-27 65 -27 113q0 40 47.5 81.5t105.5 41.5q29 0 65 -22.5t36 -43.5q0 -33 -24.5 -112t-78 -106.5t-81.5 -27.5zM324 222q0 -76 21 -171q4 -18 4 -30q0 -18 -33 -46.5t-70 -28.5q-97 0 -97 178q0 184 76 582q26 139 26 171
q0 63 23 107.5t65 44.5q51 0 80.5 -24.5t29.5 -54.5t-14 -79q-75 -264 -93 -378t-18 -271zM1004 1617h3q28 0 84 -20t73.5 -33.5t17.5 -45.5q0 -62 -57 -108.5t-85 -46.5q-48 0 -84 42t-36 84q0 108 84 128zM599 -635q-119 0 -230.5 99.5t-111.5 171.5q0 20 14 39.5t21 19.5
t31 -20q157 -138 253 -138q79 0 136 75.5t82 280t47 635.5q15 311 26.5 395t47.5 117.5t92 33.5q29 0 54.5 -22.5t25.5 -54.5q0 -18 -7 -49q-73 -316 -95 -823q-14 -306 -57 -453t-132.5 -227t-196.5 -80z" />
    <glyph glyph-name="Jcircumflex" unicode="&#x134;" horiz-adv-x="1220" 
d="M1017 1510q31 0 55.5 -22t24.5 -49q0 -245 -57.5 -652.5t-184.5 -603.5t-343 -196q-165 0 -343.5 121t-178.5 205q0 88 99 88q31 0 87 -55q184 -185 339 -185q135 0 218.5 144.5t134.5 484t51 637.5q0 31 33 57t65 26zM1274 1874q6 -5 25 -27t51 -57q65 -71 74.5 -94
t9.5 -40q0 -27 -20.5 -48t-42.5 -21q-42 0 -120 114q-25 39 -73 96q-46 56 -72 104q-29 70 -49 70q-23 0 -148 -144q-92 -105 -141 -153t-75 -48q-56 0 -56 95q0 43 17 56l107 101q44 42 84 76q76 65 130 129q64 76 107 76q20 0 43.5 -32.5t90.5 -152.5q54 -99 58 -100z" />
    <glyph glyph-name="jcircumflex" unicode="&#x135;" horiz-adv-x="660" 
d="M674 1377q6 -5 25 -27t51 -57q65 -71 74.5 -94t9.5 -40q0 -27 -20.5 -48t-42.5 -21q-42 0 -120 114q-25 39 -73 96q-46 56 -72 104q-29 70 -49 70q-23 0 -148 -144q-92 -105 -141 -153t-75 -48q-56 0 -56 95q0 43 17 56l107 101q44 42 84 76q76 65 130 129q64 76 107 76
q20 0 43.5 -32.5t90.5 -152.5q54 -99 58 -100zM7 -635q-119 0 -230.5 99.5t-111.5 171.5q0 20 14 39.5t21 19.5t31 -20q157 -138 253 -138q79 0 136 75.5t82 280t47 635.5q15 311 26.5 395t47.5 117.5t92 33.5q29 0 54.5 -22.5t25.5 -54.5q0 -18 -7 -49q-73 -316 -95 -823
q-14 -306 -57 -453t-132.5 -227t-196.5 -80z" />
    <glyph glyph-name="Kcommaaccent" unicode="&#x136;" horiz-adv-x="1524" 
d="M622 642q55 -39 240 -184q195 -153 297 -221.5t145.5 -80.5t158.5 -20q4 -14 4 -31q0 -64 -33.5 -99.5t-90.5 -35.5q-58 0 -139 42.5t-295 203.5l-228 173q-117 93 -219 137q-25 4 -61 -26q-31 -63 -44 -159t-13 -149q-14 -275 -114 -275q-39 0 -62 25.5t-23 64.5
q0 29 13 82q30 124 83 720q18 183 45 368t41 219t37 50t44 16q93 0 91 -113q-69 -284 -86 -528q-6 -77 -16 -153q0 -4 0.5 -7.5t10.5 1t63.5 44t116 92t99.5 93.5q23 27 61 61q124 111 184 175.5t112 153.5q73 128 105 128q35 0 73 -37.5t38 -74.5q0 -96 -304 -362
q-67 -58 -86 -77q-34 -32 -248 -216zM631 -48q3 10 40.5 26.5t53.5 16.5t62 -47l27 -28q45 -45 69 -104q10 -21 10 -67q0 -85 -59.5 -255.5t-141.5 -170.5q-30 0 -52 18t-22 46q0 51 41 86q95 84 95 215q0 50 -85 125q-27 24 -32 30.5t-7 55.5t1 53z" />
    <glyph glyph-name="kcommaaccent" unicode="&#x137;" horiz-adv-x="1211" 
d="M327 467q13 17 179 161q157 137 219 199q231 231 332 231q78 0 78 -75q0 -85 -77 -125q-100 -51 -267 -169.5t-167 -167.5q0 -20 118 -149.5t204 -191t167 -61.5l33 1q35 2 35 -31q0 -44 -55 -89.5t-145 -45.5q-58 0 -117.5 40.5t-211.5 218.5q-121 147 -151 175.5
t-50 28.5q-11 0 -70 -52t-64.5 -79t-5.5 -206v-47q0 -37 -35 -66t-76 -29q-42 0 -66 24.5t-24 50.5q0 36 27 170q38 193 70 517q74 765 114 865.5t114 100.5q26 0 43.5 -28t17.5 -72q0 -80 -69 -425q-69 -346 -100 -674zM267 -596q186 46 239 130.5t53 120.5q0 102 -28 144
q-13 19 -13 37q0 15 13.5 43t27.5 28q21 0 66 -15.5t53 -27t26.5 -74.5t18.5 -108q0 -17 -37.5 -105.5t-102.5 -138t-122 -60.5q-23 -4 -43 -11q-79 -35 -129 -35q-29 0 -29 47q0 18 7 25z" />
    <glyph glyph-name="kgreenlandic" unicode="&#x138;" horiz-adv-x="1211" 
d="M327 467q13 17 179 161q157 137 219 199q231 231 332 231q78 0 78 -75q0 -85 -77 -125q-188 -96 -311 -200t-123 -137q0 -20 118 -149.5t204 -191t167 -61.5l33 1q35 2 35 -31q0 -44 -55 -89.5t-145 -45.5q-58 0 -117.5 40.5t-211.5 218.5q-121 147 -151 175.5t-50 28.5
q-11 0 -70 -52t-64.5 -79t-5.5 -206v-47q0 -37 -35 -66t-76 -29q-42 0 -66 24.5t-24 50.5q0 36 27 170q48 244 96 805q4 54 41 97.5t84 43.5q26 0 43.5 -28t17.5 -72q0 -34 -12 -80q-10 -39 -16 -65q-11 -50 -22 -91q-31 -117 -38 -274q-1 -22 -4 -52z" />
    <glyph glyph-name="Lacute" unicode="&#x139;" horiz-adv-x="1289" 
d="M190 282q0 20 30 244.5t57 522t34.5 332.5t32 57t76.5 22q33 0 59 -28t26 -61q0 -43 -18 -140q-26 -133 -75.5 -540t-49.5 -461q0 -35 10.5 -47.5t39.5 -12.5q47 0 222 29q108 17 408 33q54 2 133 23q15 4 22 4q38 0 60 -25t22 -60q0 -57 -44 -90.5t-98 -33.5
q-21 0 -83 6q-63 5 -94 5q-326 0 -629 -102q-51 -17 -92 -17q-45 0 -69.5 39t-24.5 76q0 22 19 96q21 87 26 129zM960 1901q-4 -2 -10 -6q-7 -4 -18 -9q-67 -31 -278 -192q-87 -67 -132 -96l-23 -14q-26 0 -46 25t-20 51q0 51 153.5 167t275.5 184q46 26 69 45q17 14 18 11
q17 0 39.5 -37t22.5 -57q0 -12 -19 -38t-32 -34z" />
    <glyph glyph-name="lacute" unicode="&#x13a;" horiz-adv-x="586" 
d="M483 1693q72 0 72 -92q0 -82 -87 -390q-55 -194 -85 -428t-30 -367q0 -165 21 -328q4 -31 4 -45q0 -50 -34 -86t-72 -36q-53 0 -73.5 66t-20.5 213q0 335 80.5 830t128 579t96.5 84zM978 2072q-4 -2 -10 -6q-7 -4 -18 -9q-67 -31 -278 -192q-87 -67 -132 -96l-23 -14
q-26 0 -46 25t-20 51q0 51 153.5 167t275.5 184q46 26 69 45q17 14 18 11q17 0 39.5 -37t22.5 -57q0 -12 -19 -38t-32 -34z" />
    <glyph glyph-name="Lcommaaccent" unicode="&#x13b;" horiz-adv-x="1289" 
d="M190 282q0 20 30 244.5t57 522t34.5 332.5t32 57t76.5 22q33 0 59 -28t26 -61q0 -43 -18 -140q-26 -133 -75.5 -540t-49.5 -461q0 -35 10.5 -47.5t39.5 -12.5q47 0 222 29q108 17 408 33q54 2 133 23q15 4 22 4q38 0 60 -25t22 -60q0 -57 -44 -90.5t-98 -33.5
q-21 0 -83 6q-63 5 -94 5q-326 0 -629 -102q-51 -17 -92 -17q-45 0 -69.5 39t-24.5 76q0 22 19 96q21 87 26 129zM617 -159q3 10 40.5 26.5t53.5 16.5t62 -47l27 -28q45 -45 69 -104q10 -21 10 -67q0 -85 -59.5 -255.5t-141.5 -170.5q-30 0 -52 18t-22 46q0 51 41 86
q95 84 95 215q0 50 -85 125q-27 24 -32 30.5t-7 55.5t1 53z" />
    <glyph glyph-name="lcommaaccent" unicode="&#x13c;" horiz-adv-x="586" 
d="M483 1693q72 0 72 -92q0 -82 -87 -390q-55 -194 -85 -428t-30 -367q0 -165 21 -328q4 -31 4 -45q0 -50 -34 -86t-72 -36q-53 0 -73.5 66t-20.5 213q0 335 80.5 830t128 579t96.5 84zM-36 -679q186 46 239 130.5t53 120.5q0 102 -28 144q-13 19 -13 37q0 15 13.5 43
t27.5 28q21 0 66 -15.5t53 -27t26.5 -74.5t18.5 -108q0 -17 -37.5 -105.5t-102.5 -138t-122 -60.5q-23 -4 -43 -11q-79 -35 -129 -35q-29 0 -29 47q0 18 7 25z" />
    <glyph glyph-name="Lcaron" unicode="&#x13d;" horiz-adv-x="1289" 
d="M190 282q0 20 30 244.5t57 522t34.5 332.5t32 57t76.5 22q33 0 59 -28t26 -61q0 -43 -18 -140q-26 -133 -75.5 -540t-49.5 -461q0 -35 10.5 -47.5t39.5 -12.5q47 0 222 29q108 17 408 33q54 2 133 23q15 4 22 4q38 0 60 -25t22 -60q0 -57 -44 -90.5t-98 -33.5
q-21 0 -83 6q-63 5 -94 5q-326 0 -629 -102q-51 -17 -92 -17q-45 0 -69.5 39t-24.5 76q0 22 19 96q21 87 26 129zM826 1466q3 10 40.5 26.5t53.5 16.5t62 -47l27 -28q45 -45 69 -104q10 -21 10 -67q0 -85 -59.5 -255.5t-141.5 -170.5q-30 0 -52 18t-22 46q0 51 41 86
q95 84 95 215q0 50 -85 125q-27 24 -32 30.5t-7 55.5t1 53z" />
    <glyph glyph-name="lcaron" unicode="&#x13e;" horiz-adv-x="993" 
d="M483 1693q72 0 72 -92q0 -82 -87 -390q-55 -194 -85 -428t-30 -367q0 -165 21 -328q4 -31 4 -45q0 -50 -34 -86t-72 -36q-53 0 -73.5 66t-20.5 213q0 335 80.5 830t128 579t96.5 84zM648 1149q186 46 239 130.5t53 120.5q0 102 -28 144q-13 19 -13 37q0 15 13.5 43
t27.5 28q21 0 66 -15.5t53 -27t26.5 -74.5t18.5 -108q0 -17 -37.5 -105.5t-102.5 -138t-122 -60.5q-23 -4 -43 -11q-79 -35 -129 -35q-29 0 -29 47q0 18 7 25z" />
    <glyph glyph-name="Ldot" unicode="&#x13f;" horiz-adv-x="1289" 
d="M190 282q0 20 30 244.5t57 522t34.5 332.5t32 57t76.5 22q33 0 59 -28t26 -61q0 -43 -18 -140q-26 -133 -75.5 -540t-49.5 -461q0 -35 10.5 -47.5t39.5 -12.5q47 0 222 29q108 17 408 33q54 2 133 23q15 4 22 4q38 0 60 -25t22 -60q0 -57 -44 -90.5t-98 -33.5
q-21 0 -83 6q-63 5 -94 5q-326 0 -629 -102q-51 -17 -92 -17q-45 0 -69.5 39t-24.5 76q0 22 19 96q21 87 26 129zM878 805q-33 0 -78 16.5t-45 53.5q0 42 39 103.5t72 61.5q61 0 98 -31t37 -88q0 -46 -38 -81t-85 -35z" />
    <glyph glyph-name="ldot" unicode="&#x140;" horiz-adv-x="784" 
d="M483 1693q72 0 72 -92q0 -82 -87 -390q-55 -194 -85 -428t-30 -367q0 -165 21 -328q4 -31 4 -45q0 -50 -34 -86t-72 -36q-53 0 -73.5 66t-20.5 213q0 335 80.5 830t128 579t96.5 84zM686 672q-33 0 -78 16.5t-45 53.5q0 42 39 103.5t72 61.5q61 0 98 -31t37 -88
q0 -46 -38 -81t-85 -35z" />
    <glyph glyph-name="Lslash" unicode="&#x141;" horiz-adv-x="1289" 
d="M416 661l-9 -2q-46 -366 -46 -429q0 -35 10.5 -47.5t39.5 -12.5q47 0 222 29q108 17 408 33q54 2 133 23q15 4 22 4q38 0 60 -25t22 -60q0 -57 -44 -90.5t-98 -33.5q-21 0 -83 6q-63 5 -94 5q-326 0 -629 -102q-51 -17 -92 -17q-45 0 -69.5 39t-24.5 76q0 22 19 96
q21 87 26 129q0 22 15 127q0 4 23 187q-92 -46 -116 -46q-33 0 -56 24t-23 42q0 15 8 40t15.5 32.5t50.5 23.5q39 15 96 43q25 12 46 21l59 586q10 98 112 98q33 0 59 -28t26 -61q0 -43 -18 -140q-25 -129 -56 -389q147 50 276 112q202 84 280 84q68 0 90.5 -40t22.5 -66
q0 -46 -124 -69q-71 -14 -251 -86q-86 -35 -178 -68l-53 -21q-32 -13 -77 -27z" />
    <glyph glyph-name="lslash" unicode="&#x142;" horiz-adv-x="794" 
d="M466 836q-37 -258 -37 -420q0 -165 21 -328q4 -31 4 -45q0 -50 -34 -86t-72 -36q-53 0 -73.5 66t-20.5 213q0 248 44 577q-17 -6 -30 -12t-24 -10t-126 -56q-33 -15 -50 -15q-33 0 -56 24t-23 42q0 15 8 40t15.5 32.5t50.5 23.5q21 8 39 16q106 51 144 64q61 22 77 29
q62 425 113 581.5t123 156.5t72 -92q0 -82 -87 -390q-23 -80 -42 -173l-4 -15q15 6 32 12t37 14q194 82 263 82t91 -40.5t22 -64.5q0 -39 -124 -62q-70 -14 -226 -77z" />
    <glyph glyph-name="Nacute" unicode="&#x143;" horiz-adv-x="1655" 
d="M1179 255q61 238 119.5 585.5t58.5 485.5q0 73 11.5 99t48 45t79.5 19q28 0 48 -40t20 -95q0 -43 -32 -152q-63 -248 -124 -588.5t-61 -393.5q0 -107 3 -135q4 -52 -33.5 -82t-98.5 -30q-36 0 -48.5 9.5t-52 53.5t-49.5 85q-8 38 -61 100q-288 368 -518 804
q-65 -231 -121 -641l-25 -167q-4 -25 -3.5 -100.5t-8 -101.5t-40 -59.5t-60.5 -33.5q-67 0 -79 57.5t-12 88.5q0 73 44 238q44 164 108.5 505t64.5 433l-1 55q1 29 11.5 51.5t40 38.5t58.5 16q27 0 50 -11.5t33 -35t24 -87.5q40 -194 247.5 -518.5t358.5 -497.5zM1410 1933
q-4 -2 -10 -6q-7 -4 -18 -9q-67 -31 -278 -192q-87 -67 -132 -96l-23 -14q-26 0 -46 25t-20 51q0 51 153.5 167t275.5 184q46 26 69 45q17 14 18 11q17 0 39.5 -37t22.5 -57q0 -12 -19 -38t-32 -34z" />
    <glyph glyph-name="nacute" unicode="&#x144;" horiz-adv-x="1358" 
d="M814 769q-52 0 -113.5 -68t-187.5 -305q-166 -318 -214.5 -362t-80.5 -44q-118 0 -118 114q0 48 16 136q55 302 55 637q0 38 32.5 84.5t61.5 46.5q52 0 74 -32t22 -129q0 -101 -60 -416q-20 -104 -20 -132q0 -16 8 -16q15 0 139 239q125 243 219 342t207 99
q90 0 146.5 -82t82.5 -299q28 -247 50.5 -307.5t71.5 -60.5q31 0 78 22q8 4 12 4q43 0 43 -50q0 -44 -59 -93.5t-142 -49.5q-85 0 -131.5 67.5t-73.5 360.5q-28 294 -118 294zM1166 1437q-4 -2 -10 -6q-7 -4 -18 -9q-67 -31 -278 -192q-87 -67 -132 -96l-23 -14
q-26 0 -46 25t-20 51q0 51 153.5 167t275.5 184q46 26 69 45q17 14 18 11q17 0 39.5 -37t22.5 -57q0 -12 -19 -38t-32 -34z" />
    <glyph glyph-name="Ncommaaccent" unicode="&#x145;" horiz-adv-x="1655" 
d="M1179 255q61 238 119.5 585.5t58.5 485.5q0 73 11.5 99t48 45t79.5 19q28 0 48 -40t20 -95q0 -43 -32 -152q-63 -248 -124 -588.5t-61 -393.5q0 -107 3 -135q4 -52 -33.5 -82t-98.5 -30q-36 0 -48.5 9.5t-52 53.5t-49.5 85q-8 38 -61 100q-288 368 -518 804
q-65 -231 -121 -641l-25 -167q-4 -25 -3.5 -100.5t-8 -101.5t-40 -59.5t-60.5 -33.5q-67 0 -79 57.5t-12 88.5q0 73 44 238q44 164 108.5 505t64.5 433l-1 55q1 29 11.5 51.5t40 38.5t58.5 16q27 0 50 -11.5t33 -35t24 -87.5q40 -194 247.5 -518.5t358.5 -497.5zM408 -573
q186 46 239 130.5t53 120.5q0 102 -28 144q-13 19 -13 37q0 15 13.5 43t27.5 28q21 0 66 -15.5t53 -27t26.5 -74.5t18.5 -108q0 -17 -37.5 -105.5t-102.5 -138t-122 -60.5q-23 -4 -43 -11q-79 -35 -129 -35q-29 0 -29 47q0 18 7 25z" />
    <glyph glyph-name="ncommaaccent" unicode="&#x146;" horiz-adv-x="1358" 
d="M814 769q-52 0 -113.5 -68t-187.5 -305q-166 -318 -214.5 -362t-80.5 -44q-118 0 -118 114q0 48 16 136q55 302 55 637q0 38 32.5 84.5t61.5 46.5q52 0 74 -32t22 -129q0 -101 -60 -416q-20 -104 -20 -132q0 -16 8 -16q15 0 139 239q125 243 219 342t207 99
q90 0 146.5 -82t82.5 -299q28 -247 50.5 -307.5t71.5 -60.5q31 0 78 22q8 4 12 4q43 0 43 -50q0 -44 -59 -93.5t-142 -49.5q-85 0 -131.5 67.5t-73.5 360.5q-28 294 -118 294zM380 -511q186 46 239 130.5t53 120.5q0 102 -28 144q-13 19 -13 37q0 15 13.5 43t27.5 28
q21 0 66 -15.5t53 -27t26.5 -74.5t18.5 -108q0 -17 -37.5 -105.5t-102.5 -138t-122 -60.5q-23 -4 -43 -11q-79 -35 -129 -35q-29 0 -29 47q0 18 7 25z" />
    <glyph glyph-name="Ncaron" unicode="&#x147;" horiz-adv-x="1655" 
d="M1179 255q61 238 119.5 585.5t58.5 485.5q0 73 11.5 99t48 45t79.5 19q28 0 48 -40t20 -95q0 -43 -32 -152q-63 -248 -124 -588.5t-61 -393.5q0 -107 3 -135q4 -52 -33.5 -82t-98.5 -30q-36 0 -48.5 9.5t-52 53.5t-49.5 85q-8 38 -61 100q-288 368 -518 804
q-65 -231 -121 -641l-25 -167q-4 -25 -3.5 -100.5t-8 -101.5t-40 -59.5t-60.5 -33.5q-67 0 -79 57.5t-12 88.5q0 73 44 238q44 164 108.5 505t64.5 433l-1 55q1 29 11.5 51.5t40 38.5t58.5 16q27 0 50 -11.5t33 -35t24 -87.5q40 -194 247.5 -518.5t358.5 -497.5zM1224 1761
q-112 -121 -163 -197q-16 -20 -60 -20q-42 0 -97 91q-170 274 -239 343q-19 18 -19 43q0 63 57 63q55 0 67.5 -15t62 -80t68.5 -99q12 -24 17 -29q9 -9 40 -69q30 -55 60 -80q11 12 25 30q81 106 174.5 194.5t118.5 88.5q17 0 38 -24.5t21 -42.5q0 -43 -118 -146
q-53 -48 -53 -51z" />
    <glyph glyph-name="ncaron" unicode="&#x148;" horiz-adv-x="1358" 
d="M814 769q-52 0 -113.5 -68t-187.5 -305q-166 -318 -214.5 -362t-80.5 -44q-118 0 -118 114q0 48 16 136q55 302 55 637q0 38 32.5 84.5t61.5 46.5q52 0 74 -32t22 -129q0 -101 -60 -416q-20 -104 -20 -132q0 -16 8 -16q15 0 139 239q125 243 219 342t207 99
q90 0 146.5 -82t82.5 -299q28 -247 50.5 -307.5t71.5 -60.5q31 0 78 22q8 4 12 4q43 0 43 -50q0 -44 -59 -93.5t-142 -49.5q-85 0 -131.5 67.5t-73.5 360.5q-28 294 -118 294zM1016 1359q-112 -121 -163 -197q-16 -20 -60 -20q-42 0 -97 91q-170 274 -239 343q-19 18 -19 43
q0 63 57 63q55 0 67.5 -15t62 -80t68.5 -99q12 -24 17 -29q9 -9 40 -69q30 -55 60 -80q11 12 25 30q81 106 174.5 194.5t118.5 88.5q17 0 38 -24.5t21 -42.5q0 -43 -118 -146q-53 -48 -53 -51z" />
    <glyph glyph-name="napostrophe" unicode="&#x149;" horiz-adv-x="1618" 
d="M1074 769q-52 0 -113.5 -68t-187.5 -305q-166 -318 -214.5 -362t-80.5 -44q-118 0 -118 114q0 48 16 136q55 302 55 637q0 38 32.5 84.5t61.5 46.5q52 0 74 -32t22 -129q0 -101 -60 -416q-20 -104 -20 -132q0 -16 8 -16q15 0 139 239q125 243 219 342t207 99
q90 0 146.5 -82t82.5 -299q28 -247 50.5 -307.5t71.5 -60.5q31 0 78 22q8 4 12 4q43 0 43 -50q0 -44 -59 -93.5t-142 -49.5q-85 0 -131.5 67.5t-73.5 360.5q-28 294 -118 294zM99 1053q186 46 239 130.5t53 120.5q0 102 -28 144q-13 19 -13 37q0 15 13.5 43t27.5 28
q21 0 66 -15.5t53 -27t26.5 -74.5t18.5 -108q0 -17 -37.5 -105.5t-102.5 -138t-122 -60.5q-23 -4 -43 -11q-79 -35 -129 -35q-29 0 -29 47q0 18 7 25z" />
    <glyph glyph-name="Eng" unicode="&#x14a;" horiz-adv-x="1584" 
d="M1149 -21q-42 33 -120 165q-17 27 -44 59q-284 340 -574 822q-48 -228 -75 -641l-13 -167l6 -170q0 -46 -33.5 -85.5t-64.5 -39.5q-69 0 -85.5 65.5t-16.5 94.5q0 100 27 224q33 171 70.5 474.5t37.5 452.5l-4 68q0 59 36 81.5t66 22.5q66 0 82.5 -39t33.5 -95
q56 -197 303.5 -546t395.5 -508q4 44 25 372q41 658 66.5 762.5t129.5 104.5q29 0 54.5 -22.5t25.5 -54.5q0 -18 -7 -49q-37 -161 -53 -307l-6 -52q-63 -483 -75 -764q-14 -306 -57 -453t-132.5 -227t-196.5 -80q-119 0 -230.5 99.5t-111.5 171.5q0 20 14 39.5t21 19.5
t31 -20q157 -138 253 -138q77 0 131.5 69.5t89.5 290.5z" />
    <glyph glyph-name="eng" unicode="&#x14b;" horiz-adv-x="1240" 
d="M814 769q-52 0 -113.5 -68t-187.5 -305q-166 -318 -214.5 -362t-80.5 -44q-118 0 -118 114q0 48 16 136q55 302 55 637q0 38 32.5 84.5t61.5 46.5q52 0 74 -32t22 -129q0 -101 -60 -416q-20 -104 -20 -132q0 -16 8 -16q15 0 139 239q125 243 219 342t207 99
q152 0 204 -228t52 -583q0 -400 -85 -575.5t-265 -175.5q-92 0 -190.5 56t-98.5 93q0 31 17 31q15 0 87 -20q69 -21 152 -21q138 0 178 152t40 347q0 398 -29.5 564t-101.5 166z" />
    <glyph glyph-name="Omacron" unicode="&#x14c;" horiz-adv-x="1646" 
d="M521 -72q-160 0 -284.5 159t-124.5 330q0 202 123 461t321 422.5t412 163.5q164 0 273 -40.5t196 -116.5t116 -156t29 -224q0 -136 -82 -318t-255.5 -355t-328.5 -249.5t-395 -76.5zM295 426q0 -139 88 -234t204 -95q302 0 555 278t253 590q0 119 -46.5 187.5t-149.5 117
t-231 48.5q-224 0 -448.5 -304t-224.5 -588zM1348 1785q0 -40 -39 -60q-40 -17 -85 -17q-33 0 -62.5 0.5t-74.5 0.5h-39.5t-29.5 -1q-17 0 -40 -5t-55 -15q-63 -18 -90 -18q-15 0 -28.5 6.5t-23 17.5t-15 25t-5.5 29q0 29 18.5 43.5t51.5 21.5q54 17 115 21q31 5 68.5 7
t84.5 3t75 2t39 2q13 2 22 3t16.5 1.5l15 1t17.5 0.5q30 0 47 -19.5t17 -49.5z" />
    <glyph glyph-name="omacron" unicode="&#x14d;" horiz-adv-x="1158" 
d="M425 -50q-137 0 -226 104t-89 257q0 258 173.5 508.5t415.5 250.5q160 0 259.5 -123t99.5 -293q0 -260 -205.5 -482t-427.5 -222zM286 337q0 -101 42.5 -165t112.5 -64q149 0 299 163.5t150 363.5q0 123 -57.5 199.5t-154.5 76.5q-161 0 -276.5 -197.5t-115.5 -376.5z
M1011 1307q0 -40 -39 -60q-40 -17 -85 -17q-33 0 -62.5 0.5t-74.5 0.5h-39.5t-29.5 -1q-17 0 -40 -5t-55 -15q-63 -18 -90 -18q-15 0 -28.5 6.5t-23 17.5t-15 25t-5.5 29q0 29 18.5 43.5t51.5 21.5q54 17 115 21q31 5 68.5 7t84.5 3t75 2t39 2q13 2 22 3t16.5 1.5l15 1
t17.5 0.5q30 0 47 -19.5t17 -49.5z" />
    <glyph glyph-name="Obreve" unicode="&#x14e;" horiz-adv-x="1646" 
d="M521 -72q-160 0 -284.5 159t-124.5 330q0 202 123 461t321 422.5t412 163.5q164 0 273 -40.5t196 -116.5t116 -156t29 -224q0 -136 -82 -318t-255.5 -355t-328.5 -249.5t-395 -76.5zM295 426q0 -139 88 -234t204 -95q302 0 555 278t253 590q0 119 -46.5 187.5t-149.5 117
t-231 48.5q-224 0 -448.5 -304t-224.5 -588zM1241 1715q-30 -27 -114.5 -60t-149.5 -33q-52 0 -151.5 64.5t-140.5 148t-41 99.5q0 27 23.5 59t46.5 32q18 0 32 -32q40 -95 104.5 -163.5t143.5 -68.5q162 0 262 148q7 12 39.5 47t42.5 35q15 0 32.5 -32t17.5 -50
q0 -31 -49.5 -95.5t-97.5 -98.5z" />
    <glyph glyph-name="obreve" unicode="&#x14f;" horiz-adv-x="1158" 
d="M425 -50q-137 0 -226 104t-89 257q0 258 173.5 508.5t415.5 250.5q160 0 259.5 -123t99.5 -293q0 -260 -205.5 -482t-427.5 -222zM286 337q0 -101 42.5 -165t112.5 -64q149 0 299 163.5t150 363.5q0 123 -57.5 199.5t-154.5 76.5q-161 0 -276.5 -197.5t-115.5 -376.5z
M965 1286q-30 -27 -114.5 -60t-149.5 -33q-52 0 -151.5 64.5t-140.5 148t-41 99.5q0 27 23.5 59t46.5 32q18 0 32 -32q40 -95 104.5 -163.5t143.5 -68.5q162 0 262 148q7 12 39.5 47t42.5 35q15 0 32.5 -32t17.5 -50q0 -31 -49.5 -95.5t-97.5 -98.5z" />
    <glyph glyph-name="Ohungarumlaut" unicode="&#x150;" horiz-adv-x="1646" 
d="M521 -72q-160 0 -284.5 159t-124.5 330q0 202 123 461t321 422.5t412 163.5q164 0 273 -40.5t196 -116.5t116 -156t29 -224q0 -136 -82 -318t-255.5 -355t-328.5 -249.5t-395 -76.5zM295 426q0 -139 88 -234t204 -95q302 0 555 278t253 590q0 119 -46.5 187.5t-149.5 117
t-231 48.5q-224 0 -448.5 -304t-224.5 -588zM948 1649q-18 0 -34.5 27.5t-16.5 43.5q0 9 57 85.5t118 140.5l144 153q45 53 92 53q24 0 44 -18.5t20 -42.5q0 -14 -44 -54q-142 -129 -188 -190q-135 -198 -192 -198zM1280 1622q-47 0 -47 53q0 35 21.5 69t100.5 125l56 66
l73 76q30 30 52 62q11 15 38.5 32t41.5 17q61 0 61 -37q0 -20 -31 -51q-11 -11 -54 -74q-39 -56 -73 -84q-133 -91 -170 -174q-35 -80 -69 -80z" />
    <glyph glyph-name="ohungarumlaut" unicode="&#x151;" horiz-adv-x="1158" 
d="M425 -50q-137 0 -226 104t-89 257q0 258 173.5 508.5t415.5 250.5q160 0 259.5 -123t99.5 -293q0 -260 -205.5 -482t-427.5 -222zM286 337q0 -101 42.5 -165t112.5 -64q149 0 299 163.5t150 363.5q0 123 -57.5 199.5t-154.5 76.5q-161 0 -276.5 -197.5t-115.5 -376.5z
M573 1198q-18 0 -34.5 27.5t-16.5 43.5q0 9 57 85.5t118 140.5l144 153q45 53 92 53q24 0 44 -18.5t20 -42.5q0 -14 -44 -54q-142 -129 -188 -190q-135 -198 -192 -198zM905 1171q-47 0 -47 53q0 35 21.5 69t100.5 125l56 66l73 76q30 30 52 62q11 15 38.5 32t41.5 17
q61 0 61 -37q0 -20 -31 -51q-11 -11 -54 -74q-39 -56 -73 -84q-133 -91 -170 -174q-35 -80 -69 -80z" />
    <glyph glyph-name="OE" unicode="&#x152;" horiz-adv-x="2368" 
d="M2260 1290q-3 -1 -54.5 1t-105.5 -10q-54 -13 -96 -16q-29 -2 -63 -8q-43 -8 -170 -9q-191 -3 -240.5 -26t-55.5 -95q-5 -55 -21 -121q-49 -197 -49 -262l15 -1q47 -3 190 13t214 32q146 35 223 35q125 0 125 -67q0 -82 -83.5 -100.5t-348.5 -47.5q-324 -36 -345.5 -64.5
t-45.5 -183.5t-24 -198v-11q5 -50 64 -57l18 -1q55 -3 131 9l192 28q107 15 217 35q137 29 174 29q28 0 62.5 -23.5t34.5 -74.5q0 -37 -18 -51q-102 -45 -263 -50q-139 -5 -434 -47q-149 -22 -196 -22q-117 0 -146.5 18.5t-35.5 90.5l-4 34v4q0 10 7 32l18 59
q-137 -121 -275 -178.5t-350 -57.5q-160 0 -284.5 159t-124.5 330q0 202 123 461t321 422.5t412 163.5q213 0 368 -82l96 -6h4q23 0 222 19t475 66q29 5 35 5l15 1q78 5 107.5 -15.5t36.5 -79.5q0 -28 -26 -54t-41 -28zM1203 447q31 194 38 276q5 40 16 97q44 239 44 378
q0 1 -4 9q-130 111 -329 111q-224 0 -448.5 -304t-224.5 -588q0 -139 88 -234t204 -95q338 0 616 350z" />
    <glyph glyph-name="oe" unicode="&#x153;" horiz-adv-x="1739" 
d="M787 187q-5 -6 -9 -12q-42 -63 -156 -144t-233 -81q-123 0 -203.5 104.5t-80.5 256.5q0 259 156.5 509t374.5 250q104 0 183.5 -69t116.5 -189q211 299 453 299q75 0 122.5 -49t47.5 -118q0 -154 -151 -295t-404 -277q-52 -27 -52 -70q0 -83 48 -133t142 -50
q215 0 439 238q33 33 50 33q32 0 32 -51q0 -102 -180.5 -246t-372.5 -144q-263 0 -323 238zM968 495q424 252 424 405q0 60 -54 60q-92 0 -207.5 -135t-162.5 -330zM264 337q0 -102 38 -165.5t101 -63.5q133 0 268.5 162t135.5 365q0 120 -51 198t-139 78
q-146 0 -249.5 -197t-103.5 -377z" />
    <glyph glyph-name="Racute" unicode="&#x154;" horiz-adv-x="1493" 
d="M440 1413q294 48 429 48q211 0 337 -100t126 -251t-133.5 -284.5t-335.5 -209.5q-25 -10 -25 -21q0 -17 206.5 -176.5t379.5 -266.5q49 -30 49 -79q0 -32 -33.5 -63.5t-62.5 -31.5q-59 0 -188.5 98t-268.5 216q-301 253 -336 255q-68 2 -96 19t-28 61q0 38 36 66.5
t85 28.5q17 0 54 -5q37 -6 55 -6q80 0 273.5 119t193.5 280q0 85 -86.5 146t-220.5 61q-100 0 -200 -14t-127.5 -24t-44.5 -51.5t-57 -264.5t-62.5 -421t-22.5 -291q0 -72 10 -125q9 -53 9 -85q0 -30 -31.5 -62t-68.5 -32q-105 0 -105 170q0 401 141 1067q7 35 7 41t-7 18
q-40 63 -40 84q0 38 37 66t67 28zM1244 1926q-4 -2 -10 -6q-7 -4 -18 -9q-67 -31 -278 -192q-87 -67 -132 -96l-23 -14q-26 0 -46 25t-20 51q0 51 153.5 167t275.5 184q46 26 69 45q17 14 18 11q17 0 39.5 -37t22.5 -57q0 -12 -19 -38t-32 -34z" />
    <glyph glyph-name="racute" unicode="&#x155;" horiz-adv-x="1043" 
d="M335 397q10 18 24 50q68 156 125 244.5t125.5 169.5t125 123t102.5 58.5t89 16.5q87 0 142 -52.5t55 -122.5q0 -31 -19.5 -56t-59.5 -25q-42 0 -77 37q-36 37 -75 37q-104 0 -288 -252t-224 -555q-10 -78 -38 -103t-79 -25q-49 0 -71 73t-22 246q0 47 5 207q6 189 24 305
q3 19 10 89q7 77 17.5 107t43 56t70.5 26q37 0 55.5 -23.5t18.5 -50.5q0 -39 -20 -110q-23 -79 -27 -109q-3 -34 -11 -71q-10 -43 -20 -226l-1 -37v-27zM1058 1449q-4 -2 -10 -6q-7 -4 -18 -9q-67 -31 -278 -192q-87 -67 -132 -96l-23 -14q-26 0 -46 25t-20 51
q0 51 153.5 167t275.5 184q46 26 69 45q17 14 18 11q17 0 39.5 -37t22.5 -57q0 -12 -19 -38t-32 -34z" />
    <glyph glyph-name="Rcommaaccent" unicode="&#x156;" horiz-adv-x="1493" 
d="M440 1413q294 48 429 48q211 0 337 -100t126 -251t-133.5 -284.5t-335.5 -209.5q-25 -10 -25 -21q0 -17 206.5 -176.5t379.5 -266.5q49 -30 49 -79q0 -32 -33.5 -63.5t-62.5 -31.5q-59 0 -188.5 98t-268.5 216q-301 253 -336 255q-68 2 -96 19t-28 61q0 38 36 66.5
t85 28.5q17 0 54 -5q37 -6 55 -6q80 0 273.5 119t193.5 280q0 85 -86.5 146t-220.5 61q-100 0 -200 -14t-127.5 -24t-44.5 -51.5t-57 -264.5t-62.5 -421t-22.5 -291q0 -72 10 -125q9 -53 9 -85q0 -30 -31.5 -62t-68.5 -32q-105 0 -105 170q0 401 141 1067q7 35 7 41t-7 18
q-40 63 -40 84q0 38 37 66t67 28zM668 -43q3 10 40.5 26.5t53.5 16.5t62 -47l27 -28q45 -45 69 -104q10 -21 10 -67q0 -85 -59.5 -255.5t-141.5 -170.5q-30 0 -52 18t-22 46q0 51 41 86q95 84 95 215q0 50 -85 125q-27 24 -32 30.5t-7 55.5t1 53z" />
    <glyph glyph-name="rcommaaccent" unicode="&#x157;" horiz-adv-x="1043" 
d="M332 397q10 18 24 50q68 156 125 244.5t125.5 169.5t125 123t102.5 58.5t89 16.5q87 0 142 -52.5t55 -122.5q0 -31 -19.5 -56t-59.5 -25q-42 0 -77 37q-36 37 -75 37q-104 0 -288 -252t-224 -555q-10 -78 -38 -103t-79 -25q-49 0 -71 73t-22 246q0 47 5 207q6 189 24 305
q3 19 10 89q7 77 17.5 107t43 56t70.5 26q37 0 55.5 -23.5t18.5 -50.5q0 -39 -20 -110q-23 -79 -27 -109q-3 -34 -11 -71q-10 -43 -20 -226l-1 -37v-27zM-7 -643q186 46 239 130.5t53 120.5q0 102 -28 144q-13 19 -13 37q0 15 13.5 43t27.5 28q21 0 66 -15.5t53 -27
t26.5 -74.5t18.5 -108q0 -17 -37.5 -105.5t-102.5 -138t-122 -60.5q-23 -4 -43 -11q-79 -35 -129 -35q-29 0 -29 47q0 18 7 25z" />
    <glyph glyph-name="Rcaron" unicode="&#x158;" horiz-adv-x="1493" 
d="M440 1413q294 48 429 48q211 0 337 -100t126 -251t-133.5 -284.5t-335.5 -209.5q-25 -10 -25 -21q0 -17 206.5 -176.5t379.5 -266.5q49 -30 49 -79q0 -32 -33.5 -63.5t-62.5 -31.5q-59 0 -188.5 98t-268.5 216q-301 253 -336 255q-68 2 -96 19t-28 61q0 38 36 66.5
t85 28.5q17 0 54 -5q37 -6 55 -6q80 0 273.5 119t193.5 280q0 85 -86.5 146t-220.5 61q-100 0 -200 -14t-127.5 -24t-44.5 -51.5t-57 -264.5t-62.5 -421t-22.5 -291q0 -72 10 -125q9 -53 9 -85q0 -30 -31.5 -62t-68.5 -32q-105 0 -105 170q0 401 141 1067q7 35 7 41t-7 18
q-40 63 -40 84q0 38 37 66t67 28zM1046 1878q-112 -121 -163 -197q-16 -20 -60 -20q-42 0 -97 91q-170 274 -239 343q-19 18 -19 43q0 63 57 63q55 0 67.5 -15t62 -80t68.5 -99q12 -24 17 -29q9 -9 40 -69q30 -55 60 -80q11 12 25 30q81 106 174.5 194.5t118.5 88.5
q17 0 38 -24.5t21 -42.5q0 -43 -118 -146q-53 -48 -53 -51z" />
    <glyph glyph-name="rcaron" unicode="&#x159;" horiz-adv-x="1043" 
d="M335 397q10 18 24 50q68 156 125 244.5t125.5 169.5t125 123t102.5 58.5t89 16.5q87 0 142 -52.5t55 -122.5q0 -31 -19.5 -56t-59.5 -25q-42 0 -77 37q-36 37 -75 37q-104 0 -288 -252t-224 -555q-10 -78 -38 -103t-79 -25q-49 0 -71 73t-22 246q0 47 5 207q6 189 24 305
q3 19 10 89q7 77 17.5 107t43 56t70.5 26q37 0 55.5 -23.5t18.5 -50.5q0 -39 -20 -110q-23 -79 -27 -109q-3 -34 -11 -71q-10 -43 -20 -226l-1 -37v-27zM814 1332q-112 -121 -163 -197q-16 -20 -60 -20q-42 0 -97 91q-170 274 -239 343q-19 18 -19 43q0 63 57 63
q55 0 67.5 -15t62 -80t68.5 -99q12 -24 17 -29q9 -9 40 -69q30 -55 60 -80q11 12 25 30q81 106 174.5 194.5t118.5 88.5q17 0 38 -24.5t21 -42.5q0 -43 -118 -146q-53 -48 -53 -51z" />
    <glyph glyph-name="Sacute" unicode="&#x15a;" horiz-adv-x="1308" 
d="M1118 1116q0 133 -69 162.5t-172 29.5q-212 0 -384.5 -83.5t-172.5 -200.5q0 -84 76.5 -146.5t333.5 -137.5q249 -72 354.5 -148.5t105.5 -184.5q0 -109 -147 -235.5t-354.5 -192.5t-352.5 -66q-121 0 -183.5 28.5t-62.5 71.5q0 30 18.5 73.5t37.5 43.5q20 0 41 -7
q107 -40 212 -40q189 0 401 110.5t212 206.5q0 41 -64.5 78.5t-326.5 120.5q-325 103 -399.5 200.5t-74.5 205.5q0 208 239 335.5t500 127.5q173 0 266 -58.5t93 -129.5q0 -34 -21 -99t-106 -65zM1248 1893q-4 -2 -10 -6q-7 -4 -18 -9q-67 -31 -278 -192q-87 -67 -132 -96
l-23 -14q-26 0 -46 25t-20 51q0 51 153.5 167t275.5 184q46 26 69 45q17 14 18 11q17 0 39.5 -37t22.5 -57q0 -12 -19 -38t-32 -34z" />
    <glyph glyph-name="sacute" unicode="&#x15b;" horiz-adv-x="869" 
d="M636 229q0 65 -160 148q-203 104 -274.5 166.5t-71.5 139.5q0 199 199.5 330t325.5 131q81 0 117.5 -28t36.5 -97q0 -31 -26.5 -53t-41.5 -22q-11 0 -43 15q-32 14 -42 14q-50 0 -203 -73t-153 -165q0 -56 54 -101.5t194 -111.5q113 -54 180.5 -115.5t67.5 -144.5
q0 -153 -211 -239.5t-403 -86.5q-162 0 -162 110q0 38 36.5 56t73.5 18q15 0 57 -10q41 -10 54 -10q111 0 238 37t157 92zM1078 1578q-4 -2 -10 -6q-7 -4 -18 -9q-67 -31 -278 -192q-87 -67 -132 -96l-23 -14q-26 0 -46 25t-20 51q0 51 153.5 167t275.5 184q46 26 69 45
q17 14 18 11q17 0 39.5 -37t22.5 -57q0 -12 -19 -38t-32 -34z" />
    <glyph glyph-name="Scircumflex" unicode="&#x15c;" horiz-adv-x="1308" 
d="M1118 1116q0 133 -69 162.5t-172 29.5q-212 0 -384.5 -83.5t-172.5 -200.5q0 -84 76.5 -146.5t333.5 -137.5q249 -72 354.5 -148.5t105.5 -184.5q0 -109 -147 -235.5t-354.5 -192.5t-352.5 -66q-121 0 -183.5 28.5t-62.5 71.5q0 30 18.5 73.5t37.5 43.5q20 0 41 -7
q107 -40 212 -40q189 0 401 110.5t212 206.5q0 41 -64.5 78.5t-326.5 120.5q-325 103 -399.5 200.5t-74.5 205.5q0 208 239 335.5t500 127.5q173 0 266 -58.5t93 -129.5q0 -34 -21 -99t-106 -65zM1113 1858q6 -5 25 -27t51 -57q65 -71 74.5 -94t9.5 -40q0 -27 -20.5 -48
t-42.5 -21q-42 0 -120 114q-25 39 -73 96q-46 56 -72 104q-29 70 -49 70q-23 0 -148 -144q-92 -105 -141 -153t-75 -48q-56 0 -56 95q0 43 17 56l107 101q44 42 84 76q76 65 130 129q64 76 107 76q20 0 43.5 -32.5t90.5 -152.5q54 -99 58 -100z" />
    <glyph glyph-name="scircumflex" unicode="&#x15d;" horiz-adv-x="869" 
d="M636 229q0 65 -160 148q-203 104 -274.5 166.5t-71.5 139.5q0 199 199.5 330t325.5 131q81 0 117.5 -28t36.5 -97q0 -31 -26.5 -53t-41.5 -22q-11 0 -43 15q-32 14 -42 14q-50 0 -203 -73t-153 -165q0 -56 54 -101.5t194 -111.5q113 -54 180.5 -115.5t67.5 -144.5
q0 -153 -211 -239.5t-403 -86.5q-162 0 -162 110q0 38 36.5 56t73.5 18q15 0 57 -10q41 -10 54 -10q111 0 238 37t157 92zM888 1481q6 -5 25 -27t51 -57q65 -71 74.5 -94t9.5 -40q0 -27 -20.5 -48t-42.5 -21q-42 0 -120 114q-25 39 -73 96q-46 56 -72 104q-29 70 -49 70
q-23 0 -148 -144q-92 -105 -141 -153t-75 -48q-56 0 -56 95q0 43 17 56l107 101q44 42 84 76q76 65 130 129q64 76 107 76q20 0 43.5 -32.5t90.5 -152.5q54 -99 58 -100z" />
    <glyph glyph-name="Scedilla" unicode="&#x15e;" horiz-adv-x="1308" 
d="M495 -579l-69 20q-75 22 -98 36.5t-23 49.5q0 25 17.5 46.5t37.5 21.5q17 0 49 -20q53 -35 98 -35q62 0 112 28t50 91q0 36 -22 62t-58 26q-15 0 -45 -12q-27 -13 -47 -13q-53 0 -53 49l62 161q-7 -2 -13 -3l-14 -4q-168 -42 -242 -42q-103 0 -103 86q0 52 31 80
q287 0 540 119t253 227q0 43 -76 85t-195 71q-282 72 -440 185.5t-158 305.5q0 155 237 285.5t488 130.5q174 0 273.5 -55.5t99.5 -132.5q0 -33 -20 -98.5t-107 -65.5q0 59 -15 104t-81 66.5t-117 21.5h-4q-243 0 -414.5 -88.5t-171.5 -180.5q0 -56 69.5 -131t162.5 -103
q2 -1 23 -7l58 -21q80 -29 117 -38q226 -58 335.5 -137.5t109.5 -194.5q0 -96 -118 -210.5t-371 -211.5q-2 -8 -7 -16q-21 -37 -30 -102q12 -11 32 -14q113 -21 143 -68t30 -172q0 -72 -94.5 -127t-221.5 -55z" />
    <glyph glyph-name="scedilla" unicode="&#x15f;" horiz-adv-x="869" 
d="M410 -33v-2q-14 -29 -21 -88q23 -20 80 -24q43 0 79 -17t57 -61.5t21 -140.5q0 -49 -93.5 -132t-260.5 -83q-24 0 -69 15q-42 14 -73 29q-14 7 -13 7q-48 25 -48 68q0 26 21.5 53.5t44.5 27.5q17 0 52 -24q60 -51 98 -51q112 0 143.5 35t31.5 90q0 38 -25.5 63.5
t-63.5 25.5q-13 0 -47 -13q-21 -10 -49 -10q-56 0 -56 52q43 107 60 157q-51 -8 -97 -8q-162 0 -162 110q0 38 36.5 56t73.5 18q15 0 57 -10q41 -10 54 -10q111 0 238 37t157 92q0 65 -160 148q-203 104 -274.5 166.5t-71.5 139.5q0 199 199.5 330t325.5 131q81 0 117.5 -28
t36.5 -97q0 -31 -26.5 -53t-41.5 -22q-11 0 -43 15q-32 14 -42 14q-50 0 -203 -73t-153 -165q0 -56 54 -101.5t194 -111.5q113 -54 180.5 -115.5t67.5 -144.5q0 -207 -386 -295z" />
    <glyph glyph-name="Scaron" unicode="&#x160;" horiz-adv-x="1308" 
d="M1118 1116q0 133 -69 162.5t-172 29.5q-212 0 -384.5 -83.5t-172.5 -200.5q0 -84 76.5 -146.5t333.5 -137.5q249 -72 354.5 -148.5t105.5 -184.5q0 -109 -147 -235.5t-354.5 -192.5t-352.5 -66q-121 0 -183.5 28.5t-62.5 71.5q0 30 18.5 73.5t37.5 43.5q20 0 41 -7
q107 -40 212 -40q189 0 401 110.5t212 206.5q0 41 -64.5 78.5t-326.5 120.5q-325 103 -399.5 200.5t-74.5 205.5q0 208 239 335.5t500 127.5q173 0 266 -58.5t93 -129.5q0 -34 -21 -99t-106 -65zM1051 1820q-112 -121 -163 -197q-16 -20 -60 -20q-42 0 -97 91
q-170 274 -239 343q-19 18 -19 43q0 63 57 63q55 0 67.5 -15t62 -80t68.5 -99q12 -24 17 -29q9 -9 40 -69q30 -55 60 -80q11 12 25 30q81 106 174.5 194.5t118.5 88.5q17 0 38 -24.5t21 -42.5q0 -43 -118 -146q-53 -48 -53 -51z" />
    <glyph glyph-name="scaron" unicode="&#x161;" horiz-adv-x="869" 
d="M636 229q0 65 -160 148q-203 104 -274.5 166.5t-71.5 139.5q0 199 199.5 330t325.5 131q81 0 117.5 -28t36.5 -97q0 -31 -26.5 -53t-41.5 -22q-11 0 -43 15q-32 14 -42 14q-50 0 -203 -73t-153 -165q0 -56 54 -101.5t194 -111.5q113 -54 180.5 -115.5t67.5 -144.5
q0 -153 -211 -239.5t-403 -86.5q-162 0 -162 110q0 38 36.5 56t73.5 18q15 0 57 -10q41 -10 54 -10q111 0 238 37t157 92zM829 1477q-112 -121 -163 -197q-16 -20 -60 -20q-42 0 -97 91q-170 274 -239 343q-19 18 -19 43q0 63 57 63q55 0 67.5 -15t62 -80t68.5 -99
q12 -24 17 -29q9 -9 40 -69q30 -55 60 -80q11 12 25 30q81 106 174.5 194.5t118.5 88.5q17 0 38 -24.5t21 -42.5q0 -43 -118 -146q-53 -48 -53 -51z" />
    <glyph glyph-name="uni0162" unicode="&#x162;" horiz-adv-x="1376" 
d="M439 -462q0 26 21.5 53.5t44.5 27.5q17 0 52 -24q60 -51 98 -51q112 0 143.5 35t31.5 90q0 38 -25.5 63.5t-63.5 25.5q-13 0 -47 -13q-21 -10 -49 -10q-56 0 -56 52l75 195q-16 12 -30 31q-34 50 -34 280q0 218 83 851q4 34 4 35q0 34 -37 34q-60 0 -229 -15
q-169 -16 -241 -16q-108 0 -140 34q-11 20 -11 50q0 45 32.5 61t194.5 18q199 1 357.5 14.5t488.5 58.5q125 17 238 17q57 0 108.5 -7t73 -13.5t34.5 -36t13 -45.5q0 -71 -50 -71q-33 0 -90 6q-58 5 -157 5q-102 0 -247.5 -14.5t-161.5 -47.5t-52.5 -390t-36.5 -532
q0 -81 25 -187q9 -46 9 -60q0 -28 -15 -60q-27 -53 -34 -105q23 -20 80 -24q43 0 79 -17t57 -61.5t21 -140.5q0 -49 -93.5 -132t-260.5 -83q-24 0 -69 15q-42 14 -73 29q-14 7 -13 7q-48 25 -48 68z" />
    <glyph glyph-name="uni0163" unicode="&#x163;" horiz-adv-x="960" 
d="M61 -462q0 26 21.5 53.5t44.5 27.5q17 0 52 -24q60 -51 98 -51q112 0 143.5 35t31.5 90q0 38 -25.5 63.5t-63.5 25.5q-13 0 -47 -13q-21 -10 -49 -10q-56 0 -56 52l81 211q-90 67 -90 241q0 103 50 319q49 215 49 258q0 15 -24 15l-104 -9q-128 0 -128 102q0 58 59 58
h206q21 0 37 19t47 127.5t55 214.5q24 105 94 105q43 0 67 -30t24 -56q0 -14 -36 -143l-58 -210q103 8 194 19q90 10 150 10q76 0 96 -14t20 -49q0 -81 -113 -88q-145 -9 -267 -25t-131.5 -26.5t-60.5 -238t-51 -295.5q0 -110 29 -146.5t87 -36.5q86 0 239 129q59 53 91 53
q43 0 43 -46q0 -72 -138.5 -186.5t-283.5 -114.5q-24 0 -45 3q-13 -34 -18 -80q23 -20 80 -24q43 0 79 -17t57 -61.5t21 -140.5q0 -49 -93.5 -132t-260.5 -83q-24 0 -69 15q-42 14 -73 29q-14 7 -13 7q-48 25 -48 68z" />
    <glyph glyph-name="Tcaron" unicode="&#x164;" horiz-adv-x="1376" 
d="M40 1216q-11 20 -11 50q0 45 32.5 61t194.5 18q199 1 357.5 14.5t488.5 58.5q125 17 238 17q57 0 108.5 -7t73 -13.5t34.5 -36t13 -45.5q0 -71 -50 -71q-33 0 -90 6q-58 5 -157 5q-102 0 -247.5 -14.5t-161.5 -47.5t-52.5 -390t-36.5 -532q0 -81 25 -187q4 -20 4 -24
q0 -44 -24 -79.5t-58 -35.5q-52 0 -86.5 50t-34.5 280q0 218 83 851q4 34 4 35q0 34 -37 34q-60 0 -229 -15q-169 -16 -241 -16q-108 0 -140 34zM1038 1843q-112 -121 -163 -197q-16 -20 -60 -20q-42 0 -97 91q-170 274 -239 343q-19 18 -19 43q0 63 57 63q55 0 67.5 -15
t62 -80t68.5 -99q12 -24 17 -29q9 -9 40 -69q30 -55 60 -80q11 12 25 30q81 106 174.5 194.5t118.5 88.5q17 0 38 -24.5t21 -42.5q0 -43 -118 -146q-53 -48 -53 -51z" />
    <glyph glyph-name="tcaron" unicode="&#x165;" horiz-adv-x="960" 
d="M540 1009q103 8 194 19q90 10 150 10q76 0 96 -14t20 -49q0 -81 -113 -88q-145 -9 -267 -25t-131.5 -26.5t-60.5 -238t-51 -295.5q0 -110 29 -146.5t87 -36.5q86 0 239 129q59 53 91 53q43 0 43 -46q0 -72 -138.5 -186.5t-283.5 -114.5q-242 0 -242 285q0 103 50 319
q49 215 49 258q0 15 -24 15l-104 -9q-128 0 -128 102q0 58 59 58h206q21 0 37 19t47 127.5t55 214.5q24 105 94 105q43 0 67 -30t24 -56q0 -14 -36 -143zM815 1766q3 10 40.5 26.5t53.5 16.5t62 -47l27 -28q45 -45 69 -104q10 -21 10 -67q0 -85 -59.5 -255.5t-141.5 -170.5
q-30 0 -52 18t-22 46q0 51 41 86q95 84 95 215q0 50 -85 125q-27 24 -32 30.5t-7 55.5t1 53z" />
    <glyph glyph-name="Tbar" unicode="&#x166;" horiz-adv-x="1376" 
d="M1293 679q-6 -4 -72 -13q-48 0 -79 8q-65 10 -84 4q-27 0 -119 -16l-145 -5q-20 -231 -20 -368q0 -81 25 -187q4 -20 4 -24q0 -44 -24 -79.5t-58 -35.5q-52 0 -86.5 50t-34.5 280q0 134 23 353q-261 -34 -283 -34q-34 -5 -60 -5q-80 0 -80 57q0 54 122.5 81.5t194.5 24.5
q31 -6 44 -1l77 4q0 29 45 371q4 34 4 35q0 34 -37 34q-60 0 -229 -15q-169 -16 -241 -16q-108 0 -140 34q-11 20 -11 50q0 45 32.5 61t194.5 18q199 1 357.5 14.5t488.5 58.5q125 17 238 17q57 0 108.5 -7t73 -13.5t34.5 -36t13 -45.5q0 -71 -50 -71q-33 0 -90 6
q-58 5 -157 5q-109 0 -251.5 -14.5t-158 -47t-55.5 -421.5l193 28q59 17 118 17q25 0 99.5 -17t87.5 -39.5t13 -40.5q0 -34 -25 -59z" />
    <glyph glyph-name="tbar" unicode="&#x167;" horiz-adv-x="1030" 
d="M68 621q6 4 72 13q48 0 79 -8q54 -9 75 -6q35 155 35 196q0 15 -24 15l-104 -9q-128 0 -128 102q0 58 59 58h206q21 0 37 19t47 127.5t55 214.5q24 105 94 105q43 0 67 -30t24 -56q0 -14 -36 -143l-58 -210q103 8 194 19q90 10 150 10q76 0 96 -14t20 -49q0 -81 -113 -88
q-146 -9 -254 -23.5t-125 -19t-24.5 -20t-47.5 -191.5q31 4 76 9q155 15 215 26q42 7 73 7q34 5 60 5q80 0 80 -57q0 -15 -13.5 -36t-106 -43.5t-144.5 -27.5l-74 -9q-50 -7 -114 -17q-64 -9 -85 -11q-26 -132 -26 -177q0 -110 29 -146.5t87 -36.5q86 0 239 129q59 53 91 53
q43 0 43 -46q0 -72 -138.5 -186.5t-283.5 -114.5q-242 0 -242 285q0 82 29 227h-5q-66 -8 -138 4.5t-72 91.5q0 35 24 59z" />
    <glyph glyph-name="Utilde" unicode="&#x168;" horiz-adv-x="1587" 
d="M712 -70q-98 0 -240.5 66t-217.5 224t-75 348q0 114 50 383q9 49 26 156q32 213 44.5 256t39.5 68.5t63 25.5q25 0 51.5 -47.5t26.5 -73.5q0 -20 -46 -181q-24 -81 -52 -286.5t-28 -289.5q0 -281 131.5 -381t220.5 -100q172 0 292.5 52.5t182.5 190.5t88 513
q26 383 63.5 477.5t106.5 94.5q68 0 68 -111q0 -94 -39 -308q-25 -132 -37 -309q-11 -140 -29 -246.5t-59 -177.5t-103.5 -133t-130.5 -109t-187.5 -74.5t-209.5 -27.5zM998 1729q-17 16 -30 31q-47 49 -93 49q-34 0 -62 -21t-83 -85q-50 -64 -74.5 -84t-55.5 -20
q-49 0 -49 53q0 71 111 184.5t184 113.5q68 0 102 -13.5t79 -58.5q39 -41 71 -63q15 -10 31 -22q63 -47 89 -47q27 0 50 19.5t75 90.5q46 65 64 65q54 0 54 -59q0 -39 -76 -144.5t-151 -105.5q-79 0 -129.5 31t-94.5 75q-10 10 -12 11z" />
    <glyph glyph-name="utilde" unicode="&#x169;" horiz-adv-x="1249" 
d="M839 435q-128 -215 -262 -333t-249 -118q-66 0 -134.5 77t-68.5 237q0 131 63 386q53 213 53 299q29 60 91 60q42 0 67 -29.5t25 -61.5q0 -70 -49 -199q-93 -251 -93 -431q0 -164 76 -164q97 0 247 165t257 460q42 118 68.5 153.5t71.5 35.5q68 0 68 -90q0 -11 -19 -73
q-60 -219 -60 -414q0 -234 77 -303q40 -37 40 -60q0 -28 -40.5 -51t-73.5 -23q-70 0 -113 104t-43 307v33q0 16 1 33zM735 1286q-17 16 -30 31q-47 49 -93 49q-34 0 -62 -21t-83 -85q-50 -64 -74.5 -84t-55.5 -20q-49 0 -49 53q0 71 111 184.5t184 113.5q68 0 102 -13.5
t79 -58.5q39 -41 71 -63q15 -10 31 -22q63 -47 89 -47q27 0 50 19.5t75 90.5q46 65 64 65q54 0 54 -59q0 -39 -76 -144.5t-151 -105.5q-79 0 -129.5 31t-94.5 75q-10 10 -12 11z" />
    <glyph glyph-name="Umacron" unicode="&#x16a;" horiz-adv-x="1587" 
d="M712 -70q-98 0 -240.5 66t-217.5 224t-75 348q0 114 50 383q9 49 26 156q32 213 44.5 256t39.5 68.5t63 25.5q25 0 51.5 -47.5t26.5 -73.5q0 -20 -46 -181q-24 -81 -52 -286.5t-28 -289.5q0 -281 131.5 -381t220.5 -100q172 0 292.5 52.5t182.5 190.5t88 513
q26 383 63.5 477.5t106.5 94.5q68 0 68 -111q0 -94 -39 -308q-25 -132 -37 -309q-11 -140 -29 -246.5t-59 -177.5t-103.5 -133t-130.5 -109t-187.5 -74.5t-209.5 -27.5zM1289 1779q0 -40 -39 -60q-40 -17 -85 -17q-33 0 -62.5 0.5t-74.5 0.5h-39.5t-29.5 -1q-17 0 -40 -5
t-55 -15q-63 -18 -90 -18q-15 0 -28.5 6.5t-23 17.5t-15 25t-5.5 29q0 29 18.5 43.5t51.5 21.5q54 17 115 21q31 5 68.5 7t84.5 3t75 2t39 2q13 2 22 3t16.5 1.5l15 1t17.5 0.5q30 0 47 -19.5t17 -49.5z" />
    <glyph glyph-name="umacron" unicode="&#x16b;" horiz-adv-x="1249" 
d="M903 435q-128 -215 -262 -333t-249 -118q-66 0 -134.5 77t-68.5 237q0 131 63 386q53 213 53 299q29 60 91 60q42 0 67 -29.5t25 -61.5q0 -70 -49 -199q-93 -251 -93 -431q0 -164 76 -164q97 0 247 165t257 460q42 118 68.5 153.5t71.5 35.5q68 0 68 -90q0 -11 -19 -73
q-60 -219 -60 -414q0 -234 77 -303q40 -37 40 -60q0 -28 -40.5 -51t-73.5 -23q-70 0 -113 104t-43 307v33q0 16 1 33zM1080 1306q0 -40 -39 -60q-40 -17 -85 -17q-33 0 -62.5 0.5t-74.5 0.5h-39.5t-29.5 -1q-17 0 -40 -5t-55 -15q-63 -18 -90 -18q-15 0 -28.5 6.5t-23 17.5
t-15 25t-5.5 29q0 29 18.5 43.5t51.5 21.5q54 17 115 21q31 5 68.5 7t84.5 3t75 2t39 2q13 2 22 3t16.5 1.5l15 1t17.5 0.5q30 0 47 -19.5t17 -49.5z" />
    <glyph glyph-name="Ubreve" unicode="&#x16c;" horiz-adv-x="1587" 
d="M712 -70q-98 0 -240.5 66t-217.5 224t-75 348q0 114 50 383q9 49 26 156q32 213 44.5 256t39.5 68.5t63 25.5q25 0 51.5 -47.5t26.5 -73.5q0 -20 -46 -181q-24 -81 -52 -286.5t-28 -289.5q0 -281 131.5 -381t220.5 -100q172 0 292.5 52.5t182.5 190.5t88 513
q26 383 63.5 477.5t106.5 94.5q68 0 68 -111q0 -94 -39 -308q-25 -132 -37 -309q-11 -140 -29 -246.5t-59 -177.5t-103.5 -133t-130.5 -109t-187.5 -74.5t-209.5 -27.5zM1228 1697q-30 -27 -114.5 -60t-149.5 -33q-52 0 -151.5 64.5t-140.5 148t-41 99.5q0 27 23.5 59
t46.5 32q18 0 32 -32q40 -95 104.5 -163.5t143.5 -68.5q162 0 262 148q7 12 39.5 47t42.5 35q15 0 32.5 -32t17.5 -50q0 -31 -49.5 -95.5t-97.5 -98.5z" />
    <glyph glyph-name="ubreve" unicode="&#x16d;" horiz-adv-x="1249" 
d="M839 435q-128 -215 -262 -333t-249 -118q-66 0 -134.5 77t-68.5 237q0 131 63 386q53 213 53 299q29 60 91 60q42 0 67 -29.5t25 -61.5q0 -70 -49 -199q-93 -251 -93 -431q0 -164 76 -164q97 0 247 165t257 460q42 118 68.5 153.5t71.5 35.5q68 0 68 -90q0 -11 -19 -73
q-60 -219 -60 -414q0 -234 77 -303q40 -37 40 -60q0 -28 -40.5 -51t-73.5 -23q-70 0 -113 104t-43 307v33q0 16 1 33zM965 1229q-30 -27 -114.5 -60t-149.5 -33q-52 0 -151.5 64.5t-140.5 148t-41 99.5q0 27 23.5 59t46.5 32q18 0 32 -32q40 -95 104.5 -163.5t143.5 -68.5
q162 0 262 148q7 12 39.5 47t42.5 35q15 0 32.5 -32t17.5 -50q0 -31 -49.5 -95.5t-97.5 -98.5z" />
    <glyph glyph-name="Uring" unicode="&#x16e;" horiz-adv-x="1587" 
d="M712 -70q-98 0 -240.5 66t-217.5 224t-75 348q0 114 50 383q9 49 26 156q32 213 44.5 256t39.5 68.5t63 25.5q25 0 51.5 -47.5t26.5 -73.5q0 -20 -46 -181q-24 -81 -52 -286.5t-28 -289.5q0 -281 131.5 -381t220.5 -100q172 0 292.5 52.5t182.5 190.5t88 513
q26 383 63.5 477.5t106.5 94.5q68 0 68 -111q0 -94 -39 -308q-25 -132 -37 -309q-11 -140 -29 -246.5t-59 -177.5t-103.5 -133t-130.5 -109t-187.5 -74.5t-209.5 -27.5zM1247 1838q0 -89 -87.5 -168t-184.5 -79q-99 0 -163.5 62.5t-64.5 162.5q0 83 81.5 161.5t220.5 78.5
q26 0 87 -27t86 -92.5t25 -91.5v-7zM1018 1943h-16q-68 0 -94.5 -47t-26.5 -88q0 -39 31.5 -80t70.5 -41q35 0 86 32.5t51 106.5q0 40 -20 78.5t-82 38.5z" />
    <glyph glyph-name="uring" unicode="&#x16f;" horiz-adv-x="1249" 
d="M839 435q-128 -215 -262 -333t-249 -118q-66 0 -134.5 77t-68.5 237q0 131 63 386q53 213 53 299q29 60 91 60q42 0 67 -29.5t25 -61.5q0 -70 -49 -199q-93 -251 -93 -431q0 -164 76 -164q97 0 247 165t257 460q42 118 68.5 153.5t71.5 35.5q68 0 68 -90q0 -11 -19 -73
q-60 -219 -60 -414q0 -234 77 -303q40 -37 40 -60q0 -28 -40.5 -51t-73.5 -23q-70 0 -113 104t-43 307v33q0 16 1 33zM996 1405q0 -89 -87.5 -168t-184.5 -79q-99 0 -163.5 62.5t-64.5 162.5q0 83 81.5 161.5t220.5 78.5q26 0 87 -27t86 -92.5t25 -91.5v-7zM767 1510h-16
q-68 0 -94.5 -47t-26.5 -88q0 -39 31.5 -80t70.5 -41q35 0 86 32.5t51 106.5q0 40 -20 78.5t-82 38.5z" />
    <glyph glyph-name="Uhungarumlaut" unicode="&#x170;" horiz-adv-x="1587" 
d="M712 -70q-98 0 -240.5 66t-217.5 224t-75 348q0 114 50 383q9 49 26 156q32 213 44.5 256t39.5 68.5t63 25.5q25 0 51.5 -47.5t26.5 -73.5q0 -20 -46 -181q-24 -81 -52 -286.5t-28 -289.5q0 -281 131.5 -381t220.5 -100q172 0 292.5 52.5t182.5 190.5t88 513
q26 383 63.5 477.5t106.5 94.5q68 0 68 -111q0 -94 -39 -308q-25 -132 -37 -309q-11 -140 -29 -246.5t-59 -177.5t-103.5 -133t-130.5 -109t-187.5 -74.5t-209.5 -27.5zM807 1600q-18 0 -34.5 27.5t-16.5 43.5q0 9 57 85.5t118 140.5l144 153q45 53 92 53q24 0 44 -18.5
t20 -42.5q0 -14 -44 -54q-142 -129 -188 -190q-135 -198 -192 -198zM1139 1573q-47 0 -47 53q0 35 21.5 69t100.5 125l56 66l73 76q30 30 52 62q11 15 38.5 32t41.5 17q61 0 61 -37q0 -20 -31 -51q-11 -11 -54 -74q-39 -56 -73 -84q-133 -91 -170 -174q-35 -80 -69 -80z" />
    <glyph glyph-name="uhungarumlaut" unicode="&#x171;" horiz-adv-x="1249" 
d="M839 435q-128 -215 -262 -333t-249 -118q-66 0 -134.5 77t-68.5 237q0 131 63 386q53 213 53 299q29 60 91 60q42 0 67 -29.5t25 -61.5q0 -70 -49 -199q-93 -251 -93 -431q0 -164 76 -164q97 0 247 165t257 460q42 118 68.5 153.5t71.5 35.5q68 0 68 -90q0 -11 -19 -73
q-60 -219 -60 -414q0 -234 77 -303q40 -37 40 -60q0 -28 -40.5 -51t-73.5 -23q-70 0 -113 104t-43 307v33q0 16 1 33zM579 1180q-18 0 -34.5 27.5t-16.5 43.5q0 9 57 85.5t118 140.5l144 153q45 53 92 53q24 0 44 -18.5t20 -42.5q0 -14 -44 -54q-142 -129 -188 -190
q-135 -198 -192 -198zM911 1153q-47 0 -47 53q0 35 21.5 69t100.5 125l56 66l73 76q30 30 52 62q11 15 38.5 32t41.5 17q61 0 61 -37q0 -20 -31 -51q-11 -11 -54 -74q-39 -56 -73 -84q-133 -91 -170 -174q-35 -80 -69 -80z" />
    <glyph glyph-name="Uogonek" unicode="&#x172;" horiz-adv-x="1587" 
d="M658 -65q-261 49 -370 224.5t-109 408.5q0 114 50 383q9 49 26 156q32 213 44.5 256t39.5 68.5t63 25.5q25 0 51.5 -47.5t26.5 -73.5q0 -20 -46 -181q-24 -81 -52 -286.5t-28 -289.5q0 -281 131.5 -381t220.5 -100q172 0 292.5 52.5t182.5 190.5t88 513
q26 383 63.5 477.5t106.5 94.5q68 0 68 -111q0 -94 -39 -308q-25 -132 -37 -309q-25 -339 -95 -438t-168 -185t-264 -121q-20 -15 -46 -28q-91 -45 -147.5 -112.5t-56.5 -118.5q0 -82 125 -82q53 0 86 15q25 11 37 11q27 0 27 -32q0 -28 -16 -69t-58.5 -48t-98.5 -7
q-137 0 -190.5 63.5t-53.5 127.5q0 138 146 261z" />
    <glyph glyph-name="uogonek" unicode="&#x173;" horiz-adv-x="1249" 
d="M898 10q4 2 7 5q-67 103 -67 354v33q0 16 1 33q-128 -215 -262 -333t-249 -118q-66 0 -134.5 77t-68.5 237q0 131 63 386q53 213 53 299q29 60 91 60q42 0 67 -29.5t25 -61.5q0 -70 -49 -199q-93 -251 -93 -431q0 -164 76 -164q97 0 247 165t257 460q42 118 68.5 153.5
t71.5 35.5q68 0 68 -90q0 -11 -19 -73q-60 -219 -60 -414q0 -250 90 -316q29 -22 29 -52q0 -33 -53 -65q-10 -6 -23 -15q-14 -10 -36 -21q-91 -45 -147.5 -112.5t-56.5 -118.5q0 -82 125 -82q53 0 86 15q25 11 37 11q27 0 27 -32q0 -28 -16 -69t-58.5 -48t-98.5 -7
q-137 0 -190.5 63.5t-53.5 127.5q0 174 246 336z" />
    <glyph glyph-name="Wcircumflex" unicode="&#x174;" horiz-adv-x="2074" 
d="M1093 791q-34 -46 -125 -207q-379 -682 -424 -682q-68 0 -110 79.5t-115.5 421.5t-124.5 654q-19 88 -37 144q-25 75 -25 112q0 39 29.5 70.5t65.5 31.5q44 0 76.5 -67.5t72.5 -327.5q86 -565 176 -854q250 399 311 507.5t172 350.5q29 53 80 53q22 0 50 -43.5t98 -239.5
q174 -485 237 -582q352 582 409 1207q0 14 26.5 38.5t50.5 24.5q80 0 80 -102q0 -106 -53.5 -317.5t-128 -390t-250.5 -543.5q-29 -59 -49 -105q-10 -19 -38.5 -32t-45.5 -13q-43 0 -87 47t-134 275.5t-130 343.5q-28 79 -57 146zM1386 1865q6 -5 25 -27t51 -57
q65 -71 74.5 -94t9.5 -40q0 -27 -20.5 -48t-42.5 -21q-42 0 -120 114q-25 39 -73 96q-46 56 -72 104q-29 70 -49 70q-23 0 -148 -144q-92 -105 -141 -153t-75 -48q-56 0 -56 95q0 43 17 56l107 101q44 42 84 76q76 65 130 129q64 76 107 76q20 0 43.5 -32.5t90.5 -152.5
q54 -99 58 -100z" />
    <glyph glyph-name="wcircumflex" unicode="&#x175;" horiz-adv-x="1805" 
d="M925 662q-28 -1 -135 -233q-88 -191 -180 -340.5t-135 -149.5q-124 0 -229.5 368.5t-105.5 593.5q0 73 36.5 121t86.5 52q7 1 25 -0.5t44 -33t26 -61.5v-4q0 -12 -11 -100q-9 -65 -9 -159q0 -149 57 -329t96 -180q28 0 185 304q99 193 142 266l32 60q69 132 131 182
q86 -11 86 -86q0 -25 -4 -42t-4 -42q0 -185 96 -387.5t137 -202.5q30 0 95 212q88 288 162.5 432t109.5 171t79 27q25 0 42.5 -21.5t17.5 -46.5q0 -37 -11 -51q-124 -163 -238 -509q-97 -297 -133 -373t-60 -76q-121 0 -198 88.5t-204 470.5q-15 45 -29 79zM1238 1429
q6 -5 25 -27t51 -57q65 -71 74.5 -94t9.5 -40q0 -27 -20.5 -48t-42.5 -21q-42 0 -120 114q-25 39 -73 96q-46 56 -72 104q-29 70 -49 70q-23 0 -148 -144q-92 -105 -141 -153t-75 -48q-56 0 -56 95q0 43 17 56l107 101q44 42 84 76q76 65 130 129q64 76 107 76
q20 0 43.5 -32.5t90.5 -152.5q54 -99 58 -100z" />
    <glyph glyph-name="Ycircumflex" unicode="&#x176;" horiz-adv-x="1374" 
d="M627 697q-80 83 -218 268q-97 130 -137 172.5t-110 98.5q-93 72 -114.5 103t-21.5 65q0 16 31 42.5t57 26.5q61 0 161 -92t181 -194q247 -313 306 -350q59 65 124 133q330 342 402 444q79 110 157 110q30 0 47 -28.5t17 -57.5q0 -27 -75.5 -116t-399.5 -426
q-156 -162 -183 -209t-52 -273t-35 -354q-6 -78 -16 -88t-42 -20.5t-51 -10.5q-75 0 -75 126q0 78 32 277q30 191 30 256q0 57 -15 97zM1051 1876q6 -5 25 -27t51 -57q65 -71 74.5 -94t9.5 -40q0 -27 -20.5 -48t-42.5 -21q-42 0 -120 114q-25 39 -73 96q-46 56 -72 104
q-29 70 -49 70q-23 0 -148 -144q-92 -105 -141 -153t-75 -48q-56 0 -56 95q0 43 17 56l107 101q44 42 84 76q76 65 130 129q64 76 107 76q20 0 43.5 -32.5t90.5 -152.5q54 -99 58 -100z" />
    <glyph glyph-name="ycircumflex" unicode="&#x177;" horiz-adv-x="1210" 
d="M872 353q-184 -160 -323.5 -232.5t-213.5 -72.5q-99 0 -151.5 82.5t-52.5 192.5q0 154 62.5 380.5t93 269t97.5 42.5q28 0 46 -33t18 -75q0 -25 -23 -65q-54 -94 -56.5 -104t-38.5 -120.5t-36 -207.5q0 -34 16.5 -106t68.5 -72q55 0 135.5 33.5t181.5 109.5t136 123
t49.5 107t20.5 260t97 200q54 0 70 -28.5t16 -108.5q0 -66 -9 -165q-11 -125 -14 -178q-14 -275 -71.5 -552.5t-167.5 -464t-303 -186.5q-196 0 -348.5 102.5t-152.5 173.5q0 33 15.5 65t39.5 32q12 0 26 -19q131 -201 412 -201q145 0 243.5 254.5t108.5 477.5q2 43 8 86z
M964 1461q6 -5 25 -27t51 -57q65 -71 74.5 -94t9.5 -40q0 -27 -20.5 -48t-42.5 -21q-42 0 -120 114q-25 39 -73 96q-46 56 -72 104q-29 70 -49 70q-23 0 -148 -144q-92 -105 -141 -153t-75 -48q-56 0 -56 95q0 43 17 56l107 101q44 42 84 76q76 65 130 129q64 76 107 76
q20 0 43.5 -32.5t90.5 -152.5q54 -99 58 -100z" />
    <glyph glyph-name="Ydieresis" unicode="&#x178;" horiz-adv-x="1374" 
d="M627 697q-80 83 -218 268q-97 130 -137 172.5t-110 98.5q-93 72 -114.5 103t-21.5 65q0 16 31 42.5t57 26.5q61 0 161 -92t181 -194q247 -313 306 -350q59 65 124 133q330 342 402 444q79 110 157 110q30 0 47 -28.5t17 -57.5q0 -27 -75.5 -116t-399.5 -426
q-156 -162 -183 -209t-52 -273t-35 -354q-6 -78 -16 -88t-42 -20.5t-51 -10.5q-75 0 -75 126q0 78 32 277q30 191 30 256q0 57 -15 97zM1043 1637q-38 0 -64.5 26.5t-26.5 63.5q0 39 18.5 57t97.5 37l15 4q28 8 48.5 -14t20.5 -63q0 -111 -109 -111zM668 1610
q-23 0 -66.5 15t-43.5 38q0 125 69 125q64 0 102.5 -35t38.5 -98q0 -45 -100 -45z" />
    <glyph glyph-name="Zacute" unicode="&#x179;" horiz-adv-x="1568" 
d="M1494 1315q-3 -9 -43 -33q-31 -18 -77 -75q-35 -43 -80 -91l-122 -138q-217 -249 -347 -375q-42 -41 -91 -92l-299 -303q-2 -19 25 -19q88 0 401 31q60 6 102 6q75 0 124 4t85 4q262 0 262 -117q0 -97 -73 -97q-35 0 -59 6q-128 32 -266 32q-70 0 -421 -22l-64 -4
q-205 -13 -350 -52q-84 -23 -98 -23q-64 0 -64 73q0 71 40 101q206 150 596 541t521 571l-24 1q-84 3 -325 -20q-52 -5 -108 -9q-54 -4 -91 -8q-129 -14 -210 -14q-118 0 -167.5 34t-49.5 77q0 26 28 60t45 34q12 0 44 -11q34 -13 57 -13q92 0 168 -2.5t202 7.5
q124 10 240 14q159 4 326 35q86 16 131 16q46 0 46 -62q0 -46 -14 -67zM1322 1932q-4 -2 -10 -6q-7 -4 -18 -9q-67 -31 -278 -192q-87 -67 -132 -96l-23 -14q-26 0 -46 25t-20 51q0 51 153.5 167t275.5 184q46 26 69 45q17 14 18 11q17 0 39.5 -37t22.5 -57q0 -12 -19 -38
t-32 -34z" />
    <glyph glyph-name="zacute" unicode="&#x17a;" horiz-adv-x="1029" 
d="M982 11q-26 11 -50 24q-88 44 -238 44q-87 0 -290 -33.5t-277 -102.5q-51 -45 -107 -45q-31 0 -69.5 18t-40.5 49q47 52 130 136q451 458 686 760q-4 9 -32 9q-53 0 -226 -25q-78 -12 -162 -12q-205 0 -205 108q0 82 91 82q5 0 19 -5q72 -30 174 -30q135 0 305 22
q17 3 40 6q22 2 51 8q58 10 92 10t69.5 -18t30.5 -58l-1 -4q-22 -87 -529 -628q-122 -131 -131 -155q4 -10 20 -10q14 0 140 27q236 51 358 51q191 0 191 -116q0 -73 -39 -112zM1041 1466q-4 -2 -10 -6q-7 -4 -18 -9q-67 -31 -278 -192q-87 -67 -132 -96l-23 -14
q-26 0 -46 25t-20 51q0 51 153.5 167t275.5 184q46 26 69 45q17 14 18 11q17 0 39.5 -37t22.5 -57q0 -12 -19 -38t-32 -34z" />
    <glyph glyph-name="Zdotaccent" unicode="&#x17b;" horiz-adv-x="1568" 
d="M1494 1315q-3 -9 -43 -33q-31 -18 -77 -75q-35 -43 -80 -91l-122 -138q-217 -249 -347 -375q-42 -41 -91 -92l-299 -303q-2 -19 25 -19q88 0 401 31q60 6 102 6q75 0 124 4t85 4q262 0 262 -117q0 -97 -73 -97q-35 0 -59 6q-128 32 -266 32q-70 0 -421 -22l-64 -4
q-205 -13 -350 -52q-84 -23 -98 -23q-64 0 -64 73q0 71 40 101q206 150 596 541t521 571l-24 1q-84 3 -325 -20q-52 -5 -108 -9q-54 -4 -91 -8q-129 -14 -210 -14q-118 0 -167.5 34t-49.5 77q0 26 28 60t45 34q12 0 44 -11q34 -13 57 -13q92 0 168 -2.5t202 7.5
q124 10 240 14q159 4 326 35q86 16 131 16q46 0 46 -62q0 -46 -14 -67zM910 1661q-33 0 -78 16.5t-45 53.5q0 42 39 103.5t72 61.5q61 0 98 -31t37 -88q0 -46 -38 -81t-85 -35z" />
    <glyph glyph-name="zdotaccent" unicode="&#x17c;" horiz-adv-x="1029" 
d="M982 11q-26 11 -50 24q-88 44 -238 44q-87 0 -290 -33.5t-277 -102.5q-51 -45 -107 -45q-31 0 -69.5 18t-40.5 49q47 52 130 136q451 458 686 760q-4 9 -32 9q-53 0 -226 -25q-78 -12 -162 -12q-205 0 -205 108q0 82 91 82q5 0 19 -5q72 -30 174 -30q135 0 305 22
q17 3 40 6q22 2 51 8q58 10 92 10t69.5 -18t30.5 -58l-1 -4q-22 -87 -529 -628q-122 -131 -131 -155q4 -10 20 -10q14 0 140 27q236 51 358 51q191 0 191 -116q0 -73 -39 -112zM605 1201q-33 0 -78 16.5t-45 53.5q0 42 39 103.5t72 61.5q61 0 98 -31t37 -88q0 -46 -38 -81
t-85 -35z" />
    <glyph glyph-name="Zcaron" unicode="&#x17d;" horiz-adv-x="1568" 
d="M1494 1315q-3 -9 -43 -33q-31 -18 -77 -75q-35 -43 -80 -91l-122 -138q-217 -249 -347 -375q-42 -41 -91 -92l-299 -303q-2 -19 25 -19q88 0 401 31q60 6 102 6q75 0 124 4t85 4q262 0 262 -117q0 -97 -73 -97q-35 0 -59 6q-128 32 -266 32q-70 0 -421 -22l-64 -4
q-205 -13 -350 -52q-84 -23 -98 -23q-64 0 -64 73q0 71 40 101q206 150 596 541t521 571l-24 1q-84 3 -325 -20q-52 -5 -108 -9q-54 -4 -91 -8q-129 -14 -210 -14q-118 0 -167.5 34t-49.5 77q0 26 28 60t45 34q12 0 44 -11q34 -13 57 -13q92 0 168 -2.5t202 7.5
q124 10 240 14q159 4 326 35q86 16 131 16q46 0 46 -62q0 -46 -14 -67zM1112 1834q-112 -121 -163 -197q-16 -20 -60 -20q-42 0 -97 91q-170 274 -239 343q-19 18 -19 43q0 63 57 63q55 0 67.5 -15t62 -80t68.5 -99q12 -24 17 -29q9 -9 40 -69q30 -55 60 -80q11 12 25 30
q81 106 174.5 194.5t118.5 88.5q17 0 38 -24.5t21 -42.5q0 -43 -118 -146q-53 -48 -53 -51z" />
    <glyph glyph-name="zcaron" unicode="&#x17e;" horiz-adv-x="1029" 
d="M982 11q-26 11 -50 24q-88 44 -238 44q-87 0 -290 -33.5t-277 -102.5q-51 -45 -107 -45q-31 0 -69.5 18t-40.5 49q47 52 130 136q451 458 686 760q-4 9 -32 9q-53 0 -226 -25q-78 -12 -162 -12q-205 0 -205 108q0 82 91 82q5 0 19 -5q72 -30 174 -30q135 0 305 22
q17 3 40 6q22 2 51 8q58 10 92 10t69.5 -18t30.5 -58l-1 -4q-22 -87 -529 -628q-122 -131 -131 -155q4 -10 20 -10q14 0 140 27q236 51 358 51q191 0 191 -116q0 -73 -39 -112zM817 1371q-112 -121 -163 -197q-16 -20 -60 -20q-42 0 -97 91q-170 274 -239 343q-19 18 -19 43
q0 63 57 63q55 0 67.5 -15t62 -80t68.5 -99q12 -24 17 -29q9 -9 40 -69q30 -55 60 -80q11 12 25 30q81 106 174.5 194.5t118.5 88.5q17 0 38 -24.5t21 -42.5q0 -43 -118 -146q-53 -48 -53 -51z" />
    <glyph glyph-name="longs" unicode="&#x17f;" horiz-adv-x="561" 
d="M343 504q-6 -56 -13 -93q-11 -124 -18 -286q-14 -306 -57 -453t-132.5 -227t-196.5 -80q-116 0 -203.5 86.5t-87.5 162.5q0 20 14 39.5t21 19.5t31 -20q91 -80 125.5 -98t76.5 -18q133 0 183 186.5t78 692.5q9 153 42 348q3 73 32 220q22 109 34 186q93 583 438 583
q89 0 151 -60.5t62 -150.5q0 -73 -34.5 -165.5t-78.5 -92.5q-33 0 -33 33l7 97q0 193 -108 193q-105 0 -177.5 -185.5t-124.5 -639.5z" />
    <glyph glyph-name="florin" unicode="&#x192;" horiz-adv-x="1044" 
d="M1032 807q0 -32 -40 -58t-72 -26h-47q-65 0 -111 -8q-15 -2 -41 -4q-60 -2 -86 -21q-29 -63 -56 -165q-67 -251 -111.5 -312t-163 -172t-202.5 -111q-64 0 -101.5 30t-37.5 81q0 82 74 82q8 0 40 -17q28 -16 40 -16q13 0 47.5 29.5t90.5 95.5t89 112t69.5 148t55.5 213
q-21 8 -59 8q-24 0 -86 -8q-45 -7 -83 14.5t-38 61.5q0 32 25.5 52t56.5 20l28 -5q53 0 123.5 6.5t80.5 9t17 30t7 55.5q13 267 100 381t248 114q53 0 90 -26.5t37 -71.5q0 -21 -27 -46.5t-49 -25.5q-7 0 -42 18q-34 19 -44 19q-45 0 -106.5 -98.5t-61.5 -198.5
q0 -31 -7 -66t-7 -54q35 -9 45 -9q38 0 108 8q71 9 115 9q22 0 58.5 -27.5t33.5 -50.5z" />
    <glyph glyph-name="uni01CE" unicode="&#x1ce;" horiz-adv-x="1202" 
d="M807 364q-140 -188 -277 -282t-251 -94q-77 0 -133 65t-56 167q0 263 235 566.5t467 303.5q84 0 125 -96q13 -32 41 -32q80 0 80 -62q0 -31 -10 -85q-54 -295 -54 -416q0 -242 92 -290q44 -24 44 -59q0 -31 -43 -62.5t-83 -31.5q-77 0 -127 106t-50 302zM746 927
q-132 0 -307 -247.5t-175 -410.5q0 -115 76 -115q110 0 305 222t195 408q0 143 -94 143zM979 1414q-112 -121 -163 -197q-16 -20 -60 -20q-42 0 -97 91q-170 274 -239 343q-19 18 -19 43q0 63 57 63q55 0 67.5 -15t62 -80t68.5 -99q12 -24 17 -29q9 -9 40 -69q30 -55 60 -80
q11 12 25 30q81 106 174.5 194.5t118.5 88.5q17 0 38 -24.5t21 -42.5q0 -43 -118 -146q-53 -48 -53 -51z" />
    <glyph glyph-name="uni01D0" unicode="&#x1d0;" horiz-adv-x="592" 
d="M324 222q0 -76 21 -171q4 -18 4 -30q0 -18 -33 -46.5t-70 -28.5q-97 0 -97 178q0 184 76 582q26 139 26 171q0 63 23 107.5t65 44.5q51 0 80.5 -24.5t29.5 -54.5t-14 -79q-75 -264 -93 -378t-18 -271zM609 1413q-112 -121 -163 -197q-16 -20 -60 -20q-42 0 -97 91
q-170 274 -239 343q-19 18 -19 43q0 63 57 63q55 0 67.5 -15t62 -80t68.5 -99q12 -24 17 -29q9 -9 40 -69q30 -55 60 -80q11 12 25 30q81 106 174.5 194.5t118.5 88.5q17 0 38 -24.5t21 -42.5q0 -43 -118 -146q-53 -48 -53 -51z" />
    <glyph glyph-name="uni01D2" unicode="&#x1d2;" horiz-adv-x="1158" 
d="M425 -50q-137 0 -226 104t-89 257q0 258 173.5 508.5t415.5 250.5q160 0 259.5 -123t99.5 -293q0 -260 -205.5 -482t-427.5 -222zM286 337q0 -101 42.5 -165t112.5 -64q149 0 299 163.5t150 363.5q0 123 -57.5 199.5t-154.5 76.5q-161 0 -276.5 -197.5t-115.5 -376.5z
M932 1413q-112 -121 -163 -197q-16 -20 -60 -20q-42 0 -97 91q-170 274 -239 343q-19 18 -19 43q0 63 57 63q55 0 67.5 -15t62 -80t68.5 -99q12 -24 17 -29q9 -9 40 -69q30 -55 60 -80q11 12 25 30q81 106 174.5 194.5t118.5 88.5q17 0 38 -24.5t21 -42.5q0 -43 -118 -146
q-53 -48 -53 -51z" />
    </font>
</defs>
</svg>
